{"glyphs":{"0":{"ha":600,"x_min":-3,"x_max":516,"o":"m 323 665 l 323 665 q 273 687 302 680 q 220 688 245 694 q 104 536 137 665 q 96 335 87 456 q 129 138 104 214 q 186 47 151 79 q 263 11 222 16 q 359 53 321 6 q 412 168 397 100 q 419 250 419 201 q 418 350 420 299 l 416 397 q 387 566 409 500 q 323 665 362 636 m 208 701 l 208 701 q 393 659 317 718 q 497 458 469 600 q 505 262 516 359 q 445 94 493 165 q 308 3 397 22 q 207 10 255 -5 q 111 56 158 24 q 26 200 55 104 q 0 399 -3 296 q 42 573 3 502 q 121 666 79 636 q 208 701 163 695 z "},"1":{"ha":406,"x_min":0,"x_max":307,"o":"m 195 0 l 195 0 q 293 14 195 0 q 287 237 288 93 q 290 516 286 380 q 307 705 294 651 q 304 704 307 705 q 297 704 301 704 q 289 704 293 703 q 283 705 286 704 q 0 505 144 590 q 7 433 6 460 q 211 608 132 510 q 195 0 203 351 z "},"2":{"ha":503,"x_min":-13,"x_max":483,"o":"m 100 381 l 100 381 q 22 509 30 436 q 63 639 15 581 q 207 707 111 697 q 354 666 292 713 q 433 543 417 620 q 419 417 445 471 q 342 321 393 362 q 231 248 292 279 q 98 162 142 203 q 57 54 53 121 q 237 93 134 104 q 363 83 328 80 q 420 131 397 85 q 443 102 432 115 q 475 64 454 89 q 483 56 479 60 q 396 1 452 3 q 279 15 339 -1 q 213 27 245 23 q 18 2 77 42 q 9 116 -13 59 q 94 224 31 173 q 130 250 112 237 q 237 333 186 288 q 314 431 289 377 q 319 553 340 486 q 241 627 294 615 q 138 611 189 640 q 70 524 87 583 q 100 381 53 464 z "},"3":{"ha":498,"x_min":0,"x_max":472,"o":"m 427 140 l 427 140 q 46 14 370 -44 q 30 87 46 14 q 243 27 144 2 q 313 82 288 38 q 340 183 338 126 q 315 289 342 240 q 229 358 289 338 q 91 356 176 374 q 102 400 99 382 q 248 428 203 391 q 287 513 283 459 q 263 615 291 567 q 178 677 236 663 q 0 614 102 691 q 7 654 5 636 q 5 692 9 673 q 267 690 170 732 q 376 565 363 648 q 355 461 387 502 q 238 390 324 420 q 427 140 472 320 z "},"4":{"ha":519,"x_min":0,"x_max":482,"o":"m 279 215 l 279 215 l 39 215 l 279 597 l 279 215 m 279 0 l 279 0 l 359 27 l 359 165 l 447 165 l 482 215 l 359 215 l 359 708 l 318 708 l 0 210 l 40 165 l 279 165 l 279 0 z "},"5":{"ha":446,"x_min":0,"x_max":396,"o":"m 376 156 l 376 156 q 16 16 322 -50 q 0 97 16 16 q 202 31 109 2 q 268 92 244 43 q 294 205 292 141 q 270 323 296 269 q 189 400 245 377 q 95 404 154 412 q 7 358 36 396 l 7 648 l 7 677 q 15 697 7 689 q 34 705 23 705 l 328 705 l 297 648 l 47 648 q 35 642 41 648 q 30 629 30 637 l 30 409 q 213 426 126 447 q 348 336 300 406 q 376 156 396 266 z "},"6":{"ha":487,"x_min":-7,"x_max":407,"o":"m 102 325 l 102 325 q 88 207 86 279 q 107 90 90 136 q 173 22 130 38 q 260 23 217 5 q 321 92 302 41 q 334 203 334 133 q 319 316 334 274 q 252 399 294 377 q 167 402 209 420 q 102 325 125 383 m 309 712 l 309 712 q 350 712 329 712 q 385 712 370 712 q 399 711 399 711 q 215 608 292 694 q 115 414 137 522 q 182 433 147 431 q 322 389 265 435 q 396 257 379 342 q 395 141 407 198 q 345 46 383 85 q 238 1 306 7 q 68 58 125 -3 q 2 215 10 119 q 28 415 -7 312 q 134 600 62 519 q 309 712 205 682 z "},"7":{"ha":508,"x_min":0,"x_max":454,"o":"m 140 0 l 140 0 q 267 18 140 0 q 333 368 286 218 q 454 688 379 517 l 431 707 q 252 693 340 690 q 75 710 163 696 l 0 602 l 68 639 l 404 654 q 140 0 248 386 z "},"8":{"ha":475,"x_min":-9,"x_max":417,"o":"m 305 452 l 305 452 q 327 582 346 513 q 235 682 308 651 q 106 653 138 701 q 102 531 73 606 q 215 397 130 456 q 305 452 278 418 m 157 368 l 157 368 q 30 507 68 429 q 27 647 -9 586 q 126 711 63 698 q 253 701 190 725 q 352 616 317 677 q 370 509 382 558 q 321 425 358 459 q 241 379 285 391 q 335 302 297 340 q 410 167 402 233 q 372 55 417 101 q 237 1 327 9 q 100 26 163 -4 q 14 111 37 56 q 6 225 -9 172 q 63 315 22 278 q 157 368 104 353 m 177 351 l 177 351 q 61 240 88 310 q 67 109 34 171 q 191 28 100 47 q 302 55 268 16 q 329 153 336 94 q 277 264 322 213 q 202 331 241 301 q 177 351 189 341 z "},"9":{"ha":474,"x_min":-6,"x_max":408,"o":"m 5 454 l 5 454 q 6 570 -6 513 q 57 665 18 626 q 163 711 96 704 q 333 654 275 715 q 399 497 391 593 q 374 297 408 401 q 269 113 340 194 q 95 0 197 31 l 3 0 q 186 103 109 17 q 287 298 264 190 q 219 279 254 280 q 79 323 136 277 q 5 454 22 369 m 300 387 l 300 387 q 313 504 315 433 q 294 621 311 576 q 228 690 271 673 q 142 688 184 706 q 79 620 99 670 q 67 508 66 578 q 82 395 68 437 q 150 313 107 334 q 235 310 193 291 q 300 387 277 328 z "},"\u0000":{"ha":0,"x_min":0,"x_max":0,"o":""},"\u001d":{"ha":0,"x_min":0,"x_max":0,"o":""}," ":{"ha":341,"x_min":0,"x_max":0,"o":""}," ":{"ha":341,"x_min":0,"x_max":0,"o":""},"!":{"ha":206,"x_min":34,"x_max":130,"o":"m 83 -22 l 83 -22 q 55 -35 66 -22 q 43 -66 43 -47 q 55 -97 43 -84 q 83 -110 66 -110 q 111 -97 100 -110 q 123 -66 123 -84 q 111 -35 123 -47 q 83 -22 100 -22 m 83 1 l 83 1 q 87 42 84 18 q 93 85 91 66 q 96 102 95 97 q 101 138 98 120 q 109 181 104 156 q 124 258 119 232 q 130 313 128 283 q 83 381 130 381 q 46 364 58 381 q 34 315 34 347 q 41 257 34 294 q 56 184 49 220 q 70 105 64 149 q 73 79 71 97 q 78 37 75 59 q 83 1 80 15 z "},"\"":{"ha":296,"x_min":7,"x_max":195,"o":"m 127 454 l 127 454 l 160 298 l 193 450 q 192 466 195 458 q 184 478 189 473 q 159 489 174 489 q 136 479 145 489 q 129 468 132 475 q 127 454 125 462 m 41 298 l 41 298 l 73 451 q 63 479 73 468 q 39 489 54 489 q 17 479 27 489 q 7 455 7 470 l 41 298 z "},"#":{"ha":433,"x_min":0,"x_max":357,"o":"m 231 306 l 231 306 l 216 197 l 130 197 l 146 306 l 231 306 m 151 337 l 151 337 l 171 486 l 130 486 l 110 337 l 26 337 l 20 306 l 105 306 l 90 197 l 5 197 l 0 167 l 85 167 l 60 12 l 100 12 l 125 167 l 212 167 l 191 12 l 231 12 l 251 167 l 337 167 l 342 197 l 256 197 l 271 306 l 352 306 l 357 337 l 276 337 l 297 486 l 256 486 l 236 337 l 151 337 z "},"$":{"ha":446,"x_min":0,"x_max":376,"o":"m 99 62 l 99 62 l 175 197 q 188 195 182 196 q 246 176 220 190 q 286 130 273 162 q 272 53 301 87 q 197 19 243 19 q 99 62 143 22 m 277 428 l 277 428 l 201 294 q 188 296 195 295 q 130 315 157 301 q 90 360 103 328 q 104 437 75 404 q 179 471 134 471 q 277 428 237 469 m 317 450 l 317 450 l 376 555 q 358 558 368 560 q 343 546 349 555 l 308 484 q 272 474 289 473 q 235 481 254 476 q 170 491 208 492 q 65 445 106 487 q 24 330 25 402 q 63 240 28 269 q 149 201 98 211 l 81 80 q 41 149 53 111 l 46 18 l 0 -63 q 19 -66 9 -68 q 33 -54 28 -64 l 75 18 q 136 10 104 22 q 206 -1 168 -1 q 311 46 271 3 q 351 160 351 88 q 313 251 348 222 q 227 289 278 279 l 294 407 q 319 355 311 383 l 317 450 z "},"%":{"ha":484,"x_min":0,"x_max":446,"o":"m 355 233 l 355 233 q 402 130 402 233 q 399 73 402 97 q 385 34 396 50 q 355 19 375 19 q 322 51 333 20 q 312 126 312 81 q 322 204 313 174 q 355 233 331 233 m 359 249 l 359 249 q 311 232 332 249 q 279 188 290 216 q 267 129 267 160 q 277 67 267 96 q 309 21 288 39 q 360 3 330 3 q 425 41 404 3 q 446 132 446 79 q 435 188 446 161 q 404 231 424 215 q 359 249 384 248 m 90 460 l 90 460 q 125 433 116 459 q 134 361 134 407 q 126 279 134 310 q 92 249 117 249 q 62 264 72 249 q 49 302 52 279 q 46 358 46 326 q 56 433 47 406 q 90 460 64 460 m 88 476 l 88 476 q 26 441 50 475 q 0 361 3 408 q 25 270 0 307 q 92 233 50 233 q 140 250 121 233 q 170 296 160 267 q 180 359 180 325 q 168 417 178 390 q 136 460 157 444 q 88 476 116 476 m 364 476 l 364 476 l 330 476 l 81 2 l 114 2 l 170 107 l 324 400 l 364 476 z "},"&":{"ha":507,"x_min":-19,"x_max":492,"o":"m 180 298 l 180 298 q 138 349 157 322 q 132 433 113 394 q 197 471 150 471 q 247 450 228 471 q 265 399 265 429 q 245 341 265 368 q 180 298 223 314 m 242 144 l 242 144 q 258 125 252 133 q 286 93 274 108 q 162 38 230 28 q 66 121 94 47 q 71 202 54 161 q 131 261 87 243 l 242 144 m 119 273 l 119 273 q 31 216 60 254 q 12 84 -19 156 q 43 39 23 59 q 93 8 64 20 q 154 -3 121 -3 q 241 16 204 -3 q 302 70 277 36 q 308 31 317 47 q 258 -1 298 14 l 492 -1 q 419 43 458 7 q 334 132 381 79 q 380 206 351 176 q 343 184 361 203 q 317 149 326 165 q 300 167 309 157 q 242 231 275 197 l 192 288 q 286 334 254 304 q 317 399 317 366 q 301 445 317 425 q 257 478 286 465 q 132 476 193 504 q 66 379 71 446 q 119 273 67 325 z "},"'":{"ha":192,"x_min":-1,"x_max":101,"o":"m 64 417 l 64 417 q 71 418 69 420 q 73 410 73 416 q 53 345 69 370 q 18 309 37 321 q 64 336 47 317 q 85 363 81 354 q 101 423 101 393 q 87 473 101 452 q 53 495 73 492 q 15 486 33 499 q 0 456 1 473 q 10 424 -1 439 q 64 417 33 399 z "},"(":{"ha":284,"x_min":13,"x_max":222,"o":"m 219 496 l 219 496 q 100 435 151 484 q 36 339 58 394 q 14 222 13 281 q 36 105 13 163 q 100 9 58 50 q 219 -52 151 -40 q 222 -52 220 -52 l 218 -40 q 214 -38 216 -39 q 210 -36 212 -37 q 144 24 170 -16 q 106 119 117 67 q 94 222 94 172 q 106 325 94 273 q 144 420 117 377 q 210 480 170 460 q 214 482 212 481 q 219 484 216 484 l 222 496 q 219 496 220 496 z "},")":{"ha":301,"x_min":6,"x_max":215,"o":"m 9 496 l 9 496 q 128 435 77 484 q 192 339 170 394 q 214 222 215 281 q 192 105 215 163 q 128 9 170 50 q 9 -52 77 -40 q 6 -52 7 -52 l 9 -40 q 14 -38 12 -39 q 19 -36 16 -37 q 83 24 58 -16 q 122 119 111 67 q 134 222 134 172 q 122 325 134 273 q 83 420 111 377 q 19 480 58 460 q 14 482 16 481 q 9 484 12 484 l 6 496 q 9 496 7 496 z "},"*":{"ha":294,"x_min":0,"x_max":218,"o":"m 118 368 l 118 368 q 109 366 114 366 q 100 368 104 366 l 85 343 l 53 292 l 35 311 l 16 330 l 66 363 l 91 378 q 89 386 89 382 l 60 387 l 0 389 l 7 416 l 14 441 l 67 413 l 92 399 q 102 408 96 405 l 96 436 l 83 496 l 109 496 l 136 496 l 123 436 l 116 408 q 127 399 123 406 l 151 413 l 205 441 l 212 416 l 218 389 l 158 387 l 130 386 q 128 378 130 382 l 152 363 l 203 330 l 184 311 l 165 292 l 133 343 l 118 368 z "},"+":{"ha":455,"x_min":20,"x_max":372,"o":"m 172 243 l 172 243 l 20 243 l 20 196 l 172 196 l 172 17 l 219 17 l 219 196 l 372 196 l 372 243 l 219 243 l 219 418 l 172 418 l 172 243 z "},",":{"ha":208,"x_min":5,"x_max":107,"o":"m 71 9 l 71 9 q 77 10 75 12 q 79 3 79 8 q 59 -62 75 -38 q 24 -98 43 -87 q 70 -72 54 -90 q 92 -44 87 -54 q 107 16 107 -14 q 93 66 107 45 q 59 88 79 84 q 21 78 39 92 q 6 48 7 66 q 16 16 5 31 q 71 9 39 -9 z "},"-":{"ha":237,"x_min":6,"x_max":162,"o":"m 35 209 l 35 209 l 6 149 l 134 149 l 162 209 l 35 209 z "},"­":{"ha":237,"x_min":6,"x_max":162,"o":"m 35 209 l 35 209 l 6 149 l 134 149 l 162 209 l 35 209 z "},".":{"ha":161,"x_min":6,"x_max":90,"o":"m 45 90 l 45 90 q 18 78 29 90 q 6 50 6 66 l 6 45 q 18 17 6 28 q 45 5 29 5 l 50 5 q 78 17 66 5 q 90 45 90 28 l 90 50 q 78 78 90 66 q 50 90 66 90 l 45 90 z "},"/":{"ha":277,"x_min":0,"x_max":177,"o":"m 0 2 l 0 2 l 45 2 l 177 483 l 132 483 l 0 2 z "},":":{"ha":155,"x_min":0,"x_max":83,"o":"m 39 145 l 39 145 q 12 133 23 145 q 0 105 0 121 l 0 100 q 12 72 0 83 q 39 60 23 60 l 44 60 q 72 72 60 60 q 83 100 83 83 l 83 105 q 72 133 83 121 q 44 145 60 145 l 39 145 m 39 333 l 39 333 q 12 321 23 333 q 0 292 0 309 l 0 288 q 12 259 0 271 q 39 248 23 248 l 44 248 q 72 259 60 248 q 83 288 83 271 l 83 292 q 72 321 83 309 q 44 333 60 333 l 39 333 z "},";":{"ha":201,"x_min":-1,"x_max":101,"o":"m 64 12 l 64 12 q 71 13 69 15 q 73 6 73 11 q 53 -60 69 -35 q 18 -96 37 -84 q 64 -69 47 -87 q 85 -41 81 -51 q 101 18 101 -12 q 87 68 101 47 q 53 91 73 87 q 15 81 33 94 q 0 51 1 68 q 10 19 -1 34 q 64 12 33 -6 m 48 279 l 48 279 q 20 267 32 279 q 9 238 9 255 l 9 233 q 20 205 9 217 q 48 193 32 193 l 53 193 q 81 205 69 193 q 92 233 92 217 l 92 238 q 81 267 92 255 q 53 279 69 279 l 48 279 z "},";":{"ha":201,"x_min":-1,"x_max":101,"o":"m 64 12 l 64 12 q 71 13 69 15 q 73 6 73 11 q 53 -60 69 -35 q 18 -96 37 -84 q 64 -69 47 -87 q 85 -41 81 -51 q 101 18 101 -12 q 87 68 101 47 q 53 91 73 87 q 15 81 33 94 q 0 51 1 68 q 10 19 -1 34 q 64 12 33 -6 m 48 279 l 48 279 q 20 267 32 279 q 9 238 9 255 l 9 233 q 20 205 9 217 q 48 193 32 193 l 53 193 q 81 205 69 193 q 92 233 92 217 l 92 238 q 81 267 92 255 q 53 279 69 279 l 48 279 z "},"<":{"ha":446,"x_min":0,"x_max":355,"o":"m 42 211 l 42 211 l 355 368 l 355 420 l 0 236 l 0 185 l 355 1 l 355 52 l 42 211 z "},"=":{"ha":427,"x_min":7,"x_max":359,"o":"m 7 174 l 7 174 l 7 127 l 359 127 l 359 174 l 7 174 m 359 295 l 359 295 l 7 295 l 7 248 l 359 248 l 359 295 z "},">":{"ha":414,"x_min":0,"x_max":355,"o":"m 313 209 l 313 209 l 0 52 l 0 -1 l 355 184 l 355 235 l 0 419 l 0 366 l 313 209 z "},"?":{"ha":373,"x_min":-7,"x_max":302,"o":"m 142 -1 l 142 -1 q 144 15 143 6 q 157 65 145 37 q 212 127 170 94 q 226 138 219 133 q 264 170 247 153 q 292 209 281 186 q 302 270 302 233 q 282 346 302 313 q 231 398 262 380 q 138 416 191 420 q 20 340 60 408 q 3 233 -7 286 q 62 177 14 180 q 95 195 88 179 q 92 228 102 212 q 60 245 83 244 q 32 259 39 246 q 26 288 24 271 q 33 319 28 305 q 78 376 47 354 q 140 401 108 397 q 206 377 181 401 q 241 319 231 353 q 245 250 251 284 q 220 192 240 215 q 182 157 206 177 q 146 121 158 136 q 136 85 135 105 l 142 -1 m 145 -12 l 145 -12 q 114 -24 127 -12 q 101 -56 101 -37 q 115 -87 101 -75 q 146 -98 128 -99 q 175 -85 165 -98 q 185 -55 185 -73 q 174 -25 185 -37 q 145 -12 163 -12 z "},"@":{"ha":547,"x_min":0,"x_max":481,"o":"m 310 319 l 310 319 l 262 184 q 224 129 248 142 q 183 115 201 115 q 148 165 150 115 q 172 262 150 214 q 216 334 191 306 q 270 361 241 361 q 297 347 285 359 q 310 319 309 334 m 371 326 l 371 326 l 332 371 l 321 344 q 252 380 299 380 q 188 364 217 380 q 138 320 159 347 q 106 259 117 293 q 92 192 94 226 q 104 140 93 161 q 134 106 115 118 q 176 95 153 95 q 259 131 222 97 q 314 95 273 95 q 380 111 349 96 q 433 152 410 126 q 469 212 456 178 q 481 280 481 245 q 454 378 481 332 q 372 452 426 425 q 248 481 319 481 q 149 460 194 479 q 70 409 102 441 q 20 336 37 376 q 0 252 1 296 q 16 159 0 203 q 62 79 31 114 q 136 22 92 43 q 235 -2 180 1 l 248 -2 q 336 11 296 -2 q 404 45 375 24 q 450 89 431 66 q 479 134 468 112 q 414 74 448 100 q 326 32 380 49 q 242 20 286 20 q 134 54 181 22 q 64 138 88 87 q 39 245 39 190 q 56 329 39 290 q 103 397 73 368 q 172 442 133 427 q 254 458 211 458 q 363 433 317 458 q 435 366 410 407 q 460 279 460 324 q 459 264 460 269 q 438 195 456 227 q 393 142 421 163 q 330 114 366 120 q 307 136 307 115 q 313 163 309 151 l 369 317 q 371 326 370 321 z "},"A":{"ha":648,"x_min":0,"x_max":629,"o":"m 381 312 l 381 312 l 149 312 l 257 620 l 381 312 m 579 43 l 579 43 l 313 705 l 223 705 l 249 641 l 32 28 q 0 -1 23 6 l 66 -1 q 45 19 39 5 l 143 296 q 359 296 251 296 q 387 296 373 296 l 494 31 q 493 14 498 21 q 483 4 489 7 q 472 0 476 1 q 629 0 551 0 q 603 14 618 2 q 579 43 588 25 z "},"B":{"ha":543,"x_min":0,"x_max":501,"o":"m 135 29 l 135 29 q 135 31 135 31 l 135 121 l 135 385 l 239 385 q 317 369 282 385 q 371 315 351 352 q 391 216 391 277 q 391 199 391 208 q 382 104 394 147 q 241 10 347 9 l 165 10 q 135 29 142 11 m 135 621 l 135 621 l 218 668 l 218 668 q 281 680 250 684 q 346 618 328 662 q 358 525 363 574 q 331 439 353 475 q 299 408 318 420 q 254 397 280 397 l 135 397 l 135 621 m 281 712 l 281 712 l 135 631 l 135 669 q 123 698 135 684 q 94 711 111 711 q 85 710 89 711 q 77 705 81 708 q 75 705 76 705 l 0 664 l 18 664 q 28 667 23 667 q 39 664 34 667 q 48 649 47 659 q 50 631 50 639 q 50 629 50 629 l 50 31 q 38 8 47 16 q 19 -1 28 1 l 134 -1 l 165 -1 l 191 -1 l 191 -1 l 293 -1 q 441 52 382 -1 q 501 208 499 104 q 446 345 499 300 q 306 391 392 390 q 420 456 387 404 q 447 570 454 508 q 395 674 439 632 q 281 712 357 709 z "},"C":{"ha":642,"x_min":-5,"x_max":583,"o":"m 26 513 l 26 513 q 153 653 67 604 q 334 705 238 703 q 505 657 431 708 l 505 500 q 439 622 484 572 q 328 686 394 673 q 210 666 265 696 q 140 598 168 643 q 106 490 112 553 q 130 291 101 407 q 201 106 159 175 q 283 30 237 53 q 377 10 329 7 q 481 38 431 14 q 566 112 532 62 q 574 116 570 117 q 582 111 579 115 q 581 102 583 106 q 548 69 566 84 q 503 38 525 50 q 452 18 481 27 q 292 1 376 -6 q 134 55 208 9 q 41 179 76 96 q 1 355 6 263 q 26 513 -5 448 z "},"D":{"ha":587,"x_min":0,"x_max":514,"o":"m 196 706 l 196 706 q 0 706 98 706 q 20 695 10 703 q 33 669 31 686 q 33 37 33 353 q 20 10 31 19 q 0 -1 10 1 l 125 -1 l 208 -1 q 438 102 362 3 q 512 349 514 201 q 480 536 513 452 q 366 668 447 621 q 248 704 311 697 q 196 706 222 706 m 125 37 l 125 37 q 125 426 125 231 q 125 669 125 547 l 107 696 l 212 696 q 253 690 233 696 q 335 638 298 676 q 391 540 372 601 q 409 340 413 460 q 378 142 405 220 q 314 49 354 83 q 226 9 273 16 l 164 9 q 161 9 163 9 q 145 10 154 9 q 131 17 137 12 q 125 37 125 23 z "},"E":{"ha":542,"x_min":0,"x_max":498,"o":"m 125 36 l 125 36 l 125 340 l 370 340 q 400 327 390 340 q 414 300 411 315 l 414 349 l 414 397 q 403 371 412 385 q 370 357 394 357 l 125 357 l 125 663 l 107 689 l 302 690 q 343 682 323 688 q 412 645 380 671 l 498 645 q 472 661 486 654 q 355 696 417 690 q 302 699 329 699 q 148 699 247 699 q 0 699 49 699 q 20 688 10 696 q 33 662 31 680 q 33 36 33 349 q 20 10 31 18 q 0 -1 10 1 l 125 -1 l 315 -1 q 494 52 424 1 l 409 52 q 317 9 367 16 l 164 9 q 161 9 163 9 q 145 10 154 9 q 131 17 137 12 q 125 36 125 22 z "},"F":{"ha":423,"x_min":0,"x_max":498,"o":"m 125 -1 l 125 -1 l 157 -1 q 137 10 147 1 q 125 37 126 18 l 125 138 l 125 364 l 352 364 q 382 353 372 364 q 395 328 393 342 l 395 373 l 395 418 q 385 394 393 406 q 352 382 376 382 l 125 382 l 125 673 l 110 696 l 302 696 q 343 690 323 695 q 412 652 380 678 l 498 652 q 472 668 486 661 q 355 704 417 697 q 302 706 329 706 q 148 706 247 706 q 0 706 49 706 q 20 695 10 703 q 33 669 31 686 q 33 138 33 403 l 33 135 l 33 37 q 20 10 31 18 q 0 -1 10 1 l 33 -1 l 125 -1 z "},"G":{"ha":686,"x_min":-8,"x_max":633,"o":"m 208 679 l 208 679 q 378 695 297 707 q 523 625 459 682 q 457 560 496 600 q 443 585 450 574 q 350 669 401 648 q 288 679 322 679 q 225 669 253 679 q 118 492 132 627 q 142 294 113 409 q 214 111 171 179 q 298 33 250 56 q 395 14 345 10 q 396 15 395 14 q 396 15 396 15 q 395 14 396 14 q 394 14 395 14 q 394 14 394 14 q 393 14 393 14 q 393 14 393 14 q 395 14 393 14 q 488 82 456 28 q 525 201 519 135 q 528 258 527 223 q 523 323 528 293 q 357 323 436 323 l 352 334 l 610 333 l 627 333 q 629 254 633 294 q 617 185 625 214 q 542 75 592 116 q 434 14 494 34 q 321 0 374 -5 q 208 25 268 5 q 65 144 117 58 q 2 333 13 231 q 25 515 -8 435 q 100 618 52 578 q 208 679 149 659 z "},"H":{"ha":611,"x_min":0,"x_max":549,"o":"m 146 37 l 146 37 l 146 345 l 424 345 l 424 37 q 412 10 422 18 q 391 -1 401 1 l 516 -1 l 549 -1 q 528 10 538 1 q 516 37 518 18 q 516 578 516 307 q 516 656 516 617 q 503 689 516 674 q 472 706 490 705 q 456 701 463 705 l 370 650 l 390 650 q 401 653 395 653 q 413 650 408 654 q 423 632 421 644 q 424 611 425 621 q 424 608 424 610 q 424 505 424 549 q 424 413 424 460 q 424 360 424 389 l 146 360 q 146 442 146 405 q 146 656 146 529 q 133 689 146 674 q 102 706 120 705 q 86 701 94 705 l 0 650 l 20 650 q 32 653 25 653 q 43 650 38 654 q 53 632 52 644 q 54 611 55 621 q 54 608 54 610 q 54 79 54 344 q 54 37 54 58 q 42 10 52 18 q 22 -1 32 1 l 146 -1 l 179 -1 q 158 10 169 1 q 146 37 148 18 z "},"I":{"ha":260,"x_min":0,"x_max":174,"o":"m 141 37 l 141 37 q 141 473 141 254 q 141 656 141 564 q 128 689 141 674 q 97 706 115 705 q 81 701 88 706 l 0 650 l 20 650 q 32 654 25 653 q 43 650 38 654 q 53 632 52 644 q 54 611 55 621 q 54 608 54 610 q 54 92 54 351 q 54 37 54 64 q 42 10 52 19 q 22 -1 32 1 l 141 -1 l 174 -1 q 153 10 163 1 q 141 37 142 19 z "},"J":{"ha":258,"x_min":-284,"x_max":169,"o":"m 77 608 l 77 608 q 77 325 77 467 q 77 41 77 183 q 62 -49 79 -11 q 2 -101 45 -87 q -73 -113 -37 -113 q -138 -110 -109 -113 q -144 -109 -141 -109 q -216 -133 -188 -108 q -259 -187 -245 -159 q -276 -224 -274 -216 l -284 -109 q -224 -55 -259 -66 q -138 -83 -190 -43 q 14 -146 -58 -151 q 122 -92 77 -140 q 169 41 167 -43 q 169 545 169 293 q 169 656 169 600 q 156 689 169 674 q 125 706 143 705 q 109 701 117 705 l 23 650 l 43 650 q 54 653 47 653 q 66 650 60 654 q 76 632 74 644 q 77 611 77 621 q 77 608 77 610 z "},"K":{"ha":647,"x_min":-2,"x_max":600,"o":"m 489 566 l 489 566 l 572 637 q 517 688 549 677 q 437 690 484 699 q 403 681 418 686 l 149 359 l 144 353 l 144 661 q 131 694 144 678 q 100 711 118 709 q 84 705 92 710 l -2 654 l 18 654 q 30 658 23 657 q 41 655 36 659 q 51 637 50 648 q 52 615 53 625 q 52 613 52 614 q 52 85 52 351 q 52 37 52 62 q 40 11 50 20 q 20 0 30 3 l 144 0 l 177 0 q 156 11 167 3 q 144 37 146 20 l 144 326 l 427 37 q 431 24 431 32 q 426 13 431 18 q 401 -1 414 2 l 510 -1 l 581 -1 l 600 -1 q 578 9 591 1 q 536 45 564 18 q 315 271 424 159 q 265 323 290 297 l 193 397 l 385 639 q 420 647 401 652 q 457 626 440 642 q 489 566 479 605 z "},"L":{"ha":522,"x_min":0,"x_max":476,"o":"m 146 37 l 146 37 q 146 214 146 125 q 146 656 146 435 q 133 689 146 674 q 102 706 120 705 q 86 701 94 705 l 0 650 l 20 650 q 32 653 25 653 q 43 650 38 654 q 53 632 52 644 q 54 611 55 621 q 54 608 54 610 q 54 155 54 382 q 54 37 54 96 q 42 10 52 19 q 22 -1 32 1 l 146 -1 l 298 -1 q 476 53 406 1 l 391 53 q 299 9 349 16 l 186 9 q 183 9 184 9 q 167 10 176 9 q 153 17 159 12 q 146 37 146 23 z "},"M":{"ha":722,"x_min":0,"x_max":677,"o":"m 49 706 l 49 706 l 49 551 l 49 45 q 32 14 49 26 q 0 -1 14 2 l 58 -1 l 115 -1 q 96 6 107 1 q 76 20 85 11 q 66 45 66 30 l 66 519 l 224 231 l 264 160 l 274 142 l 297 100 l 342 178 l 318 220 l 530 597 q 530 509 530 553 q 530 37 530 273 q 518 10 528 18 q 498 -1 508 1 l 530 -1 l 655 -1 q 634 10 645 1 q 623 37 624 18 q 623 104 623 71 q 623 608 623 357 q 623 611 623 610 q 624 632 622 621 q 633 650 625 644 q 645 653 639 654 q 656 650 652 653 l 677 650 l 570 705 l 308 239 l 132 555 l 49 706 z "},"N":{"ha":618,"x_min":0,"x_max":576,"o":"m 92 703 l 92 703 l 92 703 l 90 706 l 90 703 l 0 703 l 90 577 l 90 45 q 73 14 90 26 q 41 -1 56 2 l 99 -1 l 157 -1 q 138 6 149 1 q 117 20 126 11 q 108 45 108 30 l 108 553 l 478 33 l 503 -1 l 528 -1 l 528 76 l 528 97 l 528 659 q 537 685 528 675 q 557 699 546 694 q 576 705 568 704 l 519 705 l 461 705 q 493 691 475 703 q 510 659 510 680 l 510 121 l 163 606 l 92 703 z "},"O":{"ha":673,"x_min":-11,"x_max":613,"o":"m 326 662 l 326 662 q 265 673 299 673 q 203 663 231 673 q 99 489 113 621 q 127 291 95 408 q 201 107 159 175 q 283 32 237 54 q 378 13 330 9 q 480 76 446 22 q 519 198 515 130 q 513 280 522 233 q 494 377 505 328 l 482 422 q 418 580 455 521 q 326 662 376 643 m 187 672 l 187 672 q 407 672 309 712 q 564 500 505 631 q 609 311 604 408 q 571 134 613 214 q 431 15 530 54 q 313 0 372 -4 q 195 23 255 3 q 72 145 122 58 q 5 332 21 231 q 21 511 -11 433 q 95 618 52 581 q 187 672 138 656 z "},"P":{"ha":503,"x_min":0,"x_max":438,"o":"m 125 284 l 125 284 q 207 313 168 300 q 351 369 298 342 q 417 438 395 395 q 435 529 438 481 q 377 655 429 614 q 248 704 326 696 q 196 706 222 706 q 0 706 98 706 q 20 695 10 703 q 33 669 31 686 q 33 37 33 353 q 20 10 31 18 q 0 -1 10 1 q 77 -1 31 -1 q 157 -1 122 -1 q 132 15 140 4 q 125 36 125 25 q 124 50 124 43 q 125 57 125 54 q 125 109 125 83 q 125 284 125 196 l 125 284 m 253 690 l 253 690 q 338 612 311 665 q 360 500 364 559 q 324 401 357 441 q 272 356 312 382 q 125 293 232 330 q 125 433 125 353 q 125 663 125 568 q 123 674 125 667 q 117 688 121 682 q 104 696 113 694 q 116 696 109 696 q 165 696 138 696 q 212 696 193 696 q 253 690 233 696 z "},"Q":{"ha":661,"x_min":-9,"x_max":728,"o":"m 257 -58 l 257 -58 q 328 -35 290 -46 q 450 12 397 -13 q 565 126 528 52 q 600 290 601 200 q 568 468 600 379 q 422 650 517 603 q 203 665 328 697 q 107 618 153 653 q 26 516 62 583 q 3 334 -9 439 q 58 141 16 229 q 153 27 100 52 q 271 9 201 4 q 435 83 341 14 q 267 47 333 28 q 169 122 201 66 q 105 302 121 203 q 103 488 90 400 q 219 654 125 620 q 281 661 248 663 q 341 646 315 659 q 427 557 390 623 q 481 395 460 496 l 489 350 q 503 252 497 300 q 504 170 508 204 q 464 63 492 100 q 394 6 435 25 q 302 -27 352 -14 q 180 -73 243 -43 l 227 -76 q 240 -69 232 -71 q 256 -68 249 -67 q 371 -128 302 -80 q 490 -198 427 -167 q 615 -225 553 -229 q 728 -154 677 -221 l 667 -72 q 611 -138 646 -113 q 518 -160 576 -163 q 450 -142 482 -157 q 387 -109 418 -127 q 324 -76 356 -90 q 257 -58 292 -61 z "},"R":{"ha":550,"x_min":0,"x_max":526,"o":"m 136 293 l 136 293 q 222 313 180 300 q 380 370 322 342 q 453 438 429 395 q 474 530 477 481 q 410 655 467 614 q 267 704 353 696 q 210 706 239 707 q 0 706 101 706 q 22 695 11 703 q 36 669 34 686 q 36 37 36 353 q 22 10 34 19 q 0 -1 11 1 q 81 -1 35 -1 q 167 -1 127 -1 q 140 15 148 5 q 131 36 132 26 q 131 50 130 43 q 131 57 131 54 q 131 109 131 83 l 131 275 q 212 180 174 235 q 286 86 247 133 q 377 13 326 40 q 502 25 428 -15 l 526 137 q 397 82 454 81 q 299 119 341 83 q 222 201 258 155 q 136 293 181 256 m 273 690 l 273 690 q 366 612 337 665 q 391 500 395 559 q 351 401 387 441 q 294 356 338 382 q 131 307 250 330 q 131 438 131 355 q 131 663 131 570 q 129 674 131 667 q 122 688 127 682 q 107 696 117 694 q 168 696 133 696 q 228 696 202 696 q 273 690 250 696 z "},"S":{"ha":540,"x_min":-7,"x_max":492,"o":"m 26 632 l 26 632 q 2 528 -7 579 q 46 433 12 477 q 125 359 81 389 q 220 298 174 325 q 357 211 269 269 q 433 134 415 174 q 414 48 452 94 q 308 20 378 10 q 173 78 238 31 q 90 201 109 126 l 3 106 q 126 30 47 60 q 290 -1 206 0 q 429 39 374 -1 q 475 98 458 62 q 489 172 492 134 q 441 270 482 224 q 340 354 399 315 q 222 427 281 393 q 96 509 142 472 q 50 581 57 544 q 79 660 43 632 q 164 684 115 687 q 298 628 233 677 q 382 502 363 580 l 455 591 q 238 701 347 681 q 58 666 130 720 q 26 632 39 650 z "},"T":{"ha":454,"x_min":0,"x_max":627,"o":"m 359 0 l 359 0 l 392 0 q 372 11 382 2 q 359 36 361 19 q 359 666 359 354 l 504 666 q 562 648 531 666 q 616 608 592 629 q 627 599 622 603 l 627 688 l 467 688 q 268 688 367 688 q 161 688 214 688 l 0 688 l 0 599 q 11 608 5 603 q 66 648 35 629 q 123 666 96 666 l 268 666 l 268 666 q 268 354 268 513 q 268 36 268 195 q 255 11 266 19 q 235 0 245 2 l 268 0 l 359 0 z "},"U":{"ha":611,"x_min":0,"x_max":567,"o":"m 501 209 l 501 209 q 501 201 501 205 q 497 150 502 174 q 471 96 492 125 q 323 22 412 22 q 235 44 276 22 q 168 107 193 67 q 148 177 151 136 q 146 260 145 218 q 146 284 146 273 q 146 469 146 349 q 146 654 146 576 q 125 693 146 679 q 82 692 103 705 l 0 644 l 20 644 q 32 648 25 647 q 43 645 38 648 q 53 627 52 638 q 54 605 55 615 q 54 603 54 604 q 54 545 54 566 q 54 516 54 528 q 54 433 54 494 q 54 349 54 392 q 54 275 54 306 q 54 252 54 263 q 59 161 53 202 q 94 85 65 120 q 180 18 130 43 q 286 -7 230 -7 q 395 16 344 -7 q 483 83 447 38 q 515 142 509 116 q 518 201 520 168 q 518 208 518 205 l 518 653 q 527 678 518 669 q 548 692 536 688 q 567 699 559 697 l 509 699 l 452 699 q 484 684 467 696 q 501 653 501 673 l 501 209 z "},"V":{"ha":587,"x_min":0,"x_max":635,"o":"m 311 -7 l 311 -7 l 342 -7 l 538 450 l 610 612 q 603 719 635 677 q 517 784 570 760 l 505 681 q 576 619 563 656 q 571 561 583 589 q 512 426 554 522 q 427 232 469 329 q 368 98 385 136 l 317 231 l 153 670 q 132 693 147 685 q 103 695 117 701 q 96 690 98 693 q 90 684 93 688 q 90 683 90 684 l 0 572 l 11 573 l 36 604 q 44 611 39 608 q 54 612 49 613 q 67 601 62 610 q 75 584 72 592 q 75 583 75 583 l 311 -7 z "},"W":{"ha":888,"x_min":0,"x_max":949,"o":"m 631 -1 l 631 -1 l 641 -1 l 840 451 l 905 602 q 854 762 949 695 l 799 692 q 863 633 842 669 q 862 545 884 598 q 810 428 845 507 q 740 268 775 348 q 689 151 705 189 l 506 640 l 482 704 l 368 704 l 386 654 l 483 396 q 400 207 446 310 q 359 113 378 156 l 148 677 q 127 699 142 691 q 98 702 113 707 q 91 697 94 700 q 85 690 88 694 q 84 689 85 690 l 0 584 l 11 584 l 38 618 q 45 624 41 622 q 56 625 50 627 q 69 614 64 623 q 77 597 74 606 q 77 596 77 597 l 303 -1 l 326 -1 l 445 271 l 490 376 l 631 -1 z "},"X":{"ha":718,"x_min":0,"x_max":702,"o":"m 125 565 l 125 565 q 215 440 170 503 q 264 372 236 411 q 314 302 293 332 q 159 107 237 205 q 100 32 130 69 q 82 14 94 23 q 54 0 70 4 l 162 0 q 159 1 161 0 q 145 7 153 3 q 133 19 138 11 q 132 41 128 27 q 153 77 136 56 l 322 291 q 400 181 354 247 q 481 63 446 115 q 497 41 490 51 q 503 27 502 35 q 496 14 503 19 q 470 -1 484 3 l 702 0 q 660 23 682 5 q 624 58 637 40 l 394 382 l 553 583 q 587 715 595 642 q 549 818 582 781 l 500 737 q 547 680 541 698 q 553 642 553 664 q 548 605 554 621 q 531 577 543 591 q 470 500 515 557 q 386 394 425 444 l 182 680 q 143 705 168 699 q 99 697 119 711 q 90 687 93 692 q 84 675 87 682 q 83 673 84 674 l 0 483 l 22 496 l 59 582 q 68 594 62 589 q 83 600 75 600 q 107 589 96 600 q 124 568 117 578 q 125 565 125 566 z "},"Y":{"ha":625,"x_min":0,"x_max":583,"o":"m 397 -1 l 397 -1 l 429 -1 q 409 11 419 2 q 397 40 398 20 l 397 373 l 555 616 q 556 705 583 661 q 518 749 541 732 l 467 703 q 537 670 515 690 q 539 617 560 649 l 393 397 l 218 692 q 185 715 208 707 q 140 718 163 723 q 128 712 132 715 q 119 706 123 709 q 118 705 119 705 l 0 610 l 18 611 l 77 659 q 89 665 81 663 q 105 667 96 667 q 125 655 118 664 q 137 638 133 646 q 138 637 138 637 l 304 368 l 304 40 q 292 11 302 20 q 272 -1 282 2 l 304 -1 l 397 -1 z "},"Z":{"ha":623,"x_min":0,"x_max":568,"o":"m 487 686 l 487 686 q 0 0 241 345 q 260 -1 130 0 q 373 -1 317 -1 l 514 -1 l 568 118 q 502 51 534 81 q 452 18 469 20 q 345 18 413 18 q 220 18 277 18 q 163 19 182 19 q 151 23 155 19 q 153 36 147 27 q 315 269 231 153 l 315 269 q 346 312 330 290 q 347 313 346 313 q 353 322 349 317 l 563 616 l 506 705 l 180 705 q 92 668 122 702 q 57 606 61 638 l 134 606 q 134 635 135 622 q 136 662 134 654 q 160 682 145 677 q 196 685 174 686 q 265 685 213 685 q 379 685 317 685 q 487 686 441 686 z "},"[":{"ha":239,"x_min":0,"x_max":196,"o":"m 0 552 l 0 552 l 0 536 l 0 15 l 0 0 l 73 0 l 196 0 l 186 15 l 73 15 l 73 536 l 186 536 l 196 552 l 73 552 l 0 552 z "},"\\":{"ha":254,"x_min":0,"x_max":176,"o":"m 131 2 l 131 2 l 176 2 l 45 483 l 0 483 l 131 2 z "},"]":{"ha":296,"x_min":0,"x_max":196,"o":"m 196 552 l 196 552 l 196 536 l 196 15 l 196 0 l 123 0 l 0 0 l 9 15 l 123 15 l 123 536 l 9 536 l 0 552 l 123 552 l 196 552 z "},"^":{"ha":429,"x_min":0,"x_max":368,"o":"m 184 444 l 184 444 l 321 165 l 368 165 l 211 486 l 161 486 l 0 165 l 50 165 l 184 444 z "},"_":{"ha":446,"x_min":34,"x_max":353,"o":"m 34 57 l 34 57 l 34 -3 l 353 -3 l 353 57 l 34 57 z "},"`":{"ha":218,"x_min":-3,"x_max":161,"o":"m 26 395 l 26 395 q 42 390 29 395 q 87 372 60 382 q 136 355 115 362 q 161 351 158 349 q 149 367 161 353 q 119 398 136 380 q 86 429 101 415 q 67 448 71 444 q 33 466 51 466 q 7 452 17 466 q 1 421 -3 437 q 26 395 4 404 z "},"a":{"ha":404,"x_min":1,"x_max":378,"o":"m 252 131 l 252 131 q 216 77 237 100 q 153 37 189 45 q 90 58 118 30 q 66 123 66 85 q 96 205 67 171 q 167 251 124 239 q 193 258 175 252 q 229 273 211 264 q 252 296 246 283 q 252 225 252 262 q 252 131 252 176 m 249 381 l 249 381 q 251 305 272 346 q 218 276 239 286 q 163 262 193 267 q 145 258 154 260 q 44 211 85 247 q 1 108 3 174 q 24 32 1 63 q 93 1 48 1 q 173 29 133 1 q 224 75 203 50 q 252 116 245 101 q 252 79 252 98 q 277 24 254 41 q 327 3 299 7 q 375 1 355 0 q 378 1 376 1 q 340 21 351 7 q 326 55 328 35 q 323 96 323 75 l 323 285 q 302 369 323 338 q 247 411 281 399 q 175 420 214 422 q 86 404 125 417 q 9 360 47 391 l 9 274 q 15 281 12 277 q 73 355 32 311 q 176 414 114 400 q 249 381 227 420 z "},"b":{"ha":463,"x_min":-68,"x_max":404,"o":"m 60 630 l 60 630 q 60 346 60 488 q 60 245 60 296 q 60 43 60 144 q 55 17 60 22 q 27 13 49 12 q 18 13 23 13 l 87 -24 q 119 -22 104 -31 q 138 3 133 -14 q 148 5 143 4 q 154 7 151 6 q 332 91 269 36 q 404 219 394 146 l 404 281 q 301 399 404 399 q 293 399 298 399 q 285 398 288 399 l 255 380 l 140 316 l 140 671 q 129 699 140 686 q 102 713 117 713 q 93 711 97 713 q 85 707 90 709 q 84 706 85 707 l -68 617 l -51 617 l 31 665 q 40 668 35 668 q 50 666 45 669 q 59 650 57 661 q 60 632 60 640 q 60 630 60 631 m 323 287 l 323 287 l 323 219 q 273 93 319 148 q 140 14 227 38 l 140 44 l 140 306 l 261 374 q 307 351 287 376 q 323 287 323 328 z "},"c":{"ha":408,"x_min":0,"x_max":387,"o":"m 130 401 l 130 401 q 243 414 186 418 q 334 387 299 410 l 334 295 q 271 381 316 348 q 172 406 226 414 l 171 406 q 168 406 170 406 q 166 405 167 405 q 163 404 165 405 q 163 404 163 404 q 163 404 163 404 q 104 366 128 395 q 75 290 79 336 q 90 173 72 241 q 134 64 107 104 q 243 6 181 1 q 315 26 277 9 q 376 74 353 44 q 381 76 378 76 q 385 73 384 76 q 385 68 387 71 q 364 48 376 57 q 298 13 335 24 q 130 13 214 -11 q 64 48 94 24 q 17 110 34 73 q 0 207 0 153 q 17 304 0 261 q 64 366 34 342 q 130 401 94 390 z "},"d":{"ha":419,"x_min":0,"x_max":385,"o":"m 264 629 l 264 629 q 264 413 264 521 q 0 210 19 359 l 0 119 q 102 1 0 1 q 111 1 106 1 q 119 2 116 1 l 149 20 l 264 84 l 264 41 q 281 9 265 22 q 316 5 296 -4 l 385 41 q 376 41 380 41 q 354 43 361 41 q 345 53 347 45 q 344 81 344 62 q 344 83 344 82 l 344 669 q 333 698 344 685 q 306 712 321 711 q 297 710 300 711 q 290 706 293 709 q 288 705 289 705 l 136 616 l 153 616 l 235 665 q 244 667 239 667 q 254 665 250 668 q 262 649 261 659 q 264 631 264 640 q 264 629 264 630 m 80 113 l 80 113 l 80 210 q 264 396 90 350 l 264 94 l 142 26 q 96 50 117 24 q 80 113 80 72 z "},"e":{"ha":441,"x_min":0,"x_max":406,"o":"m 98 145 l 98 145 l 317 309 q 294 351 306 334 q 237 399 269 386 q 172 406 204 412 l 171 406 q 168 406 170 406 q 166 405 167 405 q 163 404 165 405 q 163 404 163 404 q 163 404 163 404 q 104 366 128 395 q 75 290 79 336 q 98 145 72 229 m 130 401 l 130 401 q 193 412 159 410 q 365 344 300 421 l 365 344 l 365 344 q 365 344 365 344 q 366 342 366 343 l 366 342 l 370 337 l 100 136 q 134 64 115 92 q 196 13 161 26 q 265 10 231 1 l 267 10 q 269 11 268 11 q 271 12 270 12 q 273 13 272 12 l 274 13 q 316 40 294 20 q 347 85 338 60 l 406 85 q 298 13 365 37 q 130 13 214 -11 q 64 48 94 24 q 17 110 34 73 q 0 207 0 153 q 17 304 0 261 q 64 366 34 342 q 130 401 94 390 z "},"f":{"ha":241,"x_min":-1,"x_max":384,"o":"m 130 33 l 130 33 q 130 420 130 227 l 276 420 l 276 431 l 130 431 l 130 496 l 130 496 l 130 614 l 250 686 q 296 663 277 688 q 302 653 300 659 l 384 653 q 290 711 362 711 q 274 710 282 711 l 274 710 l 274 710 q 193 663 234 686 q 165 646 180 654 l 130 625 l 51 578 l 51 507 l 51 507 l 51 496 l 51 431 l -1 431 l -1 420 l 51 420 l 51 33 q 41 10 50 18 q 23 1 32 3 l 130 1 l 157 1 q 140 10 149 3 q 130 33 131 18 z "},"g":{"ha":425,"x_min":-341,"x_max":462,"o":"m 111 140 l 111 140 q 81 227 93 177 q 72 311 70 276 q 96 373 76 349 q 144 404 116 397 q 144 404 144 404 q 145 404 145 404 q 147 405 146 405 q 149 406 148 406 q 151 406 150 406 l 151 406 q 250 365 206 417 l 111 140 m 50 23 l 50 23 l 71 58 l 93 93 q 118 83 104 87 q 256 83 186 64 q 310 112 286 92 q 349 163 334 132 q 362 242 362 198 q 349 322 362 287 q 310 373 334 353 q 285 389 298 382 l 260 349 q 286 282 275 321 l 292 260 q 301 174 304 210 q 236 83 291 102 l 235 83 q 233 82 234 83 q 232 81 233 82 q 230 81 231 81 l 229 81 q 172 83 201 73 q 121 125 142 94 q 116 132 119 128 l 208 281 l 296 423 l 296 423 q 359 459 317 460 q 376 453 369 459 q 396 433 383 448 q 408 420 401 427 l 462 460 q 394 481 437 481 q 283 419 317 481 l 269 397 q 256 402 262 400 q 118 402 186 421 q 63 373 87 393 q 25 322 39 353 q 11 242 11 287 q 25 163 11 198 q 63 112 39 132 q 85 97 73 104 l 33 12 l 42 12 q 139 4 87 10 q 240 -18 192 -1 q 318 -66 288 -34 q 349 -153 349 -98 q 318 -239 349 -206 q 243 -286 288 -271 q 155 -301 199 -301 q -7 -259 68 -297 q -131 -186 -82 -221 q -227 -156 -181 -155 q -304 -173 -273 -158 q -341 -193 -335 -187 l -294 -89 q -199 -83 -245 -69 q -112 -167 -153 -97 q 9 -312 -59 -264 q 186 -353 78 -359 q 294 -314 258 -347 q 343 -236 330 -280 q 355 -153 355 -191 q 302 -23 357 -85 q 145 58 247 39 l 50 23 z "},"h":{"ha":465,"x_min":-92,"x_max":408,"o":"m 299 301 l 299 301 q 299 33 299 167 q 288 10 297 18 q 271 1 279 3 l 379 1 l 408 1 q 390 10 399 3 q 379 33 380 18 q 379 163 379 98 q 379 295 379 229 q 277 413 379 413 q 260 412 269 413 l 260 412 l 260 412 l 231 395 l 231 395 l 115 326 l 115 532 l 115 669 q 104 698 115 685 q 77 712 93 711 q 69 710 73 711 q 61 706 65 708 q 60 705 60 705 l -92 616 l -75 616 l 6 664 q 16 667 10 667 q 26 665 21 668 q 34 649 33 659 q 35 631 36 640 q 35 629 35 630 l 35 532 l 35 33 q 25 10 34 18 q 7 1 16 3 l 115 1 l 144 1 q 126 10 135 3 q 115 33 117 18 q 115 316 115 174 l 237 388 q 283 365 262 390 q 299 301 299 342 z "},"i":{"ha":209,"x_min":-26,"x_max":157,"o":"m 92 550 l 92 550 l 70 523 l 43 498 l 68 475 l 92 447 l 113 474 l 140 498 l 115 522 l 92 550 m 130 64 l 130 64 q 130 166 130 135 q 130 218 130 198 q 130 270 130 239 q 130 373 130 302 q 118 400 130 388 q 92 414 106 413 q 81 412 85 414 l 81 412 q 73 407 78 410 l 69 404 l -26 348 l -9 348 l 22 366 q 45 368 37 374 q 51 357 49 364 q 54 332 54 350 l 54 33 q 43 10 52 18 q 26 1 35 3 l 130 1 l 157 1 q 140 10 149 3 q 130 33 131 18 l 130 64 z "},"j":{"ha":216,"x_min":-235,"x_max":142,"o":"m 94 550 l 94 550 l 72 523 l 45 498 l 71 475 l 94 447 l 115 474 l 142 498 l 117 522 l 94 550 m 11 -154 l 11 -154 q 101 -109 64 -149 q 140 1 138 -68 l 140 48 l 140 64 l 140 87 l 140 87 l 140 170 l 140 174 l 140 175 q 140 217 140 199 q 140 269 140 237 q 140 373 140 300 q 128 400 140 388 q 102 414 116 413 q 92 412 96 414 l 92 412 q 83 407 87 410 l 79 404 l -16 348 l 1 348 l 32 366 q 55 368 47 374 q 61 357 59 364 q 63 332 63 350 l 63 182 l 63 33 l 63 1 q 51 -74 64 -42 q 1 -117 37 -105 q -61 -126 -31 -126 q -115 -124 -91 -126 q -119 -123 -117 -123 q -179 -143 -155 -122 q -215 -188 -203 -164 q -229 -218 -227 -212 l -235 -123 q -186 -78 -215 -87 q -115 -101 -157 -68 q 11 -154 -48 -158 z "},"k":{"ha":475,"x_min":-90,"x_max":452,"o":"m 353 317 l 353 317 l 412 378 q 331 413 387 413 q 305 412 318 413 l 118 247 l 118 531 l 118 669 q 107 697 118 684 q 80 711 96 711 q 72 709 75 711 q 64 705 68 708 q 62 705 63 705 l -90 616 l -73 616 l 9 664 q 18 667 13 666 q 28 664 24 667 q 37 649 35 659 q 38 630 39 639 q 38 628 38 629 l 38 532 l 38 531 l 38 33 q 27 10 37 18 q 9 1 18 3 l 118 1 l 146 1 q 129 10 138 3 q 118 33 120 18 q 118 140 118 104 q 118 237 118 176 l 121 239 l 326 28 q 329 20 329 24 q 325 11 329 14 q 307 1 316 3 l 387 1 l 437 1 l 452 1 q 435 8 445 2 q 405 34 425 15 q 248 195 323 117 q 166 279 209 235 l 287 384 q 313 385 300 391 q 337 365 327 378 q 353 317 350 347 z "},"l":{"ha":205,"x_min":-93,"x_max":140,"o":"m 113 64 l 113 64 q 113 384 113 224 q 113 496 113 440 l 113 496 l 113 669 q 102 697 113 684 q 76 711 91 711 q 62 707 68 711 l 58 705 l -93 616 l -76 616 l 5 664 q 15 667 9 666 q 25 664 20 667 q 34 649 32 659 q 35 630 35 639 q 35 628 35 629 l 35 507 l 35 496 l 35 33 q 24 10 33 18 q 7 1 16 3 l 113 1 l 140 1 q 123 10 132 3 q 113 33 115 18 l 113 64 z "},"m":{"ha":726,"x_min":0,"x_max":677,"o":"m 121 33 l 121 33 q 121 316 121 174 l 243 388 q 289 365 269 390 q 305 301 305 342 q 305 33 305 167 q 295 10 304 18 q 277 1 286 3 l 385 1 l 414 1 q 396 10 405 3 q 385 33 387 18 q 385 316 385 174 l 507 388 q 553 365 532 390 q 569 301 569 342 q 569 167 569 234 q 569 33 569 100 q 558 10 567 18 q 541 1 549 3 l 649 1 l 677 1 q 660 10 669 3 q 649 33 650 18 q 649 295 649 163 q 547 413 649 413 q 530 412 538 413 l 530 412 l 530 412 l 500 395 l 500 395 l 383 325 l 383 325 q 283 413 371 413 q 267 412 275 413 l 267 412 l 267 412 l 237 395 l 237 395 l 121 326 l 121 371 q 104 403 120 390 q 69 408 89 416 l 0 371 q 9 371 5 371 q 32 370 25 372 q 40 359 39 368 q 41 331 42 351 q 41 329 41 330 q 41 33 41 180 q 31 10 40 18 q 13 1 22 3 l 121 1 l 150 1 q 132 10 141 3 q 121 33 123 18 z "},"n":{"ha":466,"x_min":0,"x_max":414,"o":"m 305 301 l 305 301 q 305 33 305 167 q 295 10 304 18 q 277 1 286 3 l 385 1 l 414 1 q 396 10 405 3 q 385 33 387 18 q 385 163 385 98 q 385 295 385 229 q 283 413 385 413 q 267 412 275 413 l 267 412 l 267 412 l 237 395 l 237 395 l 121 326 l 121 371 q 104 403 120 390 q 69 408 89 416 l 0 371 q 9 371 5 371 q 32 370 25 372 q 40 359 39 368 q 41 331 42 351 q 41 329 41 330 q 41 33 41 180 q 31 10 40 18 q 13 1 22 3 l 121 1 l 150 1 q 132 10 141 3 q 121 33 123 18 q 121 316 121 174 l 243 388 q 289 365 269 390 q 305 301 305 342 z "},"o":{"ha":438,"x_min":0,"x_max":390,"o":"m 148 404 l 148 404 q 95 365 117 394 q 68 290 73 336 q 81 173 65 241 q 122 63 98 104 q 178 13 146 26 q 242 10 210 1 l 243 10 q 245 11 244 11 q 247 12 246 12 q 250 12 248 12 l 250 13 q 298 52 279 24 q 322 123 318 81 q 312 227 325 167 l 305 255 q 269 351 290 315 q 216 399 245 386 q 156 406 186 412 l 155 406 q 153 405 155 406 q 151 405 152 405 q 149 404 151 404 q 149 404 149 404 q 148 404 149 404 m 119 401 l 119 401 q 271 401 195 425 q 332 366 305 389 q 374 304 359 342 q 390 207 390 260 q 374 110 390 153 q 332 48 359 73 q 271 12 305 24 q 119 12 195 -11 q 58 48 85 24 q 16 110 31 73 q 0 207 0 153 q 16 304 0 260 q 58 366 31 342 q 119 401 85 389 z "},"p":{"ha":444,"x_min":0,"x_max":385,"o":"m 121 1 l 121 1 q 385 204 366 56 l 385 295 q 283 413 385 413 q 267 412 275 413 l 267 412 l 267 412 l 237 395 l 237 395 l 121 326 l 121 372 q 104 405 120 392 q 69 409 89 418 l 0 373 q 9 373 5 373 q 32 371 25 373 q 40 361 39 370 q 41 333 42 353 q 41 330 41 332 q 41 150 41 281 q 41 -112 41 19 q 41 -305 41 -243 q 31 -328 40 -321 q 13 -337 22 -335 l 121 -337 l 150 -337 q 132 -328 141 -335 q 121 -305 123 -321 l 121 1 m 305 301 l 305 301 l 305 204 q 121 18 296 64 l 121 316 l 243 388 q 289 365 269 390 q 305 301 305 342 z "},"q":{"ha":434,"x_min":0,"x_max":631,"o":"m 264 317 l 264 317 l 142 388 q 96 365 117 391 q 80 301 80 342 l 80 204 q 264 18 90 64 l 264 18 l 264 170 l 264 174 l 264 174 q 264 216 264 199 q 264 255 264 233 q 264 317 264 277 m 340 -62 l 340 -62 l 340 -85 q 369 -203 340 -172 q 452 -231 398 -234 q 579 -210 505 -229 q 603 -243 591 -227 q 631 -283 617 -264 q 459 -276 538 -293 q 327 -209 379 -260 q 264 -62 275 -157 l 264 -62 l 264 -62 q 264 -62 264 -62 q 264 -61 264 -61 l 264 -61 l 264 1 l 264 1 q 0 204 19 56 l 0 295 q 102 413 0 413 q 119 412 111 413 l 119 412 l 119 412 l 149 395 l 149 395 l 264 326 l 264 372 q 276 400 264 387 q 302 413 288 413 q 312 411 308 413 l 312 411 q 320 406 315 409 l 324 404 l 419 348 l 402 348 l 372 366 q 349 367 357 374 q 342 357 345 364 q 340 332 340 349 l 340 182 l 340 -61 l 340 -62 z "},"r":{"ha":355,"x_min":0,"x_max":351,"o":"m 296 351 l 296 351 l 351 392 q 283 413 326 413 q 238 406 260 413 q 199 382 216 399 q 176 359 188 371 q 121 304 149 332 l 121 370 q 105 403 121 389 q 69 408 89 416 l 0 371 q 9 371 5 371 q 32 370 25 372 q 40 359 39 368 q 41 331 42 351 q 41 329 41 330 l 41 33 q 31 10 40 18 q 13 1 22 3 l 121 1 l 150 1 q 132 10 141 3 q 121 33 123 18 l 121 64 l 121 292 l 202 373 q 248 391 220 393 q 265 385 258 391 q 285 364 272 379 q 296 351 290 359 z "},"s":{"ha":351,"x_min":0,"x_max":313,"o":"m 44 233 l 44 233 q 92 197 63 212 q 151 168 121 181 q 185 153 169 161 q 250 97 233 130 q 245 28 267 64 q 184 4 225 1 q 105 36 144 7 q 56 117 67 65 l 0 64 q 74 11 25 34 q 172 -15 123 -12 q 262 5 220 -18 q 311 82 304 28 q 268 182 313 146 q 161 243 222 217 q 134 256 148 250 q 61 313 85 279 q 62 384 37 346 q 123 406 83 410 q 201 371 164 401 q 249 290 238 341 l 299 346 q 179 416 253 400 q 52 391 105 432 q 33 367 41 380 q 19 301 18 339 q 44 233 21 262 z "},"t":{"ha":307,"x_min":2,"x_max":271,"o":"m 141 374 l 141 374 l 141 466 q 3 374 100 380 l 2 374 l 2 363 l 11 363 l 61 363 l 61 118 q 164 0 61 0 q 180 1 172 0 l 180 1 l 180 1 l 210 18 l 210 18 l 271 55 l 271 65 l 204 25 q 157 48 178 23 q 141 112 141 71 l 141 363 l 165 363 l 235 363 l 243 374 l 165 374 l 141 374 z "},"u":{"ha":476,"x_min":0,"x_max":427,"o":"m 121 329 l 121 329 l 121 371 q 105 405 121 391 q 69 410 89 418 l 0 373 q 9 373 5 373 q 32 371 25 373 q 40 361 39 370 q 41 333 42 353 q 41 330 41 332 l 41 329 l 41 329 l 41 119 q 144 1 41 1 q 161 2 152 1 l 161 2 l 161 2 l 190 19 l 190 19 l 305 87 l 305 43 q 322 11 307 24 q 357 6 338 -3 l 427 43 q 418 43 422 43 q 395 44 402 42 q 387 55 388 46 q 385 83 385 63 q 385 85 385 84 l 385 329 l 385 371 q 369 405 385 391 q 333 410 353 418 l 264 373 q 273 373 269 373 q 295 371 288 373 q 304 361 302 370 q 305 333 305 353 q 305 330 305 332 l 305 329 l 305 329 l 305 98 l 184 26 q 138 49 158 24 q 121 113 121 72 l 121 329 z "},"v":{"ha":454,"x_min":-35,"x_max":403,"o":"m 213 1 l 213 1 l 224 1 l 382 310 q 383 400 403 355 q 334 459 366 442 l 311 393 q 330 387 322 389 q 360 374 351 378 q 373 359 369 369 q 372 309 386 334 q 267 106 319 208 l 140 398 q 115 421 132 413 q 81 424 98 429 q 72 419 75 422 q 65 412 68 416 q 64 411 64 412 l -35 304 l -22 305 l 22 353 q 32 359 26 357 q 44 361 37 362 q 59 349 54 358 q 68 333 64 340 q 68 331 68 332 l 213 1 z "},"w":{"ha":631,"x_min":-7,"x_max":594,"o":"m 425 1 l 425 1 l 435 1 l 576 310 q 576 400 594 355 q 532 459 561 442 l 513 393 q 529 387 522 389 q 556 374 548 378 q 568 359 564 369 q 566 309 578 334 q 473 106 519 208 l 373 363 l 353 414 q 342 396 351 410 q 323 367 333 382 q 305 339 313 351 q 298 326 298 327 l 328 249 l 322 237 l 315 221 l 315 221 l 263 106 l 149 398 q 127 421 142 413 q 96 424 112 429 q 89 419 92 422 q 83 412 85 416 q 82 411 82 412 l -7 304 l 5 305 l 45 353 q 53 359 47 357 q 64 361 58 362 q 77 349 72 358 q 85 333 82 340 q 85 331 85 332 l 214 1 l 224 1 l 327 225 l 332 237 l 425 1 z "},"x":{"ha":451,"x_min":0,"x_max":426,"o":"m 79 315 l 79 315 q 144 225 111 271 q 191 160 168 193 q 108 56 149 108 q 82 22 94 39 q 70 11 77 17 q 51 1 62 4 l 123 1 q 121 2 122 1 q 112 6 117 3 q 104 14 106 9 q 103 29 101 20 q 117 52 106 38 l 131 69 l 196 153 q 282 28 240 91 q 286 20 286 24 q 281 11 286 14 q 263 1 273 3 l 302 1 l 401 1 l 412 1 l 426 1 q 409 9 419 2 q 379 35 399 16 l 374 40 l 248 218 l 284 264 l 326 317 q 349 404 354 355 q 323 472 346 448 l 292 418 q 322 381 319 393 q 327 356 326 370 q 323 332 327 342 q 312 313 319 322 q 242 225 292 289 l 121 397 q 95 413 111 410 q 66 408 78 417 q 60 401 62 405 q 56 393 58 398 q 55 392 56 393 l 0 267 l 11 271 l 35 327 q 41 335 37 331 q 51 339 45 338 q 66 331 60 338 q 78 317 73 324 q 79 315 79 317 z "},"y":{"ha":382,"x_min":-29,"x_max":345,"o":"m 183 1 l 183 1 l 7 -229 l 92 -229 l 193 1 l 328 310 q 328 400 345 355 q 304 444 319 427 l 267 393 q 283 387 276 389 q 309 374 301 378 q 320 359 316 369 q 319 309 331 334 q 229 106 274 208 l 120 398 q 99 421 114 413 q 70 424 85 429 q 62 419 65 422 q 57 412 60 416 q 56 411 56 412 l -29 304 l -18 305 l 20 353 q 28 359 23 357 q 39 361 33 362 q 52 349 47 358 q 59 333 56 340 q 60 331 59 332 l 183 1 z "},"z":{"ha":448,"x_min":0,"x_max":404,"o":"m 300 405 l 300 405 q 292 397 296 402 q 223 299 258 349 q 39 41 131 170 q 28 27 36 36 q 13 11 21 18 q 0 2 5 3 l 14 2 l 25 2 l 41 2 l 220 1 l 362 1 l 404 79 q 345 30 371 45 q 312 15 319 15 q 256 16 283 15 q 144 16 196 16 q 132 20 136 16 q 134 33 127 24 q 267 222 198 129 q 302 273 284 247 l 303 273 q 334 316 319 294 q 335 318 334 317 q 342 327 338 322 l 370 366 l 352 406 l 348 414 l 185 414 l 119 414 q 39 377 73 412 q 3 314 7 347 l 64 322 q 73 370 66 360 q 89 390 79 380 q 110 402 100 399 q 131 405 119 405 q 300 405 172 405 z "},"{":{"ha":270,"x_min":0,"x_max":218,"o":"m 0 273 l 0 273 q 32 266 15 271 q 55 257 49 260 q 76 234 72 246 q 80 201 80 222 l 80 92 q 98 28 80 48 q 143 3 116 8 q 163 2 149 3 q 195 0 178 1 q 218 0 211 0 q 145 69 145 10 l 145 186 q 134 235 145 218 q 105 261 123 254 q 52 273 79 271 q 105 286 79 276 q 134 311 123 294 q 145 360 145 329 l 145 478 q 218 547 145 536 q 195 547 211 547 q 163 545 178 546 q 143 543 149 545 q 98 519 116 539 q 80 455 80 498 l 80 345 q 76 313 80 326 q 55 290 72 300 q 32 281 49 287 q 0 273 15 276 z "},"|":{"ha":166,"x_min":34,"x_max":83,"o":"m 34 0 l 34 0 l 83 0 l 83 612 l 34 612 l 34 0 z "},"}":{"ha":277,"x_min":0,"x_max":218,"o":"m 218 273 l 218 273 q 186 266 203 271 q 163 257 170 260 q 142 234 146 246 q 138 201 138 222 l 138 92 q 121 28 138 48 q 75 3 102 8 q 55 2 70 3 q 24 0 40 1 q 0 0 7 0 q 73 69 73 10 l 73 186 q 84 235 73 218 q 113 261 95 254 q 167 273 139 271 q 113 286 139 276 q 84 311 95 294 q 73 360 73 329 l 73 478 q 0 547 73 536 q 24 547 7 547 q 55 545 40 546 q 75 543 70 545 q 121 519 102 539 q 138 455 138 498 l 138 345 q 142 313 138 326 q 163 290 146 300 q 186 281 170 287 q 218 273 203 276 z "},"~":{"ha":408,"x_min":-11,"x_max":343,"o":"m 85 271 l 85 271 q 14 229 39 268 q 8 151 -11 190 q 28 188 18 174 q 51 211 37 203 q 83 220 64 220 q 123 213 104 220 q 168 193 141 206 q 214 172 195 180 q 252 165 232 165 q 315 197 287 166 q 334 282 343 228 q 295 231 314 246 q 254 216 276 216 q 216 224 234 216 q 170 244 197 231 q 125 264 143 257 q 85 271 106 271 z "},"¡":{"ha":201,"x_min":0,"x_max":96,"o":"m 49 401 q 77 414 66 401 q 89 446 89 427 q 77 477 89 464 q 49 490 66 490 q 21 477 33 490 q 9 446 9 464 q 21 414 9 427 q 49 401 33 401 l 49 401 m 49 379 q 44 343 46 365 q 39 301 41 321 q 36 275 37 283 q 22 195 31 231 q 7 123 15 159 q 0 64 0 86 q 12 16 0 33 q 50 -1 24 -1 q 96 67 96 -1 q 90 123 94 97 q 75 199 85 148 q 67 242 71 224 q 62 278 64 260 q 59 294 61 283 q 54 338 57 313 q 49 379 50 363 l 49 379 z "},"¢":{"ha":772,"x_min":0,"x_max":0,"o":""},"£":{"ha":384,"x_min":-2,"x_max":315,"o":"m 111 264 l 111 264 q 93 357 93 321 q 117 413 93 391 q 173 435 140 435 q 244 393 218 435 q 312 361 268 355 q 267 450 305 418 q 174 482 231 482 q 64 437 104 482 q 35 316 24 391 q 49 264 38 300 l 0 264 l 0 217 l 62 217 q 67 177 67 197 q 46 100 67 132 q 12 62 31 77 q 2 33 -2 50 q 20 9 5 16 q 41 10 31 5 q 62 19 51 15 q 123 27 97 30 q 182 12 149 24 q 186 11 184 12 q 265 -1 224 -4 q 302 24 290 3 q 307 69 315 45 l 306 72 q 243 54 276 52 q 178 66 210 56 q 174 66 176 66 q 125 76 146 74 q 76 69 103 77 q 115 119 100 85 q 120 217 130 154 l 208 217 l 208 264 l 111 264 z "},"¤":{"ha":446,"x_min":0,"x_max":0,"o":""},"¥":{"ha":476,"x_min":0,"x_max":433,"o":"m 176 218 l 176 218 l 59 218 l 59 249 l 162 249 l 69 435 q 67 437 68 436 q 46 462 59 452 q 0 477 33 472 l 161 477 q 121 454 123 468 q 134 417 119 440 l 216 249 l 217 249 l 309 399 q 325 448 332 431 q 296 470 317 465 q 257 477 275 476 l 433 477 q 382 462 400 474 q 351 433 364 450 q 295 344 330 403 q 236 249 263 290 l 374 249 l 374 218 l 226 218 l 226 177 l 374 177 l 374 146 l 226 146 l 226 81 q 232 38 226 57 q 262 8 237 19 l 141 8 q 171 38 165 19 q 176 80 176 56 l 176 146 l 59 146 l 59 177 l 176 177 l 176 218 z "},"¦":{"ha":446,"x_min":0,"x_max":0,"o":""},"§":{"ha":446,"x_min":0,"x_max":0,"o":""},"¨":{"ha":446,"x_min":0,"x_max":0,"o":""},"©":{"ha":543,"x_min":0,"x_max":467,"o":"m 233 488 l 233 488 q 136 468 178 487 q 63 415 93 448 q 18 341 33 382 q 0 255 2 300 q 16 159 0 205 q 62 76 31 113 q 136 18 93 39 q 232 -3 179 -3 q 330 18 287 -3 q 405 74 374 38 q 451 154 435 110 q 467 245 467 199 q 467 252 467 248 q 466 259 466 257 q 448 342 465 302 q 401 416 431 383 q 328 469 370 449 q 233 488 285 488 m 233 452 l 233 452 q 310 436 274 452 q 374 392 346 420 q 416 328 401 364 q 432 252 432 292 q 408 144 432 193 q 336 64 383 94 q 226 35 290 35 q 144 55 180 37 q 83 104 108 73 q 47 172 59 134 q 35 250 35 210 q 50 324 37 288 q 90 389 64 360 q 151 434 115 417 q 233 452 188 451 m 333 363 l 333 363 q 239 381 283 381 q 174 364 204 381 q 126 317 144 347 q 109 250 109 286 q 117 189 109 216 q 141 143 125 162 q 178 114 157 123 q 226 103 200 104 q 281 111 258 103 q 318 134 304 119 q 340 172 332 150 l 340 172 l 310 154 q 292 138 302 144 q 248 126 273 127 q 224 130 241 127 q 173 169 192 140 q 155 246 155 199 q 165 301 155 276 q 196 341 176 326 q 246 356 217 356 q 309 313 299 356 l 333 299 q 333 300 333 300 l 333 363 z "},"ª":{"ha":439,"x_min":0,"x_max":0,"o":""},"«":{"ha":446,"x_min":0,"x_max":0,"o":""},"¬":{"ha":446,"x_min":0,"x_max":0,"o":""},"®":{"ha":538,"x_min":0,"x_max":459,"o":"m 235 248 l 235 248 l 172 248 l 172 336 q 173 355 172 347 q 182 369 174 362 q 200 375 189 374 q 222 375 212 376 q 229 375 226 375 q 263 356 251 375 q 276 312 275 336 q 267 268 277 287 q 235 248 256 248 m 371 388 l 371 388 q 429 243 429 328 q 371 99 429 159 q 230 39 312 39 q 89 99 147 39 q 30 243 30 159 q 89 388 30 328 q 230 448 147 448 q 371 388 312 448 m 230 479 l 230 479 q 67 410 134 479 q 0 243 0 341 q 67 77 0 146 q 230 8 134 8 q 392 77 325 8 q 459 243 459 146 q 392 410 459 341 q 230 479 325 479 m 239 385 l 239 385 q 180 385 214 385 q 119 385 147 385 q 138 367 134 378 q 142 340 142 355 q 142 230 142 283 l 142 209 q 142 168 142 188 q 142 146 142 157 q 138 120 142 132 q 121 102 135 109 l 193 102 q 177 116 183 106 q 172 146 172 129 q 172 193 172 170 q 172 239 172 215 l 209 239 q 253 173 231 205 q 283 126 268 150 q 273 102 297 107 l 355 102 q 335 110 346 104 q 319 121 323 115 q 277 186 298 155 q 241 239 259 212 q 307 291 294 247 q 288 369 319 334 q 239 385 272 385 z "},"¯":{"ha":454,"x_min":0,"x_max":0,"o":""},"°":{"ha":446,"x_min":0,"x_max":0,"o":""},"±":{"ha":353,"x_min":0,"x_max":287,"o":"m 124 327 l 124 327 l 0 327 l 0 288 l 124 288 l 124 142 l 162 142 l 162 288 l 287 288 l 287 327 l 162 327 l 162 469 l 124 469 l 124 327 m 0 100 l 0 100 l 0 59 l 286 59 l 286 100 l 0 100 z "},"²":{"ha":688,"x_min":0,"x_max":0,"o":""},"³":{"ha":688,"x_min":0,"x_max":0,"o":""},"´":{"ha":446,"x_min":0,"x_max":0,"o":""},"µ":{"ha":800,"x_min":0,"x_max":0,"o":""},"¶":{"ha":446,"x_min":0,"x_max":0,"o":""},"·":{"ha":161,"x_min":1,"x_max":85,"o":"m 41 258 l 41 258 q 13 247 24 258 q 1 218 1 235 l 1 214 q 13 185 1 197 q 41 173 24 173 l 45 173 q 73 185 62 173 q 85 214 85 197 l 85 218 q 73 247 85 235 q 45 258 62 258 l 41 258 z "},"∙":{"ha":161,"x_min":1,"x_max":85,"o":"m 41 258 l 41 258 q 13 247 24 258 q 1 218 1 235 l 1 214 q 13 185 1 197 q 41 173 24 173 l 45 173 q 73 185 62 173 q 85 214 85 197 l 85 218 q 73 247 85 235 q 45 258 62 258 l 41 258 z "},"¸":{"ha":446,"x_min":0,"x_max":0,"o":""},"¹":{"ha":688,"x_min":0,"x_max":0,"o":""},"º":{"ha":487,"x_min":0,"x_max":0,"o":""},"»":{"ha":446,"x_min":0,"x_max":0,"o":""},"¼":{"ha":1158,"x_min":0,"x_max":0,"o":""},"½":{"ha":1332,"x_min":0,"x_max":0,"o":""},"¾":{"ha":1158,"x_min":0,"x_max":0,"o":""},"¿":{"ha":507,"x_min":0,"x_max":0,"o":""},"À":{"ha":668,"x_min":1,"x_max":635,"o":"m 385 314 l 385 314 l 150 314 l 260 625 l 385 314 m 585 43 l 585 43 l 316 710 l 225 710 l 251 646 l 33 28 q 1 -1 24 6 l 68 -1 q 45 19 40 5 l 144 298 q 364 298 254 298 q 391 298 378 298 l 498 31 q 498 14 502 21 q 487 4 494 7 q 476 0 480 1 q 635 0 555 0 q 608 14 624 2 q 585 43 593 25 m 205 805 l 205 805 q 223 798 209 804 q 276 779 245 790 q 332 759 307 767 q 360 753 357 751 q 347 772 361 757 q 312 808 332 788 q 274 844 291 828 q 252 865 256 861 q 212 886 233 886 q 183 870 195 886 q 176 834 172 853 q 205 805 180 815 z "},"Á":{"ha":685,"x_min":0,"x_max":634,"o":"m 384 314 l 384 314 l 149 314 l 259 625 l 384 314 m 584 43 l 584 43 l 316 710 l 225 710 l 251 646 l 32 28 q 0 -1 24 6 l 67 -1 q 45 19 40 5 l 144 298 q 363 298 254 298 q 391 298 377 298 l 498 31 q 497 15 502 21 q 486 4 493 8 q 476 0 479 1 q 634 0 555 0 q 608 14 623 2 q 584 43 592 25 m 351 805 l 351 805 q 333 798 347 804 q 280 779 311 790 q 224 759 249 767 q 196 753 199 751 q 209 772 195 757 q 244 808 224 788 q 282 844 265 828 q 304 865 300 861 q 344 887 323 887 q 373 870 361 887 q 380 834 384 853 q 351 805 376 815 z "},"Â":{"ha":673,"x_min":0,"x_max":634,"o":"m 384 314 l 384 314 l 149 314 l 259 625 l 384 314 m 584 43 l 584 43 l 316 710 l 225 710 l 251 646 l 32 28 q 0 -1 24 6 l 67 -1 q 45 19 40 5 l 144 298 q 363 298 254 298 q 391 298 377 298 l 498 31 q 497 14 502 21 q 486 4 493 7 q 476 0 479 1 q 634 0 555 0 q 608 14 623 2 q 584 43 592 25 m 287 886 l 287 886 q 273 877 282 886 q 256 861 269 873 q 212 818 237 843 q 167 771 186 792 q 150 746 148 751 q 177 755 155 743 q 227 783 200 767 q 273 811 254 800 q 287 820 283 817 q 300 811 291 817 q 346 783 319 800 q 396 755 374 767 q 423 746 418 743 q 406 771 425 751 q 361 818 387 792 q 317 861 336 843 q 300 877 304 873 q 287 886 292 886 z "},"Ã":{"ha":656,"x_min":0,"x_max":634,"o":"m 384 314 l 384 314 l 149 314 l 259 625 l 384 314 m 584 43 l 584 43 l 316 710 l 225 710 l 251 646 l 32 28 q 0 -1 24 6 l 67 -1 q 45 19 40 5 l 144 298 q 363 298 254 298 q 391 298 377 298 l 498 31 q 497 14 502 21 q 486 4 493 7 q 476 0 479 1 q 634 0 555 0 q 608 14 623 2 q 584 43 592 25 m 325 841 l 325 841 q 314 845 319 843 q 254 863 286 857 q 187 838 215 867 q 161 762 159 809 q 200 798 176 792 q 254 793 225 804 q 264 789 259 791 q 325 772 292 777 q 391 796 363 767 q 417 872 419 825 q 378 836 403 842 q 325 841 353 830 z "},"Ä":{"ha":654,"x_min":0,"x_max":634,"o":"m 321 884 l 321 884 q 296 862 304 878 q 295 826 289 846 q 317 798 301 807 q 349 795 332 789 q 374 817 366 801 q 375 853 381 833 q 353 881 369 872 q 321 884 338 890 m 384 314 l 384 314 l 149 314 l 259 625 l 384 314 m 584 43 l 584 43 l 316 710 l 225 710 l 251 646 l 32 28 q 0 -1 24 6 l 67 -1 q 45 19 40 5 l 144 298 q 363 298 254 298 q 391 298 377 298 l 498 31 q 497 14 502 21 q 486 4 493 7 q 476 0 479 1 q 634 0 555 0 q 608 14 623 2 q 584 43 592 25 m 170 884 l 170 884 q 145 862 153 878 q 143 826 138 846 q 165 798 150 807 q 198 795 180 789 q 222 817 215 801 q 224 853 230 833 q 202 881 218 872 q 170 884 186 890 z "},"Å":{"ha":656,"x_min":0,"x_max":634,"o":"m 233 885 l 233 885 l 233 885 l 230 884 q 203 846 208 870 q 210 801 199 823 l 210 801 l 212 798 q 248 767 225 774 q 293 771 271 759 l 295 772 l 295 772 q 319 809 315 785 q 311 857 324 833 l 311 858 l 311 859 q 275 888 297 880 q 233 885 254 895 m 384 314 l 384 314 l 149 314 l 259 625 l 384 314 m 584 43 l 584 43 l 316 710 l 225 710 l 251 646 l 32 28 q 0 -1 24 6 l 67 -1 q 45 19 40 5 l 144 298 q 363 298 254 298 q 391 298 377 298 l 498 31 q 497 14 502 21 q 486 4 493 7 q 476 0 479 1 q 634 0 555 0 q 608 14 623 2 q 584 43 592 25 m 242 862 l 242 862 q 267 864 254 869 q 290 844 281 859 l 290 844 q 296 814 298 829 q 281 793 292 800 l 281 793 q 256 791 269 786 q 233 810 241 795 l 233 810 q 227 840 224 825 q 242 862 231 854 l 242 862 z "},"Æ":{"ha":890,"x_min":0,"x_max":848,"o":"m 380 364 l 380 364 l 213 364 l 380 707 l 380 674 l 380 674 l 380 614 l 380 614 l 380 364 m 45 19 l 45 19 l 204 347 l 380 347 q 380 37 380 191 q 368 11 378 19 q 347 -1 357 2 l 473 -1 l 665 -1 q 845 54 774 1 l 759 54 q 666 9 717 16 l 513 9 q 510 9 511 9 q 494 10 503 9 q 479 17 486 12 q 473 37 473 23 l 473 347 l 623 347 l 720 347 q 750 333 740 347 q 764 307 761 320 l 764 355 l 764 404 q 753 378 762 392 q 720 364 744 364 l 623 364 l 473 364 l 473 702 l 652 702 q 693 695 673 701 q 762 657 730 684 l 848 657 q 823 673 837 666 q 705 709 768 703 q 652 711 679 712 q 526 711 606 711 q 382 711 446 711 l 380 711 l 366 711 l 32 28 q 0 -1 24 6 l 67 -1 q 45 19 40 5 z "},"Œ":{"ha":0,"x_min":0,"x_max":0,"o":""},"Ç":{"ha":635,"x_min":-5,"x_max":588,"o":"m 26 517 l 26 517 q 154 658 68 608 q 337 711 240 708 q 508 662 434 713 l 508 505 q 442 627 488 576 q 330 691 397 677 q 212 671 267 702 q 141 603 169 648 q 106 493 113 557 q 131 293 102 410 q 203 106 159 176 q 285 30 239 54 q 380 10 332 7 q 485 38 434 14 q 570 113 536 62 q 579 117 574 119 q 586 111 584 116 q 585 103 588 106 q 552 69 570 85 q 507 38 529 50 q 456 18 485 27 q 342 -1 401 1 l 342 -15 q 366 -13 354 -11 q 389 -23 378 -14 q 399 -47 399 -34 q 384 -80 399 -66 q 339 -94 369 -93 q 306 -86 318 -94 q 292 -70 294 -78 q 346 -85 323 -90 q 371 -63 369 -81 q 361 -42 372 -52 q 314 -31 349 -33 l 314 0 q 136 56 219 3 q 41 181 77 96 q 1 358 6 265 q 26 517 -5 451 z "},"È":{"ha":559,"x_min":0,"x_max":502,"o":"m 197 805 l 197 805 q 215 798 201 804 q 268 779 237 790 q 324 759 299 767 q 352 753 349 751 q 339 772 353 757 q 303 808 324 788 q 266 844 283 828 q 244 865 248 861 q 204 887 225 887 q 175 870 186 887 q 168 834 164 853 q 197 805 172 815 m 125 37 l 125 37 l 125 347 l 373 347 q 403 334 393 347 q 417 307 414 321 l 417 355 l 417 404 q 406 378 414 392 q 373 364 397 364 l 125 364 l 125 703 l 305 703 q 346 695 326 701 q 414 657 383 684 l 502 657 q 476 673 490 666 q 358 709 420 703 q 305 711 332 712 q 149 711 249 711 q 0 711 50 711 q 21 701 10 709 q 33 674 31 692 q 33 37 33 355 q 21 11 31 19 q 0 -1 10 2 l 125 -1 l 318 -1 q 498 54 427 1 l 412 54 q 319 9 370 16 l 165 9 q 163 9 164 9 q 147 10 155 9 q 132 17 138 12 q 125 37 125 23 z "},"É":{"ha":549,"x_min":0,"x_max":502,"o":"m 313 805 l 313 805 q 295 798 309 804 q 242 779 273 790 q 186 759 211 767 q 158 753 161 751 q 172 772 157 757 q 207 808 186 788 q 244 844 227 828 q 267 865 262 861 q 306 887 285 887 q 335 870 323 887 q 342 834 347 853 q 313 805 338 815 m 125 37 l 125 37 l 125 347 l 373 347 q 403 334 393 347 q 417 307 414 321 l 417 355 l 417 404 q 406 378 414 392 q 373 364 397 364 l 125 364 l 125 703 l 305 703 q 346 695 326 701 q 414 657 383 684 l 502 657 q 476 673 490 666 q 358 709 420 703 q 305 711 332 712 q 149 711 249 711 q 0 711 50 711 q 21 701 10 709 q 33 674 31 692 q 33 37 33 355 q 21 11 31 19 q 0 -1 10 2 l 125 -1 l 318 -1 q 498 54 427 1 l 412 54 q 319 9 370 16 l 165 9 q 163 9 164 9 q 147 10 155 9 q 132 17 138 12 q 125 37 125 23 z "},"Ê":{"ha":552,"x_min":0,"x_max":502,"o":"m 251 887 l 251 887 q 237 877 246 886 q 220 861 233 873 q 176 818 201 843 q 131 771 150 792 q 115 747 113 751 q 141 755 119 743 q 191 783 164 767 q 237 812 218 800 q 251 820 247 817 q 264 812 255 817 q 310 783 283 800 q 360 755 338 767 q 387 747 383 743 q 371 771 389 751 q 326 818 352 792 q 281 861 300 843 q 264 877 269 873 q 251 887 256 886 m 125 37 l 125 37 l 125 347 l 373 347 q 403 334 393 347 q 417 307 414 321 l 417 355 l 417 404 q 406 378 414 392 q 373 364 397 364 l 125 364 l 125 703 l 305 703 q 346 695 326 701 q 414 657 383 684 l 502 657 q 476 673 490 666 q 358 709 420 703 q 305 711 332 712 q 149 711 249 711 q 0 711 50 711 q 21 701 10 709 q 33 674 31 692 q 33 37 33 355 q 21 11 31 19 q 0 -1 10 2 l 125 -1 l 318 -1 q 498 54 427 1 l 412 54 q 319 9 370 16 l 165 9 q 163 9 164 9 q 147 10 155 9 q 132 17 138 12 q 125 37 125 23 z "},"Ë":{"ha":562,"x_min":0,"x_max":502,"o":"m 312 885 l 312 885 q 288 862 295 879 q 286 826 281 846 q 308 798 293 807 q 341 795 323 789 q 365 818 358 801 q 367 853 372 834 q 345 881 360 872 q 312 885 330 890 m 161 885 l 161 885 q 136 862 144 879 q 135 826 129 846 q 157 798 141 807 q 189 795 172 789 q 214 818 206 801 q 216 853 221 834 q 194 881 209 872 q 161 885 178 890 m 125 37 l 125 37 l 125 347 l 373 347 q 403 334 393 347 q 417 307 414 321 l 417 355 l 417 404 q 406 378 414 392 q 373 364 397 364 l 125 364 l 125 703 l 305 703 q 346 695 326 701 q 414 657 383 684 l 502 657 q 476 673 490 666 q 358 709 420 703 q 305 711 332 712 q 149 711 249 711 q 0 711 50 711 q 21 701 10 709 q 33 674 31 692 q 33 37 33 355 q 21 11 31 19 q 0 -1 10 2 l 125 -1 l 318 -1 q 498 54 427 1 l 412 54 q 319 9 370 16 l 165 9 q 163 9 164 9 q 147 10 155 9 q 132 17 138 12 q 125 37 125 23 z "},"Ì":{"ha":268,"x_min":0,"x_max":193,"o":"m 37 805 l 37 805 q 54 798 40 804 q 107 779 76 790 q 163 759 138 767 q 191 753 189 751 q 178 772 193 757 q 143 808 163 788 q 105 844 123 828 q 83 865 87 861 q 43 887 64 887 q 15 870 26 887 q 7 834 3 853 q 37 805 11 815 m 147 37 l 147 37 q 147 461 147 249 q 147 661 147 562 q 134 695 147 679 q 103 711 121 711 q 87 707 94 711 l 0 655 l 20 655 q 32 659 25 658 q 44 656 38 659 q 53 637 52 649 q 55 616 55 625 q 55 613 55 614 q 55 66 55 340 q 55 37 55 52 q 42 11 53 19 q 22 -1 32 2 l 147 -1 l 180 -1 q 160 11 170 2 q 147 37 149 19 z "},"Í":{"ha":275,"x_min":-1,"x_max":188,"o":"m 155 805 l 155 805 q 137 798 151 804 q 84 779 115 790 q 28 759 53 767 q 0 753 3 751 q 13 772 -1 757 q 48 808 28 788 q 86 844 69 828 q 108 865 104 861 q 148 887 127 887 q 177 870 165 887 q 184 834 188 853 q 155 805 180 815 m 150 37 l 150 37 q 150 493 150 265 q 150 661 150 577 q 137 694 150 679 q 106 711 124 710 q 89 707 97 711 l 3 655 l 23 655 q 34 659 28 658 q 46 655 41 659 q 56 637 54 649 q 57 616 58 625 q 57 613 57 614 q 57 126 57 370 q 57 37 57 81 q 45 10 56 19 q 24 -1 35 1 l 150 -1 l 182 -1 q 162 10 173 1 q 150 37 152 19 z "},"Î":{"ha":357,"x_min":-2,"x_max":275,"o":"m 137 887 l 137 887 q 123 877 132 886 q 106 861 119 873 q 62 818 87 843 q 17 771 36 792 q 0 747 -2 751 q 27 755 5 743 q 77 783 50 767 q 123 812 104 800 q 137 820 133 817 q 151 812 140 817 q 196 783 169 800 q 246 755 223 767 q 273 747 269 743 q 256 771 275 751 q 212 818 237 792 q 167 861 186 843 q 151 877 155 873 q 137 887 141 886 m 194 37 l 194 37 q 194 481 194 259 q 194 661 194 571 q 181 695 194 679 q 150 711 168 711 q 133 707 141 711 l 47 655 l 66 655 q 78 659 72 658 q 90 656 85 659 q 100 637 98 649 q 101 616 102 625 q 101 613 101 614 q 101 92 101 353 q 101 37 101 64 q 89 11 100 19 q 68 -1 79 2 l 194 -1 l 227 -1 q 206 11 216 2 q 194 37 196 19 z "},"Ï":{"ha":315,"x_min":-3,"x_max":240,"o":"m 180 885 l 180 885 q 155 862 163 879 q 154 826 148 846 q 176 798 160 807 q 208 795 191 789 q 233 818 225 801 q 235 853 240 834 q 213 881 228 872 q 180 885 197 890 m 28 885 l 28 885 q 4 862 12 879 q 3 826 -3 846 q 24 798 9 807 q 57 795 40 789 q 81 818 74 801 q 83 853 89 834 q 61 881 77 872 q 28 885 45 890 m 176 37 l 176 37 q 176 462 176 249 q 176 661 176 562 q 163 695 176 679 q 132 711 150 711 q 115 707 123 711 l 28 655 l 49 655 q 60 659 54 658 q 72 656 66 659 q 82 637 80 649 q 83 616 83 625 q 83 613 83 614 q 83 66 83 340 q 83 37 83 52 q 71 11 81 19 q 50 -1 60 2 l 176 -1 l 208 -1 q 188 11 199 2 q 176 37 178 19 z "},"Ð":{"ha":682,"x_min":0,"x_max":584,"o":"m 17 367 l 17 367 l 0 344 l 99 344 q 99 37 99 191 q 87 11 97 19 q 66 -1 77 2 l 192 -1 l 276 -1 q 507 103 431 3 q 583 352 584 203 q 549 541 583 455 q 435 673 516 626 q 317 709 379 703 q 264 711 290 712 q 66 711 165 711 q 87 700 77 709 q 99 674 97 692 l 99 367 l 17 367 m 192 37 l 192 37 l 192 344 l 313 344 l 331 367 l 192 367 l 192 702 l 280 702 q 321 695 300 701 q 404 644 367 682 q 460 544 441 606 q 478 342 482 463 q 447 144 475 221 q 382 50 423 83 q 294 9 342 16 l 232 9 q 229 9 231 9 q 213 10 222 9 q 198 17 205 12 q 192 37 192 23 z "},"Ñ":{"ha":635,"x_min":0,"x_max":581,"o":"m 93 709 l 93 709 l 92 709 l 91 711 l 91 709 l 0 709 l 91 581 l 91 46 q 74 14 91 26 q 42 -1 56 3 l 100 -1 l 158 -1 q 139 6 150 1 q 118 20 127 11 q 109 46 109 30 l 109 557 l 482 34 l 507 -1 l 532 -1 l 532 77 l 532 98 l 532 665 q 541 690 532 681 q 562 705 550 700 q 581 711 573 709 l 523 711 l 465 711 q 497 696 479 708 q 514 665 514 685 l 514 122 l 164 610 l 93 709 m 326 869 l 326 869 q 315 873 320 871 q 255 890 287 884 q 188 866 216 895 q 162 789 160 837 q 202 826 177 820 q 254 821 227 832 q 266 817 260 819 q 326 800 294 805 q 393 824 365 794 q 418 900 420 853 q 379 864 404 869 q 326 869 355 858 z "},"Ò":{"ha":690,"x_min":-11,"x_max":618,"o":"m 329 667 l 329 667 q 267 678 301 678 q 205 667 233 678 q 100 493 114 627 q 127 294 96 411 q 203 108 159 177 q 286 32 239 55 q 381 14 332 9 q 484 76 449 22 q 524 200 518 131 q 517 283 526 235 q 497 380 509 331 l 486 425 q 420 585 458 525 q 329 667 380 648 m 254 805 l 254 805 q 271 798 257 804 q 324 779 293 790 q 380 759 355 767 q 408 753 405 751 q 395 772 409 757 q 360 808 380 788 q 322 844 339 828 q 300 865 304 861 q 260 887 281 887 q 231 870 243 887 q 224 834 220 853 q 254 805 228 815 m 189 677 l 189 677 q 411 677 312 718 q 568 505 509 637 q 613 314 609 412 q 576 135 618 216 q 434 15 534 55 q 316 0 374 -4 q 197 24 257 3 q 72 146 123 59 q 5 335 21 233 q 21 515 -11 437 q 96 624 52 585 q 189 677 139 662 z "},"Ó":{"ha":685,"x_min":-11,"x_max":618,"o":"m 329 667 l 329 667 q 267 678 301 678 q 205 667 233 678 q 100 493 114 627 q 127 294 96 411 q 203 108 159 177 q 286 32 239 55 q 381 14 332 9 q 484 76 449 22 q 524 200 518 131 q 517 283 526 235 q 497 380 509 331 l 486 425 q 420 585 458 525 q 329 667 380 648 m 369 805 l 369 805 q 351 798 366 804 q 298 779 330 790 q 242 759 267 767 q 214 753 218 751 q 228 772 213 757 q 263 808 242 788 q 300 844 283 828 q 322 865 318 861 q 362 887 341 887 q 391 870 380 887 q 398 834 402 853 q 369 805 395 815 m 189 677 l 189 677 q 411 677 312 718 q 568 505 509 637 q 613 314 609 412 q 576 135 618 216 q 434 15 534 55 q 316 0 374 -4 q 197 24 257 3 q 72 146 123 59 q 5 335 21 233 q 21 515 -11 437 q 96 624 52 585 q 189 677 139 662 z "},"Ô":{"ha":682,"x_min":-11,"x_max":618,"o":"m 329 667 l 329 667 q 267 678 301 678 q 205 667 233 678 q 100 493 114 627 q 127 294 96 411 q 203 108 159 177 q 286 32 239 55 q 381 14 332 9 q 484 76 449 22 q 524 200 518 131 q 517 283 526 235 q 497 380 509 331 l 486 425 q 420 585 458 525 q 329 667 380 648 m 307 887 l 307 887 q 293 877 302 886 q 277 861 289 873 q 232 818 258 843 q 187 771 206 792 q 170 747 168 751 q 198 755 175 743 q 248 783 220 767 q 294 811 275 800 q 307 820 303 817 q 321 812 311 817 q 367 783 339 800 q 416 755 394 767 q 444 747 439 743 q 427 771 446 751 q 382 818 408 792 q 337 861 356 843 q 321 877 325 873 q 307 887 312 886 m 189 677 l 189 677 q 411 677 312 718 q 568 505 509 637 q 613 314 609 412 q 576 135 618 216 q 434 15 534 55 q 316 0 374 -4 q 197 24 257 3 q 72 146 123 59 q 5 335 21 233 q 21 515 -11 437 q 96 624 52 585 q 189 677 139 662 z "},"Õ":{"ha":685,"x_min":-11,"x_max":618,"o":"m 329 667 l 329 667 q 267 678 301 678 q 205 667 233 678 q 100 493 114 627 q 127 294 96 411 q 203 108 159 177 q 286 32 239 55 q 381 14 332 9 q 484 76 449 22 q 524 200 518 131 q 517 283 526 235 q 497 380 509 331 l 486 425 q 420 585 458 525 q 329 667 380 648 m 342 869 l 342 869 q 332 873 337 871 q 272 890 304 884 q 205 866 233 895 q 179 789 177 837 q 218 826 193 820 q 271 821 243 832 q 282 817 277 819 q 342 800 310 805 q 409 824 381 794 q 435 900 437 853 q 396 864 420 869 q 342 869 371 858 m 189 677 l 189 677 q 411 677 312 718 q 568 505 509 637 q 613 314 609 412 q 576 135 618 216 q 434 15 534 55 q 316 0 374 -4 q 197 24 257 3 q 72 146 123 59 q 5 335 21 233 q 21 515 -11 437 q 96 624 52 585 q 189 677 139 662 z "},"Ö":{"ha":682,"x_min":-11,"x_max":618,"o":"m 329 667 l 329 667 q 267 678 301 678 q 205 667 233 678 q 100 493 114 627 q 127 294 96 411 q 203 108 159 177 q 286 32 239 55 q 381 14 332 9 q 484 76 449 22 q 524 200 518 131 q 517 283 526 235 q 497 380 509 331 l 486 425 q 420 585 458 525 q 329 667 380 648 m 368 885 l 368 885 q 344 862 351 879 q 342 826 336 846 q 364 798 349 807 q 397 795 380 789 q 421 818 414 801 q 423 853 429 834 q 401 881 416 872 q 368 885 386 890 m 217 885 l 217 885 q 193 862 200 879 q 191 826 185 846 q 213 798 197 807 q 245 795 229 789 q 270 818 262 801 q 271 853 277 834 q 250 881 265 872 q 217 885 234 890 m 189 677 l 189 677 q 411 677 312 718 q 568 505 509 637 q 613 314 609 412 q 576 135 618 216 q 434 15 534 55 q 316 0 374 -4 q 197 24 257 3 q 72 146 123 59 q 5 335 21 233 q 21 515 -11 437 q 96 624 52 585 q 189 677 139 662 z "},"×":{"ha":412,"x_min":0,"x_max":335,"o":"m 288 520 l 288 520 l 168 397 l 47 520 l 0 472 l 121 349 l 0 224 l 47 176 l 168 300 l 288 176 l 335 224 l 214 349 l 335 472 l 288 520 z "},"Ø":{"ha":685,"x_min":-7,"x_max":618,"o":"m 414 594 l 414 594 q 420 585 418 589 q 486 425 458 525 l 497 380 q 517 283 509 331 q 524 200 526 235 q 484 76 518 131 q 381 14 449 22 q 289 30 334 9 q 207 102 243 52 l 414 594 m 186 136 l 186 136 q 122 315 149 210 q 100 493 96 420 q 205 667 114 627 q 267 678 233 678 q 329 667 301 678 q 391 623 363 654 l 186 136 m 130 -1 l 130 -1 l 164 -1 l 178 33 q 197 24 187 28 q 316 0 257 3 q 434 15 374 -4 q 576 135 534 55 q 613 314 618 216 q 568 505 609 412 q 442 661 519 614 l 463 711 l 429 711 l 414 675 q 189 677 314 718 q 96 624 139 662 q 21 515 52 585 q 3 356 -7 446 q 52 184 13 267 q 151 52 92 102 l 130 -1 z "},"Ù":{"ha":614,"x_min":0,"x_max":572,"o":"m 232 805 l 232 805 q 250 798 235 804 q 303 779 272 790 q 359 759 334 767 q 387 753 384 751 q 374 772 388 757 q 339 808 359 788 q 300 844 318 828 q 279 865 283 861 q 239 887 260 887 q 210 870 221 887 q 202 834 199 853 q 232 805 206 815 m 505 216 l 505 216 q 505 210 505 213 q 501 157 506 182 q 475 102 496 132 q 326 28 415 28 q 236 51 278 28 q 169 114 195 73 q 149 184 153 143 q 147 268 146 226 q 147 292 147 281 q 147 662 147 483 q 134 695 147 680 q 103 711 121 711 q 87 707 94 711 l 0 655 l 20 655 q 32 659 25 659 q 44 656 38 659 q 53 637 52 649 q 55 616 55 626 q 55 614 55 614 q 55 448 55 528 q 55 283 55 368 q 55 260 55 271 q 59 169 53 210 q 94 92 65 127 q 181 24 132 49 q 288 -1 231 -1 q 398 22 347 -1 q 486 89 450 44 q 519 149 513 123 q 522 209 524 175 q 522 216 522 212 l 522 664 q 531 690 522 680 q 552 704 541 699 q 572 711 564 709 l 513 711 l 456 711 q 487 695 470 707 q 505 664 505 684 l 505 216 z "},"Ú":{"ha":611,"x_min":0,"x_max":572,"o":"m 348 805 l 348 805 q 330 798 345 804 q 277 779 309 790 q 221 759 246 767 q 193 753 196 751 q 207 772 192 757 q 241 808 221 788 q 279 844 262 828 q 301 865 296 861 q 341 887 320 887 q 370 870 359 887 q 377 834 381 853 q 348 805 374 815 m 505 216 l 505 216 q 505 210 505 213 q 501 157 506 182 q 475 102 496 132 q 326 28 415 28 q 236 51 278 28 q 169 114 195 73 q 149 184 153 143 q 147 268 146 226 q 147 292 147 281 q 147 662 147 483 q 134 695 147 680 q 103 711 121 711 q 87 707 94 711 l 0 655 l 20 655 q 32 659 25 659 q 44 656 38 659 q 53 637 52 649 q 55 616 55 626 q 55 614 55 614 q 55 448 55 528 q 55 283 55 368 q 55 260 55 271 q 59 169 53 210 q 94 92 65 127 q 181 24 132 49 q 288 -1 231 -1 q 398 22 347 -1 q 486 89 450 44 q 519 149 513 123 q 522 209 524 175 q 522 216 522 212 l 522 664 q 531 690 522 680 q 552 704 541 699 q 572 711 564 709 l 513 711 l 456 711 q 487 695 470 707 q 505 664 505 684 l 505 216 z "},"Û":{"ha":623,"x_min":0,"x_max":572,"o":"m 286 886 l 286 886 q 272 877 281 886 q 256 861 268 873 q 211 818 237 843 q 166 771 185 792 q 149 746 147 751 q 176 755 154 743 q 226 783 199 767 q 272 811 254 800 q 286 820 281 817 q 299 811 290 817 q 345 783 318 800 q 395 755 372 767 q 422 746 418 743 q 406 771 425 751 q 361 818 387 792 q 316 861 335 843 q 300 877 303 873 q 286 886 290 886 m 505 216 l 505 216 q 505 210 505 213 q 501 157 506 182 q 475 102 496 132 q 326 28 415 28 q 236 51 278 28 q 169 114 195 73 q 149 184 153 143 q 147 268 146 226 q 147 292 147 281 q 147 662 147 483 q 134 695 147 680 q 103 711 121 711 q 87 707 94 711 l 0 655 l 20 655 q 32 659 25 659 q 44 656 38 659 q 53 637 52 649 q 55 616 55 626 q 55 614 55 614 q 55 448 55 528 q 55 283 55 368 q 55 260 55 271 q 59 169 53 210 q 94 92 65 127 q 181 24 132 49 q 288 -1 231 -1 q 398 22 347 -1 q 486 89 450 44 q 519 149 513 123 q 522 209 524 175 q 522 216 522 212 l 522 664 q 531 690 522 680 q 552 704 541 699 q 572 711 564 709 l 513 711 l 456 711 q 487 695 470 707 q 505 664 505 684 l 505 216 z "},"Ü":{"ha":614,"x_min":0,"x_max":572,"o":"m 347 885 l 347 885 q 323 862 330 878 q 321 826 315 846 q 343 798 328 807 q 376 795 359 789 q 400 818 393 801 q 401 853 408 834 q 380 881 395 872 q 347 885 364 890 m 196 885 l 196 885 q 172 862 179 878 q 170 826 164 846 q 192 798 176 807 q 224 795 207 789 q 249 818 241 801 q 250 853 256 834 q 229 881 244 872 q 196 885 213 890 m 505 216 l 505 216 q 505 210 505 213 q 501 157 506 182 q 475 102 496 132 q 326 28 415 28 q 236 51 278 28 q 169 114 195 73 q 149 184 153 143 q 147 268 146 226 q 147 292 147 281 q 147 662 147 483 q 134 695 147 680 q 103 711 121 711 q 87 707 94 711 l 0 655 l 20 655 q 32 659 25 659 q 44 656 38 659 q 53 637 52 649 q 55 616 55 626 q 55 614 55 614 q 55 448 55 528 q 55 283 55 368 q 55 260 55 271 q 59 169 53 210 q 94 92 65 127 q 181 24 132 49 q 288 -1 231 -1 q 398 22 347 -1 q 486 89 450 44 q 519 149 513 123 q 522 209 524 175 q 522 216 522 212 l 522 664 q 531 690 522 680 q 552 704 541 699 q 572 711 564 709 l 513 711 l 456 711 q 487 695 470 707 q 505 664 505 684 l 505 216 z "},"Ý":{"ha":574,"x_min":-68,"x_max":518,"o":"m 342 805 l 342 805 q 324 798 339 804 q 272 779 303 790 q 216 759 241 767 q 188 753 191 751 q 201 772 186 757 q 236 808 216 788 q 274 844 256 828 q 296 865 291 861 q 336 887 315 887 q 365 870 353 887 q 372 834 376 853 q 342 805 368 815 m 331 -1 l 331 -1 l 363 -1 q 343 11 354 2 q 331 40 333 20 l 331 376 l 492 621 q 492 711 518 665 q 454 754 477 738 l 402 709 q 473 675 450 696 q 475 622 496 654 l 327 400 l 151 697 q 118 720 142 712 q 73 723 95 728 q 61 718 65 721 q 52 711 56 715 q 50 710 51 711 l -68 615 l -51 616 l 8 664 q 21 670 14 667 q 37 671 28 673 q 58 660 50 669 q 69 643 65 651 q 71 642 70 642 l 238 370 l 238 40 q 226 11 237 20 q 205 -1 216 2 l 238 -1 l 331 -1 z "},"Ÿ":{"ha":562,"x_min":-66,"x_max":520,"o":"m 333 -1 l 333 -1 l 366 -1 q 346 11 356 2 q 333 40 335 20 l 333 376 l 494 621 q 494 711 520 665 q 456 754 479 738 l 404 709 q 475 675 452 696 q 477 622 498 654 l 329 400 l 153 697 q 120 720 144 712 q 75 723 97 728 q 63 718 67 721 q 54 711 58 715 q 52 710 53 711 l -66 615 l -49 616 l 10 664 q 23 670 16 667 q 39 671 31 673 q 60 660 52 669 q 71 643 67 651 q 73 642 72 642 l 240 370 l 240 40 q 228 11 239 20 q 208 -1 218 2 l 240 -1 l 333 -1 m 332 861 l 332 861 q 308 839 315 855 q 307 803 301 822 q 329 775 313 784 q 361 771 344 766 q 386 794 378 777 q 387 829 393 810 q 365 858 380 848 q 332 861 350 867 m 181 861 l 181 861 q 157 839 164 855 q 155 803 150 822 q 177 775 162 784 q 210 771 193 766 q 234 794 227 777 q 236 829 241 810 q 214 858 229 848 q 181 861 199 867 z "},"Þ":{"ha":540,"x_min":0,"x_max":467,"o":"m 283 229 l 283 229 l 147 229 l 147 431 q 151 477 147 458 q 172 512 154 496 q 209 526 186 524 q 253 526 232 528 q 267 526 260 526 q 338 496 311 526 q 376 421 366 465 q 380 333 387 377 q 349 259 373 289 q 283 229 325 229 m 57 629 l 57 629 l 55 104 q 47 43 56 70 q 3 -1 39 16 l 201 -1 q 155 42 165 15 q 147 104 146 69 q 147 208 147 156 l 293 208 q 424 268 381 215 q 464 390 467 321 q 410 512 461 459 q 292 549 372 549 l 147 549 q 146 571 147 559 q 147 635 146 606 l 147 672 q 134 706 147 690 q 103 722 121 722 q 87 717 94 722 l 0 666 l 20 666 q 48 664 39 675 q 57 629 57 652 z "},"ß":{"ha":573,"x_min":0,"x_max":489,"o":"m 282 711 l 282 711 l 145 630 l 145 668 q 134 696 145 683 q 107 710 123 710 q 99 708 102 710 q 91 704 95 707 q 90 703 90 704 l 19 663 l 36 663 q 45 666 40 665 q 56 663 51 666 q 64 648 63 658 q 65 629 66 637 q 65 627 65 628 l 65 59 q 51 27 65 40 q 22 8 37 15 q 0 -1 6 1 q 24 -1 7 -1 q 57 -1 41 -1 q 83 -1 74 -1 q 127 18 109 -1 q 145 64 145 37 q 145 168 145 116 l 145 385 l 145 396 l 145 446 l 145 446 l 145 620 l 224 667 l 224 667 q 282 679 253 684 q 343 617 326 661 q 355 524 360 574 q 329 439 351 475 q 258 396 307 404 q 259 376 212 384 q 325 357 296 374 q 370 307 353 341 q 386 216 386 273 q 386 199 386 207 q 378 104 389 146 q 329 33 361 54 q 250 11 296 12 q 232 4 232 9 q 251 -1 233 0 l 294 -1 q 434 52 380 -1 q 489 208 488 104 q 437 345 487 300 q 306 391 387 389 q 414 455 382 403 q 438 569 446 507 q 390 673 431 631 q 282 711 354 708 z "},"à":{"ha":422,"x_min":-1,"x_max":376,"o":"m 251 130 l 251 130 q 216 76 237 98 q 152 36 187 43 q 88 57 117 29 q 65 122 64 84 q 95 204 66 170 q 166 250 123 238 q 192 257 174 251 q 228 272 210 262 q 252 295 245 282 q 252 224 252 260 q 251 130 251 176 m 248 380 l 248 380 q 250 304 271 345 q 217 275 238 284 q 163 261 191 265 q 144 258 153 259 q 43 209 84 245 q 0 106 3 173 q 23 31 -1 62 q 92 0 47 0 q 172 28 132 0 q 223 74 202 48 q 251 115 245 100 q 252 78 252 96 q 276 22 254 39 q 326 2 298 5 q 374 0 354 -1 q 376 0 376 0 q 339 20 351 5 q 325 54 327 34 q 322 95 322 74 l 322 283 q 301 367 322 337 q 246 409 279 397 q 174 418 212 421 q 85 403 124 416 q 9 359 45 391 l 9 273 q 14 280 11 275 q 72 354 31 309 q 174 413 113 399 q 248 380 226 418 m 138 492 l 138 492 q 153 486 141 490 q 195 470 170 479 q 240 454 220 460 q 263 450 260 448 q 252 465 264 452 q 224 494 241 477 q 193 523 208 510 q 176 540 180 536 q 144 557 161 557 q 120 544 130 557 q 114 515 111 530 q 138 492 117 499 z "},"á":{"ha":419,"x_min":-1,"x_max":376,"o":"m 251 130 l 251 130 q 216 76 237 98 q 152 36 187 43 q 88 57 117 29 q 65 122 64 84 q 95 204 66 170 q 166 250 123 238 q 192 257 174 251 q 228 272 210 262 q 252 295 245 282 q 252 224 252 260 q 251 130 251 176 m 248 380 l 248 380 q 250 304 271 345 q 217 275 238 284 q 163 261 191 265 q 144 258 153 259 q 43 209 84 245 q 0 106 3 173 q 23 31 -1 62 q 92 0 47 0 q 172 28 132 0 q 223 74 202 48 q 251 115 245 100 q 252 78 252 96 q 276 22 254 39 q 326 2 298 5 q 374 0 354 -1 q 376 0 376 0 q 339 20 351 5 q 325 54 327 34 q 322 95 322 74 l 322 283 q 301 367 322 337 q 246 409 279 397 q 174 418 212 421 q 85 403 124 416 q 9 359 45 391 l 9 273 q 14 280 11 275 q 72 354 31 309 q 174 413 113 399 q 248 380 226 418 m 238 492 l 238 492 q 224 486 235 490 q 182 470 207 479 q 136 454 157 460 q 114 450 116 448 q 124 465 113 452 q 153 494 136 477 q 183 523 169 510 q 201 540 197 536 q 233 557 216 557 q 256 544 247 557 q 262 515 265 530 q 238 492 259 499 z "},"â":{"ha":417,"x_min":-1,"x_max":376,"o":"m 251 130 l 251 130 q 216 76 237 98 q 152 36 187 43 q 88 57 117 29 q 65 122 64 84 q 95 204 66 170 q 166 250 123 238 q 192 257 174 251 q 228 272 210 262 q 252 295 245 282 q 252 224 252 260 q 251 130 251 176 m 248 380 l 248 380 q 250 304 271 345 q 217 275 238 284 q 163 261 191 265 q 144 258 153 259 q 43 209 84 245 q 0 106 3 173 q 23 31 -1 62 q 92 0 47 0 q 172 28 132 0 q 223 74 202 48 q 251 115 245 100 q 252 78 252 96 q 276 22 254 39 q 326 2 298 5 q 374 0 354 -1 q 376 0 376 0 q 339 20 351 5 q 325 54 327 34 q 322 95 322 74 l 322 283 q 301 367 322 337 q 246 409 279 397 q 174 418 212 421 q 85 403 124 416 q 9 359 45 391 l 9 273 q 14 280 11 275 q 72 354 31 309 q 174 413 113 399 q 248 380 226 418 m 189 562 l 189 562 q 177 554 184 561 q 164 541 174 551 q 129 507 149 527 q 94 471 109 487 q 80 450 79 454 q 102 457 84 448 q 141 480 119 467 q 178 502 163 493 q 189 509 185 507 q 199 502 191 507 q 235 480 214 493 q 275 457 257 467 q 296 450 293 448 q 283 471 298 454 q 248 507 268 487 q 212 541 227 527 q 199 554 202 551 q 189 562 192 561 z "},"ã":{"ha":414,"x_min":-1,"x_max":376,"o":"m 251 130 l 251 130 q 216 76 237 98 q 152 36 187 43 q 88 57 117 29 q 65 122 64 84 q 95 204 66 170 q 166 250 123 238 q 192 257 174 251 q 228 272 210 262 q 252 295 245 282 q 252 224 252 260 q 251 130 251 176 m 248 380 l 248 380 q 250 304 271 345 q 217 275 238 284 q 163 261 191 265 q 144 258 153 259 q 43 209 84 245 q 0 106 3 173 q 23 31 -1 62 q 92 0 47 0 q 172 28 132 0 q 223 74 202 48 q 251 115 245 100 q 252 78 252 96 q 276 22 254 39 q 326 2 298 5 q 374 0 354 -1 q 376 0 376 0 q 339 20 351 5 q 325 54 327 34 q 322 95 322 74 l 322 283 q 301 367 322 337 q 246 409 279 397 q 174 418 212 421 q 85 403 124 416 q 9 359 45 391 l 9 273 q 14 280 11 275 q 72 354 31 309 q 174 413 113 399 q 248 380 226 418 m 196 511 l 196 511 q 186 514 191 512 q 134 528 161 523 q 74 509 99 532 q 52 449 50 486 q 86 477 64 473 q 133 473 108 482 q 143 470 138 472 q 195 456 168 461 q 255 475 230 452 q 277 535 279 498 q 243 507 264 511 q 196 511 221 502 z "},"ä":{"ha":410,"x_min":-1,"x_max":376,"o":"m 241 555 l 241 555 q 220 536 227 550 q 219 505 214 522 q 238 480 224 488 q 266 477 251 473 q 287 497 281 483 q 288 528 294 511 q 270 552 283 545 q 241 555 256 559 m 251 130 l 251 130 q 216 76 237 98 q 152 36 187 43 q 88 57 117 29 q 65 122 64 84 q 95 204 66 170 q 166 250 123 238 q 192 257 174 251 q 228 272 210 262 q 252 295 245 282 q 252 224 252 260 q 251 130 251 176 m 248 380 l 248 380 q 250 304 271 345 q 217 275 238 284 q 163 261 191 265 q 144 258 153 259 q 43 209 84 245 q 0 106 3 173 q 23 31 -1 62 q 92 0 47 0 q 172 28 132 0 q 223 74 202 48 q 251 115 245 100 q 252 78 252 96 q 276 22 254 39 q 326 2 298 5 q 374 0 354 -1 q 376 0 376 0 q 339 20 351 5 q 325 54 327 34 q 322 95 322 74 l 322 283 q 301 367 322 337 q 246 409 279 397 q 174 418 212 421 q 85 403 124 416 q 9 359 45 391 l 9 273 q 14 280 11 275 q 72 354 31 309 q 174 413 113 399 q 248 380 226 418 m 111 555 l 111 555 q 90 536 96 550 q 88 505 83 522 q 107 480 94 488 q 135 477 120 473 q 156 497 150 483 q 158 528 163 511 q 139 552 152 545 q 111 555 125 559 z "},"å":{"ha":414,"x_min":-1,"x_max":376,"o":"m 165 572 l 165 572 l 165 572 l 163 571 q 142 541 146 561 q 147 505 138 523 l 147 505 l 148 503 q 177 478 159 484 q 213 481 196 472 l 214 482 l 214 482 q 234 512 231 493 q 228 550 238 531 l 227 551 l 227 551 q 199 574 216 569 q 165 572 182 581 m 251 130 l 251 130 q 215 76 237 98 q 152 36 187 43 q 88 57 117 29 q 64 122 64 84 q 94 204 66 170 q 165 250 123 238 q 192 257 174 251 q 227 272 210 262 q 251 295 245 282 q 251 224 251 260 q 251 130 251 176 m 248 380 l 248 380 q 250 304 271 345 q 217 275 238 284 q 162 261 191 265 q 144 258 153 259 q 43 209 83 245 q 0 106 2 173 q 23 31 -1 62 q 92 0 47 0 q 172 28 132 0 q 223 74 202 48 q 251 115 244 100 q 251 78 251 96 q 275 22 253 39 q 326 2 298 5 q 374 0 354 -1 q 376 0 375 0 q 338 20 350 5 q 324 54 327 34 q 321 95 321 74 l 321 283 q 300 367 321 337 q 246 409 279 397 q 174 418 212 421 q 84 403 123 416 q 8 359 45 391 l 8 273 q 14 280 10 275 q 72 354 31 309 q 174 413 113 399 q 248 380 225 418 m 172 554 l 172 554 q 193 555 182 559 q 211 540 204 552 l 211 540 q 215 516 218 528 q 203 499 213 505 l 203 498 q 183 497 194 494 q 165 513 172 501 l 165 513 q 161 537 159 525 q 172 554 163 548 l 172 554 z "},"æ":{"ha":722,"x_min":-1,"x_max":656,"o":"m 251 130 l 251 130 q 216 76 237 98 q 152 36 187 43 q 88 57 117 29 q 65 122 64 84 q 95 204 66 170 q 166 250 123 238 q 192 257 174 251 q 228 272 210 262 q 252 295 245 282 q 252 224 252 260 q 251 130 251 176 m 248 380 l 248 380 q 250 304 271 345 q 217 275 238 284 q 163 261 191 265 q 144 258 153 259 q 43 209 84 245 q 0 106 3 173 q 23 31 -1 62 q 92 0 47 0 q 172 28 132 0 q 260 123 231 63 q 272 97 260 117 q 294 65 281 79 q 316 45 305 52 l 316 45 q 379 12 345 23 q 547 12 463 -12 q 656 84 614 37 l 597 84 q 565 40 587 60 q 523 12 543 20 l 523 12 q 519 11 522 11 q 518 10 519 10 q 515 9 517 9 l 515 9 q 445 13 480 0 q 383 62 410 25 q 349 136 364 90 l 347 144 q 323 290 321 227 q 353 364 328 335 q 412 403 377 393 q 412 403 412 403 q 412 404 412 404 q 415 404 414 404 q 417 404 416 404 q 420 405 418 405 l 420 405 q 486 398 453 412 q 543 350 519 385 q 566 307 555 332 l 355 150 l 357 141 l 618 336 l 614 341 l 615 341 q 614 342 614 342 q 614 343 614 342 l 614 343 l 614 343 q 442 412 550 420 q 379 400 408 410 q 313 365 342 389 q 306 359 309 361 q 250 408 286 394 q 174 418 215 422 q 85 403 124 416 q 9 359 45 391 l 9 273 q 14 280 11 275 q 72 354 31 309 q 174 413 113 399 q 248 380 226 418 z "},"œ":{"ha":0,"x_min":0,"x_max":0,"o":""},"ç":{"ha":438,"x_min":0,"x_max":387,"o":"m 130 400 l 130 400 q 243 413 186 417 q 334 387 299 410 l 334 294 q 271 380 316 347 q 172 405 226 414 l 171 405 q 168 404 170 405 q 166 404 167 404 q 163 404 165 404 q 163 403 163 404 q 163 403 163 403 q 104 364 128 393 q 75 290 79 335 q 90 172 72 240 q 134 62 107 104 q 243 5 181 1 q 315 25 277 8 q 376 73 353 43 q 381 75 378 75 q 385 72 384 75 q 385 67 387 69 q 364 47 376 56 q 298 12 335 24 q 214 0 259 0 l 214 -12 q 234 -9 224 -8 q 252 -18 244 -11 q 262 -38 262 -27 q 249 -66 262 -55 q 212 -78 236 -77 q 183 -71 193 -78 q 172 -57 174 -64 q 217 -71 198 -75 q 238 -52 237 -66 q 230 -34 239 -43 q 191 -24 220 -26 l 191 1 l 191 1 q 130 12 158 3 q 64 47 94 24 q 17 109 34 71 q 0 206 0 152 q 17 303 0 260 q 64 365 34 340 q 130 400 94 389 z "},"è":{"ha":471,"x_min":0,"x_max":406,"o":"m 98 144 l 98 144 l 317 307 q 294 350 306 332 q 237 398 269 385 q 172 405 204 412 l 171 405 q 168 404 170 405 q 166 404 167 404 q 163 404 165 404 q 163 403 163 404 q 163 403 163 403 q 104 364 128 393 q 75 290 79 335 q 98 144 72 227 m 146 492 l 146 492 q 161 486 149 490 q 203 470 178 479 q 249 454 229 460 q 271 450 269 448 q 261 465 273 452 q 232 494 249 477 q 202 523 216 510 q 184 540 188 536 q 153 557 169 557 q 129 544 138 557 q 123 515 120 530 q 146 492 126 499 m 130 400 l 130 400 q 193 412 159 410 q 365 343 300 420 l 365 343 l 365 343 q 365 342 365 342 q 366 341 366 342 l 366 341 l 370 336 l 100 136 q 134 62 115 90 q 196 13 161 25 q 265 9 231 0 l 267 9 q 269 10 268 9 q 271 11 270 10 q 273 12 272 11 l 274 12 q 316 40 294 20 q 347 84 338 60 l 406 84 q 298 12 365 37 q 130 12 214 -12 q 64 47 94 24 q 17 109 34 71 q 0 206 0 152 q 17 303 0 260 q 64 365 34 340 q 130 400 94 389 z "},"é":{"ha":474,"x_min":0,"x_max":406,"o":"m 98 144 l 98 144 l 317 307 q 294 350 306 332 q 237 398 269 385 q 172 405 204 412 l 171 405 q 168 404 170 405 q 166 404 167 404 q 163 404 165 404 q 163 403 163 404 q 163 403 163 403 q 104 364 128 393 q 75 290 79 335 q 98 144 72 227 m 254 492 l 254 492 q 239 486 251 490 q 197 470 222 479 q 151 454 172 460 q 129 450 131 448 q 139 465 127 452 q 168 494 151 477 q 198 523 184 510 q 216 540 212 536 q 248 557 231 557 q 271 544 262 557 q 277 515 280 530 q 254 492 274 499 m 130 400 l 130 400 q 193 412 159 410 q 365 343 300 420 l 365 343 l 365 343 q 365 342 365 342 q 366 341 366 342 l 366 341 l 370 336 l 100 136 q 134 62 115 90 q 196 13 161 25 q 265 9 231 0 l 267 9 q 269 10 268 9 q 271 11 270 10 q 273 12 272 11 l 274 12 q 316 40 294 20 q 347 84 338 60 l 406 84 q 298 12 365 37 q 130 12 214 -12 q 64 47 94 24 q 17 109 34 71 q 0 206 0 152 q 17 303 0 260 q 64 365 34 340 q 130 400 94 389 z "},"ê":{"ha":474,"x_min":0,"x_max":406,"o":"m 98 144 l 98 144 l 317 307 q 294 350 306 332 q 237 398 269 385 q 172 405 204 412 l 171 405 q 168 404 170 405 q 166 404 167 404 q 163 404 165 404 q 163 403 163 404 q 163 403 163 403 q 104 364 128 393 q 75 290 79 335 q 98 144 72 227 m 203 562 l 203 562 q 193 554 199 561 q 179 541 189 551 q 144 507 164 527 q 109 471 123 487 q 96 450 94 454 q 117 457 99 448 q 156 480 135 467 q 193 502 178 493 q 203 509 200 507 q 214 502 206 507 q 250 480 229 493 q 290 457 272 467 q 311 450 308 448 q 298 471 313 454 q 262 507 283 487 q 227 541 242 527 q 214 554 217 551 q 203 562 207 561 m 130 400 l 130 400 q 193 412 159 410 q 365 343 300 420 l 365 343 l 365 343 q 365 342 365 342 q 366 341 366 342 l 366 341 l 370 336 l 100 136 q 134 62 115 90 q 196 13 161 25 q 265 9 231 0 l 267 9 q 269 10 268 9 q 271 11 270 10 q 273 12 272 11 l 274 12 q 316 40 294 20 q 347 84 338 60 l 406 84 q 298 12 365 37 q 130 12 214 -12 q 64 47 94 24 q 17 109 34 71 q 0 206 0 152 q 17 303 0 260 q 64 365 34 340 q 130 400 94 389 z "},"ë":{"ha":474,"x_min":0,"x_max":406,"o":"m 98 144 l 98 144 l 317 307 q 294 350 306 332 q 237 398 269 385 q 172 405 204 412 l 171 405 q 168 404 170 405 q 166 404 167 404 q 163 404 165 404 q 163 403 163 404 q 163 403 163 403 q 104 364 128 393 q 75 290 79 335 q 98 144 72 227 m 256 555 l 256 555 q 235 536 241 550 q 234 505 229 522 q 253 480 239 488 q 281 477 266 473 q 302 497 296 483 q 303 528 309 511 q 284 552 298 545 q 256 555 271 559 m 125 555 l 125 555 q 104 536 111 550 q 103 505 98 522 q 122 480 109 488 q 151 477 136 473 q 171 497 165 483 q 173 528 178 511 q 154 552 167 545 q 125 555 140 559 m 130 400 l 130 400 q 193 412 159 410 q 365 343 300 420 l 365 343 l 365 343 q 365 342 365 342 q 366 341 366 342 l 366 341 l 370 336 l 100 136 q 134 62 115 90 q 196 13 161 25 q 265 9 231 0 l 267 9 q 269 10 268 9 q 271 11 270 10 q 273 12 272 11 l 274 12 q 316 40 294 20 q 347 84 338 60 l 406 84 q 298 12 365 37 q 130 12 214 -12 q 64 47 94 24 q 17 109 34 71 q 0 206 0 152 q 17 303 0 260 q 64 365 34 340 q 130 400 94 389 z "},"ì":{"ha":268,"x_min":0,"x_max":182,"o":"m 41 492 l 41 492 q 56 486 44 490 q 98 470 73 479 q 143 454 123 460 q 166 450 163 448 q 155 465 167 452 q 127 494 144 477 q 96 523 111 510 q 79 540 82 536 q 47 557 64 557 q 23 544 33 557 q 17 515 14 530 q 41 492 20 499 m 155 63 l 155 63 q 155 166 155 134 q 155 220 155 199 q 155 274 155 242 q 155 378 155 307 q 143 405 155 393 q 117 418 132 418 q 107 416 111 418 l 107 416 q 99 412 104 414 l 95 409 l 0 353 l 17 353 l 47 371 q 71 372 62 379 q 77 362 75 369 q 79 337 79 355 l 79 32 q 69 9 77 16 q 52 0 60 2 l 155 0 l 182 0 q 165 9 174 2 q 155 32 157 16 l 155 63 z "},"í":{"ha":270,"x_min":0,"x_max":182,"o":"m 141 492 l 141 492 q 127 486 138 490 q 84 470 109 479 q 39 454 59 460 q 16 450 19 448 q 27 465 16 452 q 55 494 39 477 q 86 523 72 510 q 104 540 100 536 q 136 557 119 557 q 159 544 150 557 q 165 515 168 530 q 141 492 162 499 m 155 63 l 155 63 q 155 166 155 134 q 155 220 155 199 q 155 274 155 242 q 155 378 155 307 q 143 405 155 393 q 117 418 132 418 q 107 416 111 418 l 107 416 q 99 412 104 414 l 95 409 l 0 353 l 17 353 l 47 371 q 71 372 62 379 q 77 362 75 369 q 79 337 79 355 l 79 32 q 69 9 77 16 q 52 0 60 2 l 155 0 l 182 0 q 165 9 174 2 q 155 32 157 16 l 155 63 z "},"î":{"ha":279,"x_min":-1,"x_max":218,"o":"m 108 562 l 108 562 q 97 554 104 561 q 84 541 94 551 q 49 507 69 527 q 14 471 28 487 q 0 450 -1 454 q 21 457 3 448 q 61 480 39 467 q 98 502 83 493 q 108 509 105 507 q 119 502 111 507 q 155 480 134 493 q 195 457 177 467 q 216 450 212 448 q 203 471 218 454 q 168 507 188 487 q 132 541 147 527 q 119 554 122 551 q 108 562 112 561 m 160 63 l 160 63 q 160 166 160 134 q 160 220 160 199 q 160 274 160 242 q 160 378 160 307 q 149 405 160 393 q 123 418 137 418 q 112 416 116 418 l 112 416 q 104 412 109 414 l 100 409 l 5 353 l 22 353 l 52 371 q 75 372 67 379 q 82 362 80 369 q 84 337 84 355 l 84 32 q 74 9 83 16 q 57 0 65 2 l 160 0 l 187 0 q 171 9 179 2 q 160 32 162 16 l 160 63 z "},"ï":{"ha":275,"x_min":0,"x_max":213,"o":"m 161 555 l 161 555 q 140 536 146 550 q 138 505 134 522 q 157 480 144 488 q 186 477 171 473 q 207 497 200 483 q 208 528 213 511 q 189 552 202 545 q 161 555 176 559 m 30 555 l 30 555 q 9 536 16 550 q 7 505 3 522 q 27 480 14 488 q 55 477 40 473 q 76 497 69 483 q 77 528 82 511 q 58 552 72 545 q 30 555 45 559 m 155 63 l 155 63 q 155 166 155 134 q 155 220 155 199 q 155 274 155 242 q 155 378 155 307 q 143 405 155 393 q 117 418 132 418 q 107 416 111 418 l 107 416 q 99 412 104 414 l 95 409 l 0 353 l 17 353 l 47 371 q 71 372 62 379 q 77 362 75 369 q 79 337 79 355 l 79 32 q 69 9 77 16 q 52 0 60 2 l 155 0 l 182 0 q 165 9 174 2 q 155 32 157 16 l 155 63 z "},"ð":{"ha":452,"x_min":0,"x_max":385,"o":"m 80 112 l 80 112 l 80 209 q 227 383 88 333 q 232 391 232 386 q 232 395 232 393 q 229 401 232 398 q 222 402 226 403 q 0 209 18 345 l 0 118 q 102 0 0 0 q 111 0 106 0 q 119 1 116 1 l 149 18 l 264 83 l 264 41 q 281 8 265 21 q 316 4 296 -5 l 385 40 q 376 40 380 40 q 354 42 361 40 q 345 52 347 43 q 344 80 344 60 q 344 83 344 81 l 344 442 q 328 520 344 487 q 286 574 312 553 l 340 615 l 345 644 l 268 586 q 165 607 220 613 q 69 561 110 600 q 22 450 28 522 l 40 450 q 77 542 47 513 q 145 570 107 570 q 216 547 184 570 l 127 479 l 123 449 l 232 532 q 264 448 264 500 q 264 271 264 342 q 264 93 264 191 l 142 25 q 96 48 117 23 q 80 112 80 71 z "},"ñ":{"ha":481,"x_min":0,"x_max":414,"o":"m 239 536 l 239 536 q 229 539 233 537 q 176 553 204 548 q 117 534 141 557 q 94 474 92 511 q 129 503 107 498 q 176 498 151 507 q 185 495 180 497 q 238 481 210 486 q 297 500 273 477 q 319 560 321 524 q 285 532 307 536 q 239 536 263 527 m 305 300 l 305 300 q 305 32 305 166 q 295 9 304 16 q 277 0 286 2 l 385 0 l 414 0 q 396 9 405 2 q 385 32 387 16 q 385 294 385 163 q 283 412 385 412 q 267 411 275 412 l 267 411 l 267 411 l 237 394 l 237 394 l 121 326 l 121 370 q 104 402 120 389 q 69 407 89 415 l 0 370 q 9 370 5 370 q 32 369 25 370 q 40 358 39 367 q 41 330 42 350 q 41 328 41 329 q 41 32 41 180 q 31 9 40 16 q 13 0 22 2 l 121 0 l 150 0 q 132 9 141 2 q 121 32 123 16 q 121 315 121 174 l 243 387 q 289 364 269 389 q 305 300 305 341 z "},"ò":{"ha":505,"x_min":0,"x_max":428,"o":"m 163 403 l 163 403 q 104 364 128 393 q 75 290 79 335 q 90 172 72 240 q 134 62 107 104 q 196 13 161 25 q 265 9 231 0 l 267 9 q 269 10 268 9 q 271 11 270 10 q 273 12 272 11 l 274 12 q 328 52 306 23 q 354 123 349 80 q 342 227 357 166 l 335 254 q 294 350 318 314 q 237 398 269 385 q 172 405 204 412 l 171 405 q 168 404 170 405 q 166 404 167 404 q 163 404 165 404 q 163 403 163 404 q 163 403 163 403 m 130 400 l 130 400 q 298 400 214 424 q 364 365 335 389 q 411 303 394 340 q 428 206 428 260 q 411 109 428 152 q 364 47 394 71 q 298 12 335 24 q 130 12 214 -12 q 64 47 94 24 q 17 109 34 71 q 0 206 0 152 q 17 303 0 260 q 64 365 34 340 q 130 400 94 389 m 164 494 l 164 494 q 178 488 167 493 q 221 472 196 481 q 266 457 246 463 q 289 452 286 450 q 278 468 290 455 q 250 496 267 480 q 219 526 233 512 q 201 543 205 538 q 170 559 186 559 q 146 546 155 559 q 140 517 137 532 q 164 494 143 502 z "},"ó":{"ha":498,"x_min":0,"x_max":428,"o":"m 163 403 l 163 403 q 104 364 128 393 q 75 290 79 335 q 90 172 72 240 q 134 62 107 104 q 196 13 161 25 q 265 9 231 0 l 267 9 q 269 10 268 9 q 271 11 270 10 q 273 12 272 11 l 274 12 q 328 52 306 23 q 354 123 349 80 q 342 227 357 166 l 335 254 q 294 350 318 314 q 237 398 269 385 q 172 405 204 412 l 171 405 q 168 404 170 405 q 166 404 167 404 q 163 404 165 404 q 163 403 163 404 q 163 403 163 403 m 130 400 l 130 400 q 298 400 214 424 q 364 365 335 389 q 411 303 394 340 q 428 206 428 260 q 411 109 428 152 q 364 47 394 71 q 298 12 335 24 q 130 12 214 -12 q 64 47 94 24 q 17 109 34 71 q 0 206 0 152 q 17 303 0 260 q 64 365 34 340 q 130 400 94 389 m 264 494 l 264 494 q 250 488 262 493 q 208 472 233 481 q 162 457 182 463 q 140 452 142 450 q 150 468 138 455 q 179 496 162 480 q 209 526 195 512 q 227 543 223 538 q 258 559 241 559 q 282 546 273 559 q 288 517 291 532 q 264 494 285 502 z "},"ô":{"ha":498,"x_min":0,"x_max":428,"o":"m 163 403 l 163 403 q 104 364 128 393 q 75 290 79 335 q 90 172 72 240 q 134 62 107 104 q 196 13 161 25 q 265 9 231 0 l 267 9 q 269 10 268 9 q 271 11 270 10 q 273 12 272 11 l 274 12 q 328 52 306 23 q 354 123 349 80 q 342 227 357 166 l 335 254 q 294 350 318 314 q 237 398 269 385 q 172 405 204 412 l 171 405 q 168 404 170 405 q 166 404 167 404 q 163 404 165 404 q 163 403 163 404 q 163 403 163 403 m 130 400 l 130 400 q 298 400 214 424 q 364 365 335 389 q 411 303 394 340 q 428 206 428 260 q 411 109 428 152 q 364 47 394 71 q 298 12 335 24 q 130 12 214 -12 q 64 47 94 24 q 17 109 34 71 q 0 206 0 152 q 17 303 0 260 q 64 365 34 340 q 130 400 94 389 m 214 564 l 214 564 q 203 556 210 564 q 190 544 200 553 q 155 510 175 530 q 119 473 134 490 q 106 453 104 456 q 127 460 110 451 q 167 482 145 469 q 203 505 189 495 q 214 511 211 509 q 224 505 217 509 q 261 482 239 495 q 301 460 283 469 q 322 453 319 451 q 309 473 323 456 q 273 510 294 490 q 238 544 253 530 q 225 556 228 553 q 214 564 218 564 z "},"õ":{"ha":488,"x_min":0,"x_max":428,"o":"m 163 403 l 163 403 q 104 364 128 393 q 75 290 79 335 q 90 172 72 240 q 134 62 107 104 q 196 13 161 25 q 265 9 231 0 l 267 9 q 269 10 268 9 q 271 11 270 10 q 273 12 272 11 l 274 12 q 328 52 306 23 q 354 123 349 80 q 342 227 357 166 l 335 254 q 294 350 318 314 q 237 398 269 385 q 172 405 204 412 l 171 405 q 168 404 170 405 q 166 404 167 404 q 163 404 165 404 q 163 403 163 404 q 163 403 163 403 m 130 400 l 130 400 q 298 400 214 424 q 364 365 335 389 q 411 303 394 340 q 428 206 428 260 q 411 109 428 152 q 364 47 394 71 q 298 12 335 24 q 130 12 214 -12 q 64 47 94 24 q 17 109 34 71 q 0 206 0 152 q 17 303 0 260 q 64 365 34 340 q 130 400 94 389 m 241 536 l 241 536 q 233 539 237 537 q 188 552 212 548 q 137 534 158 556 q 118 477 116 512 q 148 504 129 499 q 187 500 166 508 q 195 497 191 498 q 241 484 216 488 q 291 502 270 480 q 311 559 312 524 q 281 532 300 536 q 241 536 262 528 z "},"ö":{"ha":490,"x_min":0,"x_max":428,"o":"m 267 557 l 267 557 q 246 538 252 552 q 245 507 240 524 q 263 483 250 491 q 292 480 277 475 q 313 499 307 485 q 314 530 319 513 q 295 554 309 547 q 267 557 282 562 m 163 403 l 163 403 q 104 364 128 393 q 75 290 79 335 q 90 172 72 240 q 134 62 107 104 q 196 13 161 25 q 265 9 231 0 l 267 9 q 269 10 268 9 q 271 11 270 10 q 273 12 272 11 l 274 12 q 328 52 306 23 q 354 123 349 80 q 342 227 357 166 l 335 254 q 294 350 318 314 q 237 398 269 385 q 172 405 204 412 l 171 405 q 168 404 170 405 q 166 404 167 404 q 163 404 165 404 q 163 403 163 404 q 163 403 163 403 m 130 400 l 130 400 q 298 400 214 424 q 364 365 335 389 q 411 303 394 340 q 428 206 428 260 q 411 109 428 152 q 364 47 394 71 q 298 12 335 24 q 130 12 214 -12 q 64 47 94 24 q 17 109 34 71 q 0 206 0 152 q 17 303 0 260 q 64 365 34 340 q 130 400 94 389 m 136 557 l 136 557 q 115 538 121 552 q 114 507 109 524 q 133 483 119 491 q 161 480 146 475 q 182 499 176 485 q 184 530 189 513 q 164 554 178 547 q 136 557 151 562 z "},"÷":{"ha":410,"x_min":0,"x_max":319,"o":"m 159 91 l 159 91 q 131 79 142 91 q 119 51 119 67 l 119 45 q 131 17 119 29 q 159 5 142 5 l 163 5 q 191 17 180 5 q 203 45 203 29 l 203 51 q 191 79 203 67 q 163 91 180 91 l 159 91 m 159 279 l 159 279 q 131 267 142 279 q 119 238 119 255 l 119 233 q 131 205 119 217 q 159 193 142 193 l 163 193 q 191 205 180 193 q 203 233 203 217 l 203 238 q 191 267 203 255 q 163 279 180 279 l 159 279 m 0 171 l 0 171 l 0 111 l 319 111 l 319 171 l 0 171 z "},"ø":{"ha":514,"x_min":0,"x_max":428,"o":"m 300 340 l 300 340 q 335 254 320 305 l 342 227 q 354 123 357 166 q 328 52 349 80 q 274 12 306 23 l 273 12 q 271 11 272 11 q 269 10 270 10 q 267 9 268 9 l 265 9 q 199 11 233 0 q 139 55 165 22 l 300 340 m 127 73 l 127 73 q 87 180 103 116 q 75 290 72 243 q 104 364 79 335 q 163 403 128 393 q 163 403 163 403 q 163 404 163 404 q 166 404 165 404 q 168 404 167 404 q 171 405 170 405 l 172 405 q 289 357 237 418 l 127 73 m 87 0 l 87 0 l 108 0 l 117 16 q 130 12 123 14 q 298 12 214 -12 q 364 47 335 24 q 411 109 394 71 q 428 206 428 152 q 411 303 428 260 q 364 365 394 340 q 328 388 347 378 l 346 419 l 324 419 l 311 396 q 298 400 304 398 q 130 400 214 424 q 64 365 94 389 q 17 303 34 340 q 0 206 0 260 q 17 109 0 152 q 64 47 34 71 q 100 24 81 34 l 87 0 z "},"ù":{"ha":495,"x_min":0,"x_max":427,"o":"m 163 494 l 163 494 q 178 488 166 493 q 220 472 195 481 q 266 457 245 463 q 288 452 286 450 q 277 468 289 455 q 249 496 266 480 q 218 526 233 512 q 201 543 205 538 q 169 559 186 559 q 145 546 155 559 q 139 517 136 532 q 163 494 142 502 m 121 328 l 121 328 l 121 370 q 105 404 121 391 q 69 408 89 417 l 0 372 q 9 372 5 372 q 32 371 25 372 q 40 360 39 369 q 41 332 42 351 q 41 330 41 331 l 41 328 l 41 328 l 41 118 q 144 0 41 0 q 161 1 152 0 l 161 1 l 161 1 l 190 18 l 190 18 l 305 87 l 305 42 q 322 9 307 22 q 357 5 338 -3 l 427 42 q 418 42 422 42 q 395 43 402 41 q 387 54 388 45 q 385 82 385 62 q 385 84 385 83 l 385 328 l 385 370 q 369 404 385 391 q 333 408 353 417 l 264 372 q 273 372 269 372 q 295 371 288 372 q 304 360 302 369 q 305 332 305 351 q 305 330 305 331 l 305 328 l 305 328 l 305 97 l 184 25 q 138 48 158 23 q 121 112 121 71 l 121 328 z "},"ú":{"ha":495,"x_min":0,"x_max":427,"o":"m 264 494 l 264 494 q 249 488 261 493 q 207 472 232 481 q 161 457 182 463 q 139 452 141 450 q 150 468 138 455 q 178 496 161 480 q 208 526 195 512 q 226 543 222 538 q 258 559 241 559 q 281 546 272 559 q 287 517 290 532 q 264 494 284 502 m 121 328 l 121 328 l 121 370 q 105 404 121 391 q 69 408 89 417 l 0 372 q 9 372 5 372 q 32 371 25 372 q 40 360 39 369 q 41 332 42 351 q 41 330 41 331 l 41 328 l 41 328 l 41 118 q 144 0 41 0 q 161 1 152 0 l 161 1 l 161 1 l 190 18 l 190 18 l 305 87 l 305 42 q 322 9 307 22 q 357 5 338 -3 l 427 42 q 418 42 422 42 q 395 43 402 41 q 387 54 388 45 q 385 82 385 62 q 385 84 385 83 l 385 328 l 385 370 q 369 404 385 391 q 333 408 353 417 l 264 372 q 273 372 269 372 q 295 371 288 372 q 304 360 302 369 q 305 332 305 351 q 305 330 305 331 l 305 328 l 305 328 l 305 97 l 184 25 q 138 48 158 23 q 121 112 121 71 l 121 328 z "},"û":{"ha":495,"x_min":0,"x_max":427,"o":"m 214 564 l 214 564 q 202 556 210 564 q 189 544 199 553 q 154 510 174 530 q 119 473 134 490 q 106 453 104 456 q 127 460 109 451 q 166 482 144 469 q 203 505 188 495 q 214 511 210 509 q 224 505 216 509 q 260 482 239 495 q 300 460 282 469 q 321 453 318 451 q 308 473 323 456 q 273 510 293 490 q 237 544 252 530 q 224 556 227 553 q 214 564 217 564 m 121 328 l 121 328 l 121 370 q 105 404 121 391 q 69 408 89 417 l 0 372 q 9 372 5 372 q 32 371 25 372 q 40 360 39 369 q 41 332 42 351 q 41 330 41 331 l 41 328 l 41 328 l 41 118 q 144 0 41 0 q 161 1 152 0 l 161 1 l 161 1 l 190 18 l 190 18 l 305 87 l 305 42 q 322 9 307 22 q 357 5 338 -3 l 427 42 q 418 42 422 42 q 395 43 402 41 q 387 54 388 45 q 385 82 385 62 q 385 84 385 83 l 385 328 l 385 370 q 369 404 385 391 q 333 408 353 417 l 264 372 q 273 372 269 372 q 295 371 288 372 q 304 360 302 369 q 305 332 305 351 q 305 330 305 331 l 305 328 l 305 328 l 305 97 l 184 25 q 138 48 158 23 q 121 112 121 71 l 121 328 z "},"ü":{"ha":490,"x_min":0,"x_max":427,"o":"m 267 557 l 267 557 q 245 538 252 552 q 244 507 239 524 q 263 483 250 491 q 291 480 276 475 q 312 499 306 485 q 313 530 319 513 q 295 554 308 547 q 267 557 281 562 m 136 557 l 136 557 q 115 538 121 552 q 113 507 109 524 q 132 483 119 491 q 161 480 146 475 q 181 499 175 485 q 183 530 188 513 q 164 554 177 547 q 136 557 151 562 m 121 328 l 121 328 l 121 370 q 105 404 121 391 q 69 408 89 417 l 0 372 q 9 372 5 372 q 32 371 25 372 q 40 360 39 369 q 41 332 42 351 q 41 330 41 331 l 41 328 l 41 328 l 41 118 q 144 0 41 0 q 161 1 152 0 l 161 1 l 161 1 l 190 18 l 190 18 l 305 87 l 305 42 q 322 9 307 22 q 357 5 338 -3 l 427 42 q 418 42 422 42 q 395 43 402 41 q 387 54 388 45 q 385 82 385 62 q 385 84 385 83 l 385 328 l 385 370 q 369 404 385 391 q 333 408 353 417 l 264 372 q 273 372 269 372 q 295 371 288 372 q 304 360 302 369 q 305 332 305 351 q 305 330 305 331 l 305 328 l 305 328 l 305 97 l 184 25 q 138 48 158 23 q 121 112 121 71 l 121 328 z "},"ý":{"ha":455,"x_min":0,"x_max":374,"o":"m 212 -31 l 212 -31 l 36 -260 l 121 -260 l 222 -31 l 357 278 q 357 368 374 323 q 333 412 348 395 l 296 361 q 312 355 305 357 q 338 342 330 347 q 349 328 345 337 q 348 277 360 302 q 258 75 303 176 l 149 366 q 129 389 143 381 q 99 392 114 397 q 92 387 94 390 q 86 380 89 384 q 85 379 85 380 l 0 273 l 12 273 l 49 321 q 57 328 52 325 q 68 329 62 330 q 81 317 76 326 q 88 301 85 309 q 89 299 88 300 l 212 -31 m 271 494 l 271 494 q 257 488 269 493 q 215 472 240 481 q 170 457 190 463 q 147 452 149 450 q 158 468 146 455 q 186 496 170 480 q 216 526 202 512 q 234 543 231 538 q 266 559 249 559 q 289 546 280 559 q 295 517 298 532 q 271 494 292 502 z "},"þ":{"ha":474,"x_min":0,"x_max":385,"o":"m 121 16 l 121 16 q 385 219 366 71 l 385 310 q 283 428 385 428 q 267 427 275 428 l 267 427 l 267 427 l 237 410 l 237 410 l 121 341 l 121 541 q 104 573 120 560 q 69 577 89 586 l 0 541 q 9 541 5 541 q 32 539 25 541 q 40 529 39 538 q 41 501 42 520 q 41 498 41 500 q 41 318 41 449 q 41 56 41 187 q 41 -137 41 -75 q 31 -160 40 -153 q 13 -169 22 -167 l 121 -169 l 150 -169 q 132 -160 141 -167 q 121 -137 123 -153 l 121 16 m 305 316 l 305 316 l 305 219 q 121 33 296 79 l 121 331 l 243 403 q 289 380 269 406 q 305 316 305 357 z "},"ÿ":{"ha":469,"x_min":0,"x_max":374,"o":"m 260 557 l 260 557 q 239 538 245 552 q 238 507 233 524 q 257 483 243 491 q 285 480 270 475 q 306 499 300 485 q 308 530 313 513 q 289 554 302 547 q 260 557 275 562 m 212 -31 l 212 -31 l 36 -260 l 121 -260 l 222 -31 l 357 278 q 357 368 374 323 q 333 412 348 395 l 296 361 q 312 355 305 357 q 338 342 330 347 q 349 328 345 337 q 348 277 360 302 q 258 75 303 176 l 149 366 q 129 389 143 381 q 99 392 114 397 q 92 387 94 390 q 86 380 89 384 q 85 379 85 380 l 0 273 l 12 273 l 49 321 q 57 328 52 325 q 68 329 62 330 q 81 317 76 326 q 88 301 85 309 q 89 299 88 300 l 212 -31 m 130 557 l 130 557 q 109 538 115 552 q 107 507 102 524 q 126 483 113 491 q 155 480 140 475 q 175 499 169 485 q 177 530 182 513 q 158 554 171 547 q 130 557 144 562 z "},"ı":{"ha":349,"x_min":0,"x_max":0,"o":""},"ˆ":{"ha":694,"x_min":0,"x_max":0,"o":""},"ˇ":{"ha":694,"x_min":0,"x_max":0,"o":""},"ˉ":{"ha":694,"x_min":0,"x_max":0,"o":""},"˘":{"ha":694,"x_min":0,"x_max":0,"o":""},"˙":{"ha":694,"x_min":0,"x_max":0,"o":""},"˚":{"ha":694,"x_min":0,"x_max":0,"o":""},"˛":{"ha":694,"x_min":0,"x_max":0,"o":""},"˜":{"ha":694,"x_min":0,"x_max":0,"o":""},"˝":{"ha":694,"x_min":0,"x_max":0,"o":""},"–":{"ha":751,"x_min":0,"x_max":0,"o":""},"—":{"ha":1389,"x_min":0,"x_max":0,"o":""},"‘":{"ha":165,"x_min":0,"x_max":102,"o":"m 37 389 l 37 389 q 30 387 32 385 q 28 395 28 389 q 48 460 32 435 q 83 496 64 484 q 37 469 54 488 q 16 441 20 451 q 0 382 0 412 q 14 332 0 353 q 47 310 27 313 q 86 319 68 306 q 101 349 100 332 q 91 381 102 366 q 37 389 68 406 z "},"’":{"ha":180,"x_min":-1,"x_max":101,"o":"m 64 417 l 64 417 q 71 418 69 420 q 73 410 73 416 q 53 345 69 370 q 18 309 37 321 q 64 336 47 317 q 85 363 81 354 q 101 423 101 393 q 87 473 101 452 q 53 495 73 492 q 15 486 33 499 q 0 456 1 473 q 10 424 -1 439 q 64 417 33 399 z "},"‚":{"ha":180,"x_min":5,"x_max":106,"o":"m 69 10 l 69 10 q 76 11 75 13 q 78 4 78 9 q 58 -62 75 -37 q 23 -98 42 -86 q 70 -71 53 -90 q 91 -43 86 -53 q 106 16 106 -14 q 92 66 106 45 q 59 89 79 85 q 20 79 39 92 q 5 49 6 66 q 16 17 5 32 q 69 10 39 -8 z "},"“":{"ha":300,"x_min":-1,"x_max":229,"o":"m 64 391 q 10 383 33 408 q 0 351 -1 368 q 15 321 1 334 q 53 312 33 308 q 87 334 73 315 q 101 384 101 355 q 85 444 101 414 q 64 471 81 453 q 18 498 47 490 q 53 462 37 486 q 73 397 69 437 q 71 389 73 391 q 64 391 69 387 l 64 391 m 192 389 q 138 381 161 406 q 127 349 127 366 q 142 319 128 332 q 181 310 161 306 q 214 332 201 313 q 229 382 229 353 q 213 441 229 412 q 192 469 208 451 q 145 496 175 488 q 180 460 164 484 q 200 395 197 435 q 198 387 200 389 q 192 389 197 385 l 192 389 z "},"”":{"ha":299,"x_min":-1,"x_max":233,"o":"m 64 417 l 64 417 q 71 418 69 420 q 73 410 73 416 q 53 345 69 370 q 18 309 37 321 q 64 336 47 317 q 85 363 81 354 q 101 423 101 393 q 87 473 101 452 q 53 495 73 492 q 15 486 33 499 q 0 456 1 473 q 10 424 -1 439 q 64 417 33 399 m 196 420 l 196 420 q 202 421 201 423 q 204 414 204 419 q 184 349 201 373 q 149 313 168 324 q 196 339 179 321 q 217 367 212 357 q 233 427 233 397 q 218 477 233 456 q 185 499 205 495 q 146 489 165 503 q 132 459 132 477 q 142 427 131 442 q 196 420 165 402 z "},"„":{"ha":271,"x_min":1,"x_max":222,"o":"m 66 12 l 66 12 q 73 12 71 14 q 74 5 75 10 q 55 -60 71 -36 q 20 -96 39 -85 q 66 -70 50 -88 q 87 -42 83 -52 q 103 18 103 -12 q 89 68 103 47 q 55 90 75 86 q 17 80 35 94 q 2 51 3 68 q 12 18 1 33 q 66 12 35 -7 m 185 9 l 185 9 q 192 11 190 13 q 193 3 194 9 q 174 -62 190 -37 q 139 -98 157 -86 q 185 -72 169 -90 q 206 -44 202 -54 q 222 16 222 -14 q 208 66 222 45 q 174 89 195 85 q 136 78 154 92 q 121 49 121 66 q 132 17 121 32 q 185 9 154 -8 z "},"†":{"ha":688,"x_min":0,"x_max":0,"o":""},"‡":{"ha":688,"x_min":0,"x_max":0,"o":""},"•":{"ha":694,"x_min":0,"x_max":0,"o":""},"…":{"ha":446,"x_min":0,"x_max":0,"o":""},"‹":{"ha":428,"x_min":0,"x_max":0,"o":""},"›":{"ha":428,"x_min":0,"x_max":0,"o":""},"⁄":{"ha":232,"x_min":0,"x_max":0,"o":""},"∕":{"ha":232,"x_min":0,"x_max":0,"o":""},"₣":{"ha":446,"x_min":0,"x_max":0,"o":""},"₤":{"ha":446,"x_min":0,"x_max":0,"o":""},"₧":{"ha":446,"x_min":0,"x_max":0,"o":""},"€":{"ha":419,"x_min":0,"x_max":321,"o":"m 189 423 l 189 423 l 189 423 q 107 401 136 423 q 68 343 79 379 q 55 263 57 307 l 22 263 l 0 232 l 54 232 q 54 218 54 225 q 54 191 54 205 l 22 191 l 0 160 l 56 160 q 88 47 59 94 q 191 0 117 1 q 279 29 243 0 q 321 112 315 60 q 256 82 279 117 q 189 43 232 43 q 136 63 158 43 q 113 115 113 83 q 113 160 113 134 l 248 160 l 267 191 l 113 191 q 113 232 113 212 l 248 232 l 267 263 l 112 263 q 112 268 112 266 q 112 307 112 291 q 134 359 112 339 q 188 380 157 380 q 255 341 231 380 q 319 311 277 305 q 277 394 313 363 q 189 423 242 423 z "},"№":{"ha":1540,"x_min":0,"x_max":0,"o":""},"™":{"ha":1015,"x_min":0,"x_max":448,"o":"m 261 421 l 261 421 q 261 353 261 380 q 261 288 261 326 q 289 249 261 263 l 222 249 q 252 289 252 263 l 252 435 q 222 475 252 461 l 289 475 l 289 475 l 289 475 q 278 458 277 467 q 285 435 278 449 q 305 396 292 422 q 330 345 318 370 q 332 342 331 344 q 335 336 334 339 l 400 475 l 409 475 l 448 475 q 431 459 434 469 q 427 435 427 448 l 427 289 q 431 266 427 276 q 448 249 434 255 l 381 249 q 397 266 394 255 q 400 288 400 276 q 400 362 400 333 q 400 435 400 395 l 400 456 l 358 367 l 340 328 q 354 317 345 320 q 348 304 351 310 q 342 291 345 298 q 337 271 339 283 l 261 421 m 126 249 l 126 249 l 136 249 q 130 252 133 250 q 126 261 127 255 q 126 472 126 367 l 160 472 q 173 470 167 472 q 195 458 185 467 l 222 458 q 214 463 218 460 q 177 475 197 473 q 160 475 169 475 q 62 475 111 475 q 45 475 54 475 q 8 463 26 473 q 0 458 4 460 l 28 458 q 50 470 38 467 q 62 472 56 472 l 96 472 q 96 367 96 419 q 96 261 96 314 q 93 252 96 255 q 86 249 90 250 l 96 249 l 126 249 z "},"∂":{"ha":446,"x_min":0,"x_max":0,"o":""},"∆":{"ha":446,"x_min":0,"x_max":0,"o":""},"∏":{"ha":446,"x_min":0,"x_max":0,"o":""},"∑":{"ha":446,"x_min":0,"x_max":0,"o":""},"−":{"ha":446,"x_min":0,"x_max":0,"o":""},"√":{"ha":446,"x_min":0,"x_max":0,"o":""},"∞":{"ha":446,"x_min":0,"x_max":0,"o":""},"∫":{"ha":446,"x_min":0,"x_max":0,"o":""},"≈":{"ha":446,"x_min":0,"x_max":0,"o":""},"≤":{"ha":446,"x_min":0,"x_max":0,"o":""},"≥":{"ha":446,"x_min":0,"x_max":0,"o":""},"":{"ha":728,"x_min":0,"x_max":0,"o":""},"":{"ha":728,"x_min":0,"x_max":0,"o":""},"":{"ha":0,"x_min":0,"x_max":0,"o":""},"":{"ha":0,"x_min":0,"x_max":0,"o":""},"":{"ha":0,"x_min":0,"x_max":0,"o":""},"":{"ha":0,"x_min":0,"x_max":0,"o":""},"":{"ha":0,"x_min":0,"x_max":0,"o":""},"":{"ha":0,"x_min":0,"x_max":0,"o":""},"":{"ha":0,"x_min":0,"x_max":0,"o":""},"":{"ha":0,"x_min":0,"x_max":0,"o":""},"":{"ha":0,"x_min":0,"x_max":0,"o":""},"":{"ha":0,"x_min":0,"x_max":0,"o":""},"":{"ha":0,"x_min":0,"x_max":0,"o":""},"":{"ha":0,"x_min":0,"x_max":0,"o":""},"":{"ha":0,"x_min":0,"x_max":0,"o":""},"":{"ha":0,"x_min":0,"x_max":0,"o":""},"":{"ha":0,"x_min":0,"x_max":0,"o":""},"":{"ha":0,"x_min":0,"x_max":0,"o":""},"":{"ha":0,"x_min":0,"x_max":0,"o":""},"":{"ha":0,"x_min":0,"x_max":0,"o":""},"":{"ha":0,"x_min":0,"x_max":0,"o":""},"":{"ha":0,"x_min":0,"x_max":0,"o":""},"":{"ha":0,"x_min":0,"x_max":0,"o":""},"":{"ha":0,"x_min":0,"x_max":0,"o":""},"":{"ha":0,"x_min":0,"x_max":0,"o":""},"":{"ha":0,"x_min":0,"x_max":0,"o":""},"":{"ha":0,"x_min":0,"x_max":0,"o":""},"":{"ha":405,"x_min":-308,"x_max":382,"o":"m 38 458 l 38 458 l 38 458 l 38 333 q 38 233 38 283 q 38 31 39 132 q 33 4 39 9 q 5 0 27 -1 q -3 0 1 0 l 66 -37 q 97 -35 83 -44 q 117 -10 111 -26 q 126 -7 121 -9 q 132 -6 129 -7 q 310 78 248 23 q 382 206 373 133 l 382 268 q 279 386 382 386 q 271 386 277 386 q 263 385 266 386 l 234 368 l 119 303 l 119 458 l 119 502 q 92 632 119 598 q 25 660 65 666 q -53 631 -15 654 q -112 590 -90 608 q -196 543 -151 557 q -286 546 -241 529 l -308 654 q -240 610 -284 629 q -136 604 -197 591 q -94 617 -115 610 q -28 633 -58 629 q 19 616 1 637 q 38 533 37 595 l 38 479 l 38 458 m 302 274 l 302 274 l 302 206 q 251 80 297 135 q 119 1 205 25 l 119 31 l 119 293 l 239 361 q 286 338 265 363 q 302 274 302 315 z "},"":{"ha":0,"x_min":0,"x_max":0,"o":""},"":{"ha":412,"x_min":-64,"x_max":404,"o":"m 282 566 l 282 566 q 282 489 282 516 q 282 412 282 462 q 18 209 38 357 l 18 118 q 121 0 18 0 q 130 0 124 0 q 138 1 135 1 l 167 18 l 282 83 l 282 41 q 299 8 283 21 q 335 4 315 -5 l 404 40 q 395 40 399 40 q 372 42 379 40 q 364 52 366 43 q 363 80 362 60 q 363 83 363 81 l 363 535 q 336 665 363 631 q 269 693 309 699 q 192 664 229 688 q 132 623 154 641 q 48 576 93 591 q -42 579 3 562 l -64 687 q 4 643 -40 662 q 108 637 47 624 q 150 650 129 643 q 216 666 186 663 q 263 649 245 670 q 282 566 281 627 m 99 112 l 99 112 l 99 209 q 282 395 108 349 l 282 93 l 161 25 q 115 48 135 23 q 99 112 99 71 z "},"":{"ha":0,"x_min":0,"x_max":0,"o":""},"":{"ha":0,"x_min":0,"x_max":0,"o":""},"":{"ha":0,"x_min":0,"x_max":0,"o":""},"":{"ha":431,"x_min":-296,"x_max":422,"o":"m 313 300 l 313 300 q 313 32 313 166 q 303 9 312 16 q 285 0 294 2 l 393 0 l 422 0 q 404 9 413 2 q 393 32 395 16 q 393 163 393 97 q 393 294 393 229 q 291 412 393 412 q 272 410 278 412 q 258 401 265 407 q 245 394 253 398 l 130 326 l 130 395 l 130 502 q 103 632 130 598 q 37 660 77 666 q -41 631 -3 654 q -100 590 -79 608 q -184 543 -140 557 q -275 546 -229 529 l -296 654 q -229 610 -273 629 q -125 604 -185 591 q -83 616 -104 610 q -17 633 -47 629 q 31 616 13 637 q 50 533 49 595 l 50 479 l 50 429 l 50 429 l 50 32 q 39 9 48 16 q 21 0 30 2 l 130 0 l 158 0 q 140 9 149 2 q 130 32 132 16 q 130 315 130 174 l 251 387 q 297 364 277 389 q 313 300 313 341 z "},"":{"ha":0,"x_min":0,"x_max":0,"o":""},"":{"ha":0,"x_min":0,"x_max":0,"o":""},"":{"ha":459,"x_min":-301,"x_max":458,"o":"m 125 374 l 125 374 l 125 502 q 99 632 125 598 q 32 660 72 666 q -46 631 -8 654 q -105 590 -83 608 q -190 543 -144 557 q -279 546 -235 529 l -301 654 q -234 610 -277 629 q -130 604 -190 591 q -87 616 -109 610 q -22 633 -52 629 q 26 616 8 637 q 45 533 44 595 l 45 479 l 45 429 l 45 429 l 45 32 q 34 9 43 16 q 16 0 25 2 l 125 0 l 153 0 q 136 9 144 2 q 125 32 127 16 q 125 139 125 102 q 125 236 125 175 l 127 237 l 332 28 q 336 18 336 24 q 332 9 336 14 q 314 0 323 2 l 393 0 l 444 0 l 458 0 q 442 8 452 1 q 412 33 432 14 q 245 204 326 121 q 174 278 211 239 l 294 382 q 320 384 307 390 q 344 363 334 378 q 359 317 357 346 l 419 377 q 338 412 393 412 q 312 410 325 412 l 125 246 l 125 374 z "},"":{"ha":156,"x_min":-315,"x_max":138,"o":"m 111 63 l 111 63 q 111 279 111 172 q 111 416 111 347 l 111 416 l 111 502 q 84 632 111 598 q 18 660 58 666 q -60 631 -22 654 q -119 590 -98 608 q -204 543 -159 557 q -294 546 -249 529 l -315 654 q -248 610 -292 629 q -144 604 -204 591 q -102 616 -123 610 q -36 633 -66 629 q 12 616 -6 637 q 31 533 30 595 l 31 479 l 31 374 l 31 374 l 31 32 q 20 9 29 16 q 3 0 12 2 l 111 0 l 138 0 q 121 9 130 2 q 111 32 113 16 l 111 63 z "},"":{"ha":0,"x_min":0,"x_max":0,"o":""},"":{"ha":0,"x_min":0,"x_max":0,"o":""},"":{"ha":0,"x_min":0,"x_max":0,"o":""},"":{"ha":0,"x_min":0,"x_max":0,"o":""},"":{"ha":0,"x_min":0,"x_max":0,"o":""},"":{"ha":0,"x_min":0,"x_max":0,"o":""},"":{"ha":399,"x_min":-283,"x_max":389,"o":"m 331 54 l 331 54 q 273 97 306 79 q 205 130 240 115 q 140 161 171 144 q 59 251 81 195 q 70 363 38 307 q 148 395 97 401 q 244 345 198 389 q 304 226 290 300 l 363 289 q 288 374 326 347 q 172 412 238 409 q 59 372 105 415 q 35 338 44 356 q 18 242 16 298 q 49 144 20 186 q 135 77 86 96 q 233 50 184 58 q 306 32 273 43 q 358 -5 338 21 q 378 -83 378 -31 q 360 -151 378 -123 q 315 -196 342 -178 q 260 -222 288 -214 q 213 -229 233 -230 q 51 -186 125 -224 q -73 -114 -24 -149 q -169 -85 -123 -83 q -246 -101 -215 -87 q -283 -121 -277 -115 l -237 -17 q -141 -11 -187 3 q -54 -95 -95 -25 q 65 -246 -1 -193 q 229 -282 131 -298 q 352 -202 318 -262 q 387 -83 387 -142 q 331 54 389 -11 z "},"":{"ha":0,"x_min":0,"x_max":0,"o":""},"":{"ha":0,"x_min":0,"x_max":0,"o":""},"":{"ha":0,"x_min":0,"x_max":0,"o":""},"":{"ha":0,"x_min":0,"x_max":0,"o":""},"":{"ha":0,"x_min":0,"x_max":0,"o":""},"":{"ha":389,"x_min":-104,"x_max":365,"o":"m 203 1 l 203 1 l 140 -140 q 116 -164 132 -157 q 83 -163 100 -171 q 38 -140 57 -152 q 33 -138 35 -139 q -29 -131 1 -122 q -80 -157 -59 -140 q -104 -180 -100 -174 l -73 -90 q -10 -69 -40 -66 q 46 -119 20 -72 q 93 -189 68 -162 q 114 -195 102 -198 q 132 -182 126 -193 l 212 1 l 347 309 q 348 400 365 354 q 323 444 338 427 l 287 393 q 302 386 296 389 q 328 373 320 378 q 339 359 336 368 q 338 309 350 334 q 249 106 293 208 l 140 398 q 119 420 134 412 q 90 423 104 429 q 82 418 85 421 q 76 412 79 416 q 75 410 76 411 l -9 304 l 1 304 l 39 353 q 47 359 43 357 q 58 360 52 361 q 71 349 66 358 q 78 332 75 340 q 79 330 79 332 l 203 1 z "},"":{"ha":0,"x_min":0,"x_max":0,"o":""},"":{"ha":0,"x_min":0,"x_max":0,"o":""},"":{"ha":0,"x_min":0,"x_max":0,"o":""},"":{"ha":0,"x_min":0,"x_max":0,"o":""},"":{"ha":0,"x_min":0,"x_max":0,"o":""},"":{"ha":0,"x_min":0,"x_max":0,"o":""},"":{"ha":0,"x_min":0,"x_max":0,"o":""},"":{"ha":0,"x_min":0,"x_max":0,"o":""},"":{"ha":0,"x_min":0,"x_max":0,"o":""},"":{"ha":0,"x_min":0,"x_max":0,"o":""},"":{"ha":0,"x_min":0,"x_max":0,"o":""},"":{"ha":0,"x_min":0,"x_max":0,"o":""},"":{"ha":0,"x_min":0,"x_max":0,"o":""},"":{"ha":0,"x_min":0,"x_max":0,"o":""},"":{"ha":0,"x_min":0,"x_max":0,"o":""},"":{"ha":0,"x_min":0,"x_max":0,"o":""},"":{"ha":0,"x_min":0,"x_max":0,"o":""},"":{"ha":0,"x_min":0,"x_max":0,"o":""},"":{"ha":0,"x_min":0,"x_max":0,"o":""},"":{"ha":0,"x_min":0,"x_max":0,"o":""},"":{"ha":0,"x_min":0,"x_max":0,"o":""},"":{"ha":0,"x_min":0,"x_max":0,"o":""},"":{"ha":0,"x_min":0,"x_max":0,"o":""},"":{"ha":0,"x_min":0,"x_max":0,"o":""},"":{"ha":0,"x_min":0,"x_max":0,"o":""},"":{"ha":0,"x_min":0,"x_max":0,"o":""},"":{"ha":0,"x_min":0,"x_max":0,"o":""},"":{"ha":0,"x_min":0,"x_max":0,"o":""},"":{"ha":0,"x_min":0,"x_max":0,"o":""},"":{"ha":0,"x_min":0,"x_max":0,"o":""},"":{"ha":0,"x_min":0,"x_max":0,"o":""},"":{"ha":0,"x_min":0,"x_max":0,"o":""},"":{"ha":0,"x_min":0,"x_max":0,"o":""},"":{"ha":0,"x_min":0,"x_max":0,"o":""},"":{"ha":0,"x_min":0,"x_max":0,"o":""},"":{"ha":0,"x_min":0,"x_max":0,"o":""},"":{"ha":0,"x_min":0,"x_max":0,"o":""},"":{"ha":0,"x_min":0,"x_max":0,"o":""},"":{"ha":0,"x_min":0,"x_max":0,"o":""},"":{"ha":0,"x_min":0,"x_max":0,"o":""},"":{"ha":0,"x_min":0,"x_max":0,"o":""},"":{"ha":0,"x_min":0,"x_max":0,"o":""},"":{"ha":0,"x_min":0,"x_max":0,"o":""},"":{"ha":0,"x_min":0,"x_max":0,"o":""},"":{"ha":0,"x_min":0,"x_max":0,"o":""},"":{"ha":0,"x_min":0,"x_max":0,"o":""},"":{"ha":0,"x_min":0,"x_max":0,"o":""},"":{"ha":0,"x_min":0,"x_max":0,"o":""},"":{"ha":0,"x_min":0,"x_max":0,"o":""},"":{"ha":0,"x_min":0,"x_max":0,"o":""},"":{"ha":0,"x_min":0,"x_max":0,"o":""},"":{"ha":0,"x_min":0,"x_max":0,"o":""},"":{"ha":0,"x_min":0,"x_max":0,"o":""},"":{"ha":0,"x_min":0,"x_max":0,"o":""},"":{"ha":0,"x_min":0,"x_max":0,"o":""},"":{"ha":0,"x_min":0,"x_max":0,"o":""},"":{"ha":0,"x_min":0,"x_max":0,"o":""},"":{"ha":0,"x_min":0,"x_max":0,"o":""},"":{"ha":0,"x_min":0,"x_max":0,"o":""},"":{"ha":0,"x_min":0,"x_max":0,"o":""},"":{"ha":0,"x_min":0,"x_max":0,"o":""},"":{"ha":0,"x_min":0,"x_max":0,"o":""},"":{"ha":0,"x_min":0,"x_max":0,"o":""},"":{"ha":0,"x_min":0,"x_max":0,"o":""},"":{"ha":0,"x_min":0,"x_max":0,"o":""},"":{"ha":0,"x_min":0,"x_max":0,"o":""},"":{"ha":0,"x_min":0,"x_max":0,"o":""},"":{"ha":0,"x_min":0,"x_max":0,"o":""},"":{"ha":0,"x_min":0,"x_max":0,"o":""},"":{"ha":0,"x_min":0,"x_max":0,"o":""},"":{"ha":0,"x_min":0,"x_max":0,"o":""},"":{"ha":0,"x_min":0,"x_max":0,"o":""},"":{"ha":0,"x_min":0,"x_max":0,"o":""},"":{"ha":0,"x_min":0,"x_max":0,"o":""},"":{"ha":0,"x_min":0,"x_max":0,"o":""},"":{"ha":0,"x_min":0,"x_max":0,"o":""},"":{"ha":0,"x_min":0,"x_max":0,"o":""},"":{"ha":0,"x_min":0,"x_max":0,"o":""},"":{"ha":0,"x_min":0,"x_max":0,"o":""},"":{"ha":0,"x_min":0,"x_max":0,"o":""},"":{"ha":0,"x_min":0,"x_max":0,"o":""},"":{"ha":0,"x_min":0,"x_max":0,"o":""},"":{"ha":0,"x_min":0,"x_max":0,"o":""},"":{"ha":0,"x_min":0,"x_max":0,"o":""},"":{"ha":0,"x_min":0,"x_max":0,"o":""},"":{"ha":0,"x_min":0,"x_max":0,"o":""},"":{"ha":0,"x_min":0,"x_max":0,"o":""},"":{"ha":0,"x_min":0,"x_max":0,"o":""},"":{"ha":0,"x_min":0,"x_max":0,"o":""},"":{"ha":0,"x_min":0,"x_max":0,"o":""},"":{"ha":0,"x_min":0,"x_max":0,"o":""},"":{"ha":0,"x_min":0,"x_max":0,"o":""},"":{"ha":0,"x_min":0,"x_max":0,"o":""},"":{"ha":0,"x_min":0,"x_max":0,"o":""},"":{"ha":0,"x_min":0,"x_max":0,"o":""},"":{"ha":0,"x_min":0,"x_max":0,"o":""},"":{"ha":0,"x_min":0,"x_max":0,"o":""},"":{"ha":0,"x_min":0,"x_max":0,"o":""},"":{"ha":0,"x_min":0,"x_max":0,"o":""},"":{"ha":0,"x_min":0,"x_max":0,"o":""},"":{"ha":0,"x_min":0,"x_max":0,"o":""},"":{"ha":0,"x_min":0,"x_max":0,"o":""},"":{"ha":0,"x_min":0,"x_max":0,"o":""},"":{"ha":0,"x_min":0,"x_max":0,"o":""},"":{"ha":0,"x_min":0,"x_max":0,"o":""},"":{"ha":0,"x_min":0,"x_max":0,"o":""},"":{"ha":0,"x_min":0,"x_max":0,"o":""},"":{"ha":0,"x_min":0,"x_max":0,"o":""},"":{"ha":0,"x_min":0,"x_max":0,"o":""},"":{"ha":0,"x_min":0,"x_max":0,"o":""},"":{"ha":0,"x_min":0,"x_max":0,"o":""},"":{"ha":0,"x_min":0,"x_max":0,"o":""},"":{"ha":0,"x_min":0,"x_max":0,"o":""},"":{"ha":0,"x_min":0,"x_max":0,"o":""},"":{"ha":0,"x_min":0,"x_max":0,"o":""},"":{"ha":0,"x_min":0,"x_max":0,"o":""},"":{"ha":0,"x_min":0,"x_max":0,"o":""},"":{"ha":0,"x_min":0,"x_max":0,"o":""},"":{"ha":0,"x_min":0,"x_max":0,"o":""},"":{"ha":0,"x_min":0,"x_max":0,"o":""},"":{"ha":0,"x_min":0,"x_max":0,"o":""},"":{"ha":0,"x_min":0,"x_max":0,"o":""},"":{"ha":0,"x_min":0,"x_max":0,"o":""},"":{"ha":0,"x_min":0,"x_max":0,"o":""},"":{"ha":0,"x_min":0,"x_max":0,"o":""},"":{"ha":0,"x_min":0,"x_max":0,"o":""},"":{"ha":0,"x_min":0,"x_max":0,"o":""},"":{"ha":0,"x_min":0,"x_max":0,"o":""},"":{"ha":0,"x_min":0,"x_max":0,"o":""},"":{"ha":0,"x_min":0,"x_max":0,"o":""},"":{"ha":0,"x_min":0,"x_max":0,"o":""},"":{"ha":0,"x_min":0,"x_max":0,"o":""},"":{"ha":0,"x_min":0,"x_max":0,"o":""},"":{"ha":0,"x_min":0,"x_max":0,"o":""},"":{"ha":0,"x_min":0,"x_max":0,"o":""},"ธ":{"ha":0,"x_min":0,"x_max":0,"o":""},"":{"ha":0,"x_min":0,"x_max":0,"o":""},"":{"ha":0,"x_min":0,"x_max":0,"o":""},"":{"ha":0,"x_min":0,"x_max":0,"o":""},"":{"ha":0,"x_min":0,"x_max":0,"o":""},"":{"ha":0,"x_min":0,"x_max":0,"o":""},"":{"ha":0,"x_min":0,"x_max":0,"o":""},"":{"ha":0,"x_min":0,"x_max":0,"o":""},"":{"ha":0,"x_min":0,"x_max":0,"o":""},"":{"ha":0,"x_min":0,"x_max":0,"o":""},"":{"ha":0,"x_min":0,"x_max":0,"o":""},"":{"ha":0,"x_min":0,"x_max":0,"o":""},"":{"ha":0,"x_min":0,"x_max":0,"o":""},"":{"ha":0,"x_min":0,"x_max":0,"o":""},"":{"ha":0,"x_min":0,"x_max":0,"o":""},"":{"ha":0,"x_min":0,"x_max":0,"o":""},"":{"ha":0,"x_min":0,"x_max":0,"o":""},"":{"ha":0,"x_min":0,"x_max":0,"o":""},"":{"ha":0,"x_min":0,"x_max":0,"o":""},"":{"ha":0,"x_min":0,"x_max":0,"o":""},"":{"ha":0,"x_min":0,"x_max":0,"o":""},"":{"ha":0,"x_min":0,"x_max":0,"o":""},"":{"ha":668,"x_min":-19,"x_max":630,"o":"m 112 64 l 112 64 q 112 338 112 206 q 112 408 112 373 l 258 408 l 258 418 l 112 418 q 112 614 112 516 l 233 686 q 286 652 269 685 l 286 345 q 286 245 286 295 q 286 43 287 144 q 281 16 287 21 q 254 12 275 12 q 245 12 250 12 l 314 -24 q 345 -23 330 -32 q 364 2 359 -14 q 374 5 369 3 q 380 6 377 5 q 558 90 496 35 q 630 218 621 145 l 630 280 q 527 398 630 398 q 519 398 524 398 q 511 397 514 398 l 481 380 l 366 315 l 366 652 l 366 652 q 273 711 345 711 q 256 709 264 711 l 256 709 l 256 709 q 115 625 186 667 q 33 578 74 602 q 33 418 33 492 l -19 418 l -19 408 l 33 408 l 33 32 q 23 9 32 17 q 5 0 14 2 l 112 0 l 140 0 q 122 9 131 2 q 112 32 113 17 l 112 64 m 550 286 l 550 286 l 550 218 q 499 92 545 147 q 366 13 454 37 l 366 43 l 366 305 l 487 373 q 534 350 513 376 q 550 286 550 328 z "},"":{"ha":795,"x_min":-339,"x_max":840,"o":"m 113 134 l 113 134 q 83 220 95 170 q 74 304 72 269 q 98 366 78 342 q 146 397 118 390 q 146 397 146 397 q 147 398 147 397 q 149 398 148 398 q 151 399 150 399 q 153 399 152 399 l 153 399 q 252 358 208 410 l 113 134 m 490 134 l 490 134 q 460 220 471 170 q 450 304 448 269 q 474 366 454 342 q 522 397 494 390 q 523 397 523 397 q 524 398 524 397 q 526 398 524 398 q 527 399 526 399 q 529 399 528 399 l 530 399 q 628 358 585 410 l 490 134 m 52 16 l 52 16 l 73 51 l 95 86 q 120 76 106 80 q 258 76 189 57 q 312 106 288 85 q 351 156 336 125 q 364 236 364 191 q 351 315 364 280 q 312 366 336 347 q 287 383 300 376 l 262 342 q 288 275 277 314 l 294 253 q 303 168 306 203 q 238 76 293 96 l 237 76 q 235 75 236 76 q 234 75 235 75 q 232 75 233 75 l 231 74 q 174 77 203 66 q 123 118 144 87 q 118 125 121 121 l 210 274 l 298 417 l 298 417 q 361 452 319 453 q 378 447 371 452 q 398 426 385 441 q 410 413 404 420 l 464 454 q 396 474 439 474 q 285 412 319 474 l 271 391 q 258 395 264 393 q 120 395 189 414 q 65 366 90 386 q 27 315 41 347 q 13 236 13 280 q 27 156 13 191 q 65 106 41 125 q 87 90 75 97 l 35 5 l 44 5 q 141 -2 89 3 q 242 -24 194 -8 q 320 -73 290 -41 q 351 -159 351 -105 q 320 -245 351 -213 q 245 -293 290 -278 q 157 -308 201 -308 q -5 -266 70 -304 q -129 -193 -80 -228 q -225 -163 -179 -161 q -302 -179 -271 -165 q -339 -200 -333 -194 l -292 -95 q -197 -90 -243 -76 q -110 -174 -151 -104 q 12 -318 -57 -271 q 188 -360 80 -366 q 283 -331 248 -355 q 334 -271 317 -306 q 432 -342 376 -319 q 564 -360 488 -365 q 672 -320 636 -354 q 721 -242 709 -287 q 734 -160 733 -198 q 680 -30 735 -92 q 524 51 625 33 l 428 16 l 449 51 l 471 86 q 496 76 483 80 q 633 76 565 57 q 688 106 664 85 q 726 156 713 125 q 741 236 741 191 q 726 315 741 280 q 688 366 713 347 q 663 383 677 376 l 638 342 q 664 275 653 314 l 670 253 q 680 168 682 203 q 614 76 669 96 l 614 76 q 612 75 612 76 q 610 75 610 75 q 608 75 609 75 l 607 74 q 550 77 578 66 q 499 118 521 87 q 494 125 497 121 l 577 258 l 665 401 l 669 410 q 697 442 682 430 q 738 452 713 454 q 754 447 747 452 q 774 426 762 441 q 786 413 779 420 l 840 454 q 772 474 815 474 q 661 412 696 474 l 648 391 q 633 395 641 393 q 496 395 565 414 q 441 366 466 386 q 403 315 417 347 q 389 236 389 280 q 403 156 389 191 q 441 106 417 125 q 463 90 452 97 l 411 5 l 420 5 q 518 -2 465 3 q 618 -24 570 -8 q 696 -73 665 -41 q 728 -159 728 -105 q 697 -245 728 -213 q 622 -293 666 -278 q 533 -308 577 -308 q 432 -291 481 -307 q 342 -251 384 -275 q 357 -160 357 -202 q 304 -30 359 -92 q 147 51 249 33 l 52 16 z "},"":{"ha":378,"x_min":-298,"x_max":340,"o":"m 128 63 l 128 63 q 128 283 128 173 q 128 502 128 392 q 110 618 129 582 l 205 663 q 215 666 210 665 q 225 663 220 667 q 234 648 232 658 q 235 629 235 638 q 235 627 235 629 l 235 506 l 235 496 l 235 32 q 224 9 233 16 q 207 0 216 2 l 313 0 l 340 0 q 323 9 332 2 q 313 32 315 16 l 313 63 q 313 397 313 230 q 313 496 313 446 l 313 668 q 302 696 313 683 q 276 710 291 709 q 262 706 268 710 l 258 704 l 105 626 q 39 660 79 665 q -41 632 -2 656 q -102 590 -81 608 q -187 543 -142 557 q -277 546 -232 529 l -298 654 q -231 610 -275 629 q -127 604 -187 591 q -85 616 -106 610 q -19 633 -49 629 q 29 616 11 637 q 47 533 47 595 l 47 479 l 47 32 q 37 9 46 16 q 20 0 28 2 l 128 0 l 155 0 q 138 9 147 2 q 128 32 130 16 l 128 63 z "},"":{"ha":685,"x_min":-305,"x_max":651,"o":"m 398 224 l 398 224 q 443 188 416 203 q 498 160 470 172 q 530 144 515 153 q 591 90 575 122 q 587 22 608 57 q 504 5 562 -12 q 406 73 446 22 q 345 193 360 125 q 305 307 332 250 q 252 373 288 345 q 154 408 216 401 q 31 368 81 415 q 7 334 16 353 q -10 239 -12 294 q 20 140 -8 183 q 107 74 58 92 q 205 47 156 55 q 277 29 245 40 q 330 -8 310 18 q 351 -86 351 -34 q 332 -154 351 -126 q 287 -200 314 -182 q 232 -225 260 -217 q 184 -233 204 -233 q 25 -195 98 -229 q -95 -127 -47 -162 q -191 -98 -145 -96 q -268 -115 -237 -100 q -305 -135 -299 -129 l -258 -31 q -163 -25 -209 -11 q -76 -109 -117 -39 q 40 -254 -23 -206 q 201 -286 103 -302 q 324 -205 290 -266 q 359 -86 359 -145 q 302 50 361 -14 q 245 94 277 76 q 178 125 212 111 q 113 157 143 140 q 31 248 53 192 q 42 359 9 303 q 106 392 64 393 q 191 361 149 391 q 260 277 234 332 q 287 196 275 241 q 314 124 298 158 q 360 56 330 90 q 434 2 391 22 q 518 -21 477 -18 q 603 -1 564 -24 q 649 75 643 22 q 609 173 651 138 q 508 235 566 208 q 483 247 495 241 q 407 303 437 270 q 414 373 377 336 q 472 395 434 399 q 546 361 511 391 q 591 280 581 331 l 638 335 q 525 405 595 389 q 404 385 455 420 q 371 351 385 373 q 360 291 357 328 q 398 224 363 253 z "},"":{"ha":476,"x_min":0,"x_max":476,"o":"m 140 374 l 140 374 l 140 466 q 1 374 98 380 l 0 374 l 0 363 l 9 363 l 60 363 l 60 118 q 162 0 60 0 q 178 1 170 0 l 178 1 l 178 1 l 208 18 l 208 18 l 264 52 q 260 60 262 56 l 202 25 q 156 48 176 23 q 140 112 140 71 l 140 363 l 163 363 l 206 363 l 215 363 l 233 363 l 266 363 l 266 118 q 368 0 266 0 q 385 1 376 0 l 385 1 l 385 1 l 414 18 l 414 18 l 476 55 l 476 65 l 408 25 q 362 48 382 23 q 346 112 346 71 l 346 363 l 370 363 l 439 363 l 448 374 l 370 374 l 346 374 l 346 568 q 316 488 337 532 q 267 409 295 443 q 208 374 239 376 l 206 374 l 206 374 l 163 374 l 140 374 z "},"":{"ha":706,"x_min":0,"x_max":719,"o":"m 620 317 l 620 317 l 679 377 q 598 412 653 412 q 572 410 585 412 l 385 246 l 385 652 q 292 711 363 711 q 275 709 283 711 l 275 709 l 275 709 l 246 692 l 246 692 l 167 646 l 131 624 l 52 578 q 52 419 52 498 l 0 419 l 0 409 l 52 409 l 52 32 q 42 9 51 17 q 24 0 33 2 l 131 0 l 159 0 q 141 9 150 2 q 131 32 132 17 l 131 63 q 131 328 131 200 q 131 409 131 368 l 277 409 l 277 419 l 131 419 q 131 624 131 522 l 131 614 l 252 686 q 305 652 288 688 q 305 218 305 435 q 305 32 305 125 q 294 9 303 16 q 277 0 286 2 l 385 0 l 414 0 q 396 9 405 2 q 385 32 387 16 q 385 139 385 102 q 385 236 385 175 l 387 237 l 593 28 q 596 18 596 24 q 592 9 596 14 q 574 0 583 2 l 653 0 l 705 0 l 719 0 q 702 8 712 1 q 672 33 692 14 q 516 193 591 116 q 433 278 477 233 l 554 382 q 581 384 567 390 q 604 363 594 378 q 620 317 617 346 z "},"":{"ha":431,"x_min":0,"x_max":413,"o":"m 385 32 l 385 32 q 385 376 385 203 q 385 652 385 514 q 292 710 363 710 q 283 710 289 710 q 275 709 278 710 q 129 623 202 666 q 52 577 91 600 q 52 419 52 493 l 0 419 l 0 408 l 52 408 l 52 32 q 42 9 51 16 q 24 0 33 2 l 159 0 q 141 9 150 2 q 131 32 132 16 q 131 408 131 225 l 277 408 l 277 419 l 131 419 l 131 614 l 252 685 q 285 678 270 686 q 307 652 300 669 q 307 32 307 342 q 296 9 305 16 q 279 0 288 2 l 413 0 q 395 9 404 2 q 385 32 387 16 z "},"":{"ha":833,"x_min":-339,"x_max":781,"o":"m 252 365 l 252 365 q 153 406 208 417 l 153 406 l 151 406 l 149 405 l 147 405 l 146 404 q 98 373 118 397 q 74 311 78 349 q 83 227 72 276 q 113 140 95 177 l 252 365 m 517 41 l 517 41 l 517 10 q 650 90 604 35 q 701 216 696 144 l 701 283 q 685 347 701 325 q 638 370 665 373 l 517 302 l 517 41 m -110 -167 l -110 -167 q -77 -220 -94 -195 q 31 -275 -29 -250 q 157 -301 91 -299 q 245 -286 201 -301 q 320 -239 290 -271 q 351 -153 351 -206 q 320 -66 351 -98 q 242 -18 290 -34 q 141 4 194 -1 q 44 12 89 10 l 35 12 l 87 97 q 65 113 75 104 q 27 163 41 132 q 13 242 13 198 q 27 322 13 287 q 65 373 41 353 q 120 402 90 393 q 258 402 189 421 q 271 397 264 400 l 478 733 q 502 743 487 746 q 517 722 517 736 l 517 313 l 633 377 l 662 395 q 670 395 665 395 q 678 395 675 395 q 781 277 781 395 l 781 216 q 709 87 772 142 q 531 3 647 33 q 526 2 528 3 q 515 -1 520 1 q 496 -26 510 -17 q 465 -27 481 -35 l 396 9 q 405 9 401 9 q 432 14 426 9 q 437 40 438 18 q 437 241 437 140 q 437 342 437 292 l 437 650 l 319 457 l 269 377 l 118 132 q 123 125 121 128 q 174 83 144 94 q 231 81 203 73 l 232 81 l 234 81 l 235 82 l 237 83 l 238 83 q 303 174 293 102 q 294 260 306 210 l 288 282 q 262 349 277 321 l 287 390 q 312 373 300 382 q 351 322 336 353 q 364 242 364 287 q 351 163 364 198 q 312 113 336 132 q 258 83 288 92 q 120 83 189 64 q 95 93 106 87 l 52 23 l 147 58 q 304 -23 249 39 q 357 -153 359 -85 q 345 -236 357 -191 q 296 -314 332 -280 q 188 -353 260 -347 q 33 -325 96 -359 q -77 -220 -29 -290 q -129 -186 -106 -201 q -225 -156 -179 -155 q -302 -173 -271 -158 q -339 -193 -333 -187 l -292 -88 q -197 -83 -243 -69 q -110 -167 -151 -97 z "},"":{"ha":647,"x_min":-336,"x_max":791,"o":"m 120 133 l 120 133 l 266 346 q 257 361 262 354 q 199 404 232 395 q 127 395 161 414 q 77 311 85 371 q 87 221 75 273 q 120 133 100 169 m 123 402 l 123 402 q 260 402 191 421 q 296 386 278 397 l 458 576 l 458 577 l 537 623 l 573 645 l 652 692 l 652 692 l 682 709 l 682 709 l 682 709 q 698 710 690 710 q 791 652 770 710 l 710 652 q 704 662 707 657 q 658 685 684 688 l 537 613 l 537 623 l 537 496 l 537 496 l 537 429 l 684 429 l 684 419 l 537 419 q 537 342 537 380 q 537 63 537 203 l 537 31 q 547 9 538 16 q 564 0 556 2 l 537 0 l 431 0 q 448 9 439 2 q 458 31 457 16 l 458 419 l 406 419 l 406 429 l 458 429 l 458 496 l 458 505 l 458 505 l 458 562 l 304 380 l 273 340 l 271 337 l 125 125 l 125 125 q 155 94 139 106 q 273 102 218 57 q 306 174 300 127 q 296 260 309 210 l 291 282 q 275 328 283 307 l 309 378 q 315 373 312 375 q 353 322 339 353 q 367 242 367 287 q 353 163 367 198 q 315 113 339 132 q 260 83 290 92 q 123 83 191 64 q 102 91 112 86 l 78 56 l 56 24 l 150 58 q 307 -23 252 39 q 360 -153 361 -85 q 348 -236 360 -191 q 299 -314 335 -280 q 191 -353 262 -347 q 14 -312 83 -359 q -107 -167 -54 -264 q -194 -83 -148 -97 q -290 -88 -240 -69 l -336 -193 q -299 -173 -330 -187 q -222 -156 -268 -158 q -126 -186 -176 -155 q -2 -259 -77 -221 q 160 -301 73 -297 q 248 -286 204 -301 q 323 -239 292 -271 q 354 -153 354 -206 q 323 -66 354 -98 q 244 -18 292 -34 q 144 4 197 -2 q 47 12 92 10 l 37 12 l 94 95 q 68 113 80 102 q 30 163 43 132 q 16 242 16 198 q 30 322 16 287 q 68 373 43 353 q 123 402 92 393 z "},"":{"ha":863,"x_min":-336,"x_max":812,"o":"m 254 365 l 254 365 q 184 407 224 403 q 114 386 145 411 q 77 311 83 361 q 86 227 75 276 q 116 140 98 177 l 254 365 m 440 650 l 440 650 l 121 132 q 125 125 123 128 q 176 83 147 94 q 233 81 205 73 q 306 174 295 98 q 296 260 309 210 l 291 282 q 264 349 279 321 l 290 390 q 353 322 332 368 q 367 242 367 287 q 353 163 367 198 q 315 113 339 132 q 260 83 290 92 q 123 83 191 64 q 98 93 109 87 l 54 23 l 150 58 q 307 -23 252 39 q 360 -153 361 -85 q 348 -236 360 -191 q 299 -314 335 -280 q 191 -353 262 -347 q 36 -325 98 -359 q -74 -220 -26 -290 q -126 -186 -103 -201 q -237 -157 -185 -150 q -317 -182 -289 -164 q -326 -186 -321 -184 q -336 -193 -334 -191 l -321 -160 l -315 -146 l -290 -88 q -194 -83 -240 -69 q -107 -167 -148 -97 q -74 -220 -91 -195 q 34 -275 -26 -250 q 160 -301 94 -299 q 248 -286 204 -301 q 323 -239 292 -271 q 354 -153 354 -206 q 321 -64 354 -97 q 239 -16 289 -32 q 136 5 190 -1 q 37 12 82 11 l 90 97 q 30 163 50 119 q 16 242 16 198 q 30 322 16 287 q 68 373 43 353 q 123 402 92 393 q 199 412 157 413 q 274 397 240 411 l 481 733 q 505 743 491 747 q 520 722 519 739 l 520 326 l 665 411 l 681 412 q 784 294 784 412 l 784 31 q 794 9 785 16 q 812 0 804 2 l 675 0 q 693 9 684 2 q 703 31 702 16 l 703 300 q 688 363 703 341 q 641 387 667 389 l 520 315 l 520 31 q 531 9 522 16 q 549 0 540 2 l 412 0 q 429 9 420 2 q 440 31 438 16 l 440 650 z "},"":{"ha":857,"x_min":-336,"x_max":854,"o":"m 255 365 l 255 365 q 157 406 212 417 l 157 406 l 154 406 l 153 405 l 151 405 l 150 404 q 101 373 121 397 q 77 311 81 349 q 87 227 75 276 q 117 140 98 177 l 255 365 m -106 -167 l -106 -167 q -73 -220 -90 -195 q 34 -275 -26 -250 q 161 -301 94 -299 q 249 -286 205 -301 q 324 -239 293 -271 q 355 -153 355 -206 q 324 -66 355 -98 q 245 -18 293 -34 q 145 4 197 -1 q 47 12 92 10 l 38 12 l 90 97 q 68 113 79 104 q 31 163 44 132 q 16 242 16 198 q 31 322 16 287 q 68 373 44 353 q 123 402 93 393 q 261 402 192 421 q 275 397 268 400 l 481 733 q 505 743 490 746 q 521 722 520 737 l 521 436 l 521 245 l 708 410 q 733 412 721 412 q 814 377 789 412 l 755 317 q 740 363 753 346 q 716 384 730 378 q 689 382 703 390 l 569 277 l 808 33 q 838 7 828 14 q 854 0 848 1 l 840 0 l 789 0 l 709 0 q 728 9 718 2 q 732 19 732 14 q 728 27 732 24 l 523 237 l 521 235 l 521 31 q 531 9 522 16 q 549 0 541 2 l 521 0 l 412 0 q 430 9 421 2 q 441 31 439 16 l 441 454 l 441 454 l 441 650 l 322 457 l 273 377 l 121 132 q 126 125 124 128 q 177 83 148 94 q 234 81 206 73 l 235 81 l 237 81 l 239 82 l 241 83 l 241 83 q 307 174 296 102 q 297 260 309 210 l 292 282 q 265 349 280 321 l 290 390 q 315 373 304 382 q 354 322 340 353 q 368 242 368 287 q 354 163 368 198 q 315 113 340 132 q 261 83 291 92 q 123 83 192 64 q 98 93 110 87 l 55 23 l 151 58 q 307 -23 252 39 q 361 -153 362 -85 q 348 -236 361 -191 q 299 -314 336 -280 q 191 -353 263 -347 q 37 -325 99 -359 q -73 -220 -26 -290 q -125 -186 -102 -201 q -221 -156 -176 -155 q -298 -173 -267 -158 q -336 -193 -330 -187 l -289 -88 q -193 -83 -239 -69 q -106 -167 -147 -97 z "},"":{"ha":600,"x_min":-341,"x_max":543,"o":"m 250 365 l 250 365 q 151 406 206 417 l 151 406 l 149 406 l 147 405 l 145 405 l 144 404 q 96 373 116 397 q 72 311 76 349 q 81 227 70 276 q 111 140 93 177 l 250 365 m 435 650 l 435 650 l 317 457 l 267 377 l 116 132 q 121 125 119 128 q 172 83 142 94 q 229 81 201 73 l 230 81 l 232 81 l 233 82 l 235 83 l 236 83 q 301 174 291 102 q 292 260 304 210 l 286 282 q 260 349 275 321 l 285 390 q 310 373 298 382 q 349 322 334 353 q 362 242 362 287 q 349 163 362 198 q 310 113 334 132 q 256 83 286 92 q 118 83 186 64 q 93 93 104 87 l 50 23 l 145 58 q 302 -23 247 39 q 355 -153 357 -85 q 343 -236 355 -191 q 294 -314 330 -280 q 186 -353 258 -347 q 31 -325 94 -359 q -79 -220 -31 -290 q -131 -186 -108 -201 q -227 -156 -181 -155 q -304 -173 -273 -158 q -341 -193 -335 -187 l -294 -88 q -199 -83 -245 -69 q -112 -167 -153 -97 q -79 -220 -96 -195 q 29 -275 -31 -250 q 155 -301 89 -299 q 243 -286 199 -301 q 318 -239 288 -271 q 349 -153 349 -206 q 318 -66 349 -98 q 240 -18 288 -34 q 139 4 192 -1 q 42 12 87 10 l 33 12 l 85 97 q 63 113 73 104 q 25 163 39 132 q 11 242 11 198 q 25 322 11 287 q 63 373 39 353 q 118 402 87 393 q 256 402 186 421 q 269 397 262 400 l 476 733 q 500 743 485 746 q 515 722 515 736 q 515 248 515 485 q 515 63 515 155 l 515 31 q 526 9 517 16 q 543 0 534 2 l 515 0 l 408 0 q 425 9 416 2 q 435 31 433 16 l 435 650 z "},"":{"ha":625,"x_min":-338,"x_max":585,"o":"m 114 140 l 114 140 l 252 365 q 154 406 209 417 l 154 406 q 151 406 153 406 q 150 405 151 406 q 148 404 149 405 q 147 404 148 404 q 147 404 147 404 q 99 373 119 397 q 75 311 79 349 q 84 227 73 276 q 114 140 96 177 m 557 63 l 557 63 q 557 165 557 134 q 557 217 557 197 q 557 269 557 238 q 557 372 557 300 q 546 399 557 387 q 519 412 534 412 q 509 410 513 412 l 509 410 q 501 406 505 409 l 497 404 l 402 347 l 419 347 l 450 365 q 473 367 465 374 q 479 356 477 363 q 481 331 481 349 l 481 31 q 471 9 479 16 q 454 0 463 2 l 557 0 l 585 0 q 568 9 576 2 q 557 31 559 16 l 557 63 m 121 402 l 121 402 q 258 402 189 421 q 272 397 265 400 l 306 452 q 417 514 340 514 q 485 493 460 514 l 505 475 l 444 435 l 431 453 q 419 465 424 460 q 399 486 406 480 q 382 492 392 492 q 342 481 358 493 q 314 449 326 469 l 286 403 l 119 132 q 123 125 121 128 q 174 83 145 94 q 231 81 203 73 l 233 81 q 235 81 233 81 q 236 82 235 82 q 238 83 237 83 l 239 83 q 304 174 294 102 q 294 260 307 210 l 289 282 q 262 349 277 321 l 288 389 q 313 373 301 382 q 351 322 337 353 q 365 242 365 287 q 351 163 365 198 q 313 112 337 132 q 258 83 288 92 q 121 83 189 64 q 96 93 107 87 l 74 58 l 52 23 l 148 58 q 304 -23 250 39 q 358 -153 359 -85 q 346 -236 358 -191 q 297 -314 333 -280 q 189 -353 260 -347 q 12 -312 81 -359 q -109 -167 -56 -264 q -196 -83 -150 -97 q -292 -89 -242 -69 l -338 -193 q -301 -173 -332 -187 q -224 -156 -270 -158 q -128 -186 -178 -155 q -4 -259 -79 -221 q 158 -301 71 -297 q 246 -286 202 -301 q 321 -239 290 -271 q 352 -153 352 -206 q 321 -66 352 -98 q 242 -18 290 -34 q 142 4 195 -1 q 45 12 90 10 l 35 12 l 87 97 q 66 112 76 104 q 28 163 41 132 q 14 242 14 198 q 28 322 14 287 q 66 373 41 353 q 121 402 90 393 z "},"":{"ha":451,"x_min":0,"x_max":409,"o":"m 126 296 l 126 296 l 121 293 l 121 275 l 121 31 q 121 1 121 16 q 255 80 209 25 q 305 206 300 135 q 305 274 305 240 q 289 338 305 315 q 243 361 269 363 l 126 296 m 121 481 l 121 481 l 121 458 l 121 458 l 121 324 l 121 303 l 126 306 l 237 368 q 267 385 252 376 q 275 386 269 386 q 283 386 280 386 q 385 268 385 386 q 385 206 385 237 q 314 78 376 133 q 136 -6 251 23 q 130 -7 132 -7 q 120 -10 125 -9 q 100 -35 115 -26 q 69 -37 86 -44 q 33 -17 51 -26 q 0 0 16 -9 q 9 0 5 0 q 36 4 31 -1 q 41 31 42 9 q 41 233 42 132 q 41 333 41 283 q 41 458 41 395 q 104 605 52 553 q 237 673 157 656 q 409 681 317 690 l 357 607 q 339 612 348 610 q 216 640 264 635 q 144 611 168 645 q 121 481 121 578 z "},"":{"ha":444,"x_min":0,"x_max":401,"o":"m 109 420 l 109 420 l 109 326 l 224 394 q 237 401 231 398 q 250 410 244 407 q 269 412 256 412 q 372 294 372 412 q 372 163 372 229 q 372 32 372 97 q 383 9 374 16 q 401 0 392 2 l 372 0 l 264 0 q 281 9 273 2 q 292 32 290 16 q 292 300 292 166 q 276 364 292 341 q 229 387 256 389 l 109 315 q 109 32 109 174 q 119 9 111 16 q 137 0 128 2 l 109 0 l 0 0 q 18 9 9 2 q 28 32 26 16 l 28 433 l 28 433 q 84 596 33 539 q 218 671 136 653 q 396 681 300 690 l 344 607 q 334 610 339 608 q 208 640 258 634 q 133 612 158 645 q 109 481 109 578 l 109 433 l 109 420 z "},"":{"ha":475,"x_min":0,"x_max":442,"o":"m 343 317 l 343 317 l 402 377 q 321 412 377 412 q 296 410 309 412 l 109 246 l 109 426 l 109 481 q 133 612 109 578 q 208 640 158 645 q 334 610 258 634 q 344 607 339 608 l 396 681 q 216 671 298 690 q 82 593 133 652 q 28 426 31 535 l 28 32 q 18 9 26 16 q 0 0 9 2 l 109 0 l 137 0 q 119 9 128 2 q 109 32 111 16 q 109 139 109 102 q 109 236 109 175 l 111 237 l 316 28 q 319 18 319 24 q 315 9 319 14 q 297 0 307 2 l 376 0 l 428 0 l 442 0 q 426 8 435 1 q 395 33 416 14 q 245 186 318 113 q 157 278 204 229 l 277 382 q 304 384 290 390 q 328 363 317 378 q 343 317 340 346 z "},"":{"ha":200,"x_min":0,"x_max":395,"o":"m 108 481 l 108 481 q 108 272 108 377 q 108 63 108 168 l 108 32 q 118 9 109 16 q 136 0 127 2 l 108 0 l 0 0 q 18 9 9 2 q 28 32 26 16 q 28 63 28 39 q 28 160 28 100 q 28 282 28 220 q 28 386 28 343 q 28 429 28 429 q 82 594 31 536 q 216 671 134 652 q 395 681 298 690 l 343 607 q 213 635 267 630 q 132 607 159 640 q 108 481 104 573 z "},"":{"ha":437,"x_min":0,"x_max":631,"o":"m 344 526 l 344 526 q 344 503 344 514 l 344 83 q 344 80 344 81 q 345 52 344 60 q 354 42 347 43 q 376 40 361 40 q 385 40 380 40 l 316 4 q 281 8 296 -5 q 264 41 265 21 l 264 62 l 264 83 l 264 93 l 264 113 l 264 395 q 80 209 90 349 l 80 112 q 96 48 80 71 q 142 25 117 23 l 264 93 l 264 83 l 149 18 l 119 1 q 111 0 116 1 q 102 0 106 0 q 0 118 0 0 l 0 209 q 264 412 19 357 l 264 503 q 327 649 274 598 q 459 717 379 701 q 631 725 538 734 q 605 688 618 707 q 579 651 592 670 q 447 684 502 677 q 366 657 393 691 q 344 526 339 623 z "},"":{"ha":848,"x_min":-1,"x_max":783,"o":"m 251 130 l 251 130 q 197 78 218 105 q 165 47 180 59 q 132 35 151 35 q 88 57 109 37 q 65 123 64 84 q 95 204 66 170 q 166 250 123 239 q 192 257 174 252 q 228 273 210 263 q 252 295 245 282 q 252 224 252 260 q 251 130 251 176 m 322 157 l 322 157 q 308 146 316 152 q 270 113 288 132 q 252 75 252 95 q 277 22 254 38 q 329 3 300 6 q 376 1 357 -1 q 339 20 351 5 q 325 54 327 35 q 322 96 322 74 l 322 157 m 248 380 l 248 380 q 250 304 271 345 q 217 275 238 284 q 163 261 191 266 q 144 258 153 260 q 43 209 84 245 q 0 106 3 173 q 23 31 -1 62 q 92 1 47 1 q 146 13 123 1 q 189 44 170 25 q 226 86 208 64 q 228 89 227 87 q 311 154 263 127 q 322 161 317 158 q 477 264 400 212 q 641 373 558 320 q 687 350 667 376 q 703 286 703 328 l 703 218 q 653 92 699 147 q 520 13 607 37 l 520 43 l 520 288 q 509 279 514 283 q 461 237 481 260 q 440 180 441 214 q 440 120 440 144 q 439 56 440 95 q 431 19 439 35 q 391 1 422 2 q 448 -19 412 -12 q 518 2 484 -26 q 528 5 523 3 q 534 6 530 5 q 712 90 649 35 q 783 218 774 145 l 783 280 q 681 398 783 398 q 673 398 678 398 q 665 397 667 398 l 635 380 l 520 304 l 520 670 q 509 699 520 685 q 482 712 497 712 q 473 710 477 712 q 465 706 469 709 q 465 705 465 706 l 312 616 l 329 616 l 410 665 q 420 668 415 667 q 431 665 425 668 q 439 650 437 660 q 439 631 440 640 q 439 629 439 630 q 439 345 439 488 q 439 253 439 302 l 322 175 l 322 284 q 301 368 322 337 q 246 410 279 398 q 174 418 212 422 q 85 404 124 416 q 9 359 45 391 l 9 273 q 14 280 11 276 q 72 354 31 309 q 174 413 113 399 q 248 380 226 419 z "},"":{"ha":844,"x_min":-1,"x_max":794,"o":"m 251 127 l 251 127 q 227 99 241 118 q 189 55 210 76 q 143 31 168 35 q 88 58 118 28 q 65 123 64 84 q 95 204 66 170 q 166 250 123 239 q 192 257 174 252 q 228 273 210 263 q 252 295 245 282 q 252 223 252 260 q 251 127 251 174 m 322 162 l 322 162 q 273 118 294 141 q 252 73 252 96 q 273 20 253 35 q 320 2 294 5 q 368 0 347 -1 q 376 1 372 1 q 339 20 351 6 q 325 54 327 35 q 322 96 322 74 l 322 162 m 503 293 l 503 293 q 496 288 499 290 q 438 235 454 254 q 422 184 422 216 l 422 32 q 412 9 420 17 q 394 1 403 2 l 503 1 l 531 1 q 513 9 522 2 q 503 32 504 17 l 503 293 m 248 380 l 248 380 q 250 304 271 345 q 217 275 238 284 q 163 261 191 266 q 144 258 153 260 q 43 209 84 245 q 0 107 3 173 q 23 31 -1 62 q 92 1 47 1 q 141 12 114 1 q 186 38 168 23 q 229 84 212 61 q 239 98 234 92 q 300 151 269 131 q 321 166 311 159 l 625 387 q 670 364 650 390 q 686 300 686 342 q 686 32 686 166 q 675 9 684 17 q 657 1 666 2 l 766 1 l 794 1 q 777 9 786 2 q 766 32 768 17 q 766 163 766 98 q 766 294 766 229 q 663 412 766 412 q 657 412 661 412 q 648 412 652 412 q 642 412 644 412 l 503 311 l 503 531 l 503 669 q 491 697 503 684 q 465 711 480 711 q 455 710 459 711 q 448 705 452 708 q 447 705 448 705 l 295 616 l 312 616 l 393 664 q 403 667 397 666 q 413 664 408 667 q 421 649 420 659 q 422 631 422 639 q 422 629 422 629 l 422 531 l 422 252 l 322 180 l 322 284 q 301 368 322 337 q 246 410 279 398 q 174 419 212 422 q 85 404 124 416 q 9 359 45 391 l 9 273 q 14 281 11 276 q 72 354 31 309 q 174 413 113 399 q 248 380 226 419 z "},"":{"ha":855,"x_min":-1,"x_max":851,"o":"m 251 102 l 251 102 q 232 85 243 97 q 192 54 215 70 q 142 35 170 38 q 88 57 113 33 q 65 122 64 84 q 95 204 66 170 q 166 250 123 238 q 192 257 174 251 q 228 272 210 262 q 252 295 245 282 q 252 215 252 260 q 251 102 251 151 m 322 131 l 322 131 q 266 80 280 100 q 260 41 252 60 q 310 4 276 10 q 371 0 345 -2 q 376 0 374 0 q 339 20 351 5 q 325 54 327 34 q 322 95 322 74 q 322 131 322 113 m 519 244 l 513 240 q 453 182 469 208 q 438 134 438 156 q 438 32 438 83 q 428 9 437 16 q 410 0 418 2 l 519 0 l 547 0 q 529 9 538 2 q 519 32 520 16 l 519 137 l 519 244 m 247 382 l 247 382 q 249 306 270 346 q 216 276 237 286 q 162 262 191 267 q 143 259 152 261 q 42 211 83 247 q -1 108 1 174 q 22 33 -1 63 q 92 2 46 2 q 154 19 113 2 q 235 75 194 37 q 286 114 259 96 q 344 147 309 128 q 490 229 375 161 q 520 248 505 239 q 623 139 571 195 q 725 29 674 82 q 728 20 729 25 q 725 12 728 15 q 707 1 715 3 l 786 1 l 837 1 l 851 1 q 835 9 845 3 q 804 35 825 16 q 688 159 743 98 q 566 288 631 221 l 686 385 q 713 385 700 391 q 736 366 726 379 q 752 318 749 348 l 812 379 q 730 414 786 414 q 705 412 718 414 l 518 264 q 518 532 518 404 l 518 670 q 507 698 518 685 q 480 712 495 711 q 471 710 475 712 q 463 706 467 709 q 463 705 463 706 l 310 616 l 327 616 l 408 665 q 418 667 413 667 q 429 665 423 668 q 437 649 435 659 q 437 631 438 640 q 437 629 437 630 l 437 532 l 437 532 l 437 209 l 321 147 q 321 286 321 216 q 300 369 321 338 q 245 411 279 399 q 173 420 212 423 q 84 405 123 418 q 8 360 45 392 l 8 274 q 13 281 10 277 q 71 356 30 311 q 174 414 113 401 q 247 382 225 420 z "},"":{"ha":1120,"x_min":-1,"x_max":1089,"o":"m 251 126 l 251 126 q 196 77 219 102 q 146 35 170 46 q 88 58 121 24 q 65 123 64 84 q 95 204 66 170 q 166 250 123 239 q 192 257 174 252 q 228 273 210 263 q 252 295 245 282 q 252 223 252 260 q 251 126 251 172 m 322 159 l 322 159 q 273 116 294 138 q 252 75 252 94 q 275 22 253 37 q 327 3 298 6 q 375 1 355 -1 q 376 1 376 1 q 339 20 351 6 q 325 54 327 35 q 322 96 322 74 l 322 159 m 534 32 l 534 32 l 534 302 q 527 296 530 299 q 477 252 500 276 q 454 195 454 227 l 454 32 q 443 9 452 17 q 425 1 434 2 l 534 1 l 562 1 q 544 9 553 2 q 534 32 535 17 m 798 313 l 798 313 q 740 269 762 292 q 717 222 717 247 q 717 32 717 125 q 706 9 715 17 q 689 1 697 2 l 798 1 l 826 1 q 808 9 817 2 q 798 32 799 17 l 798 313 m 248 380 l 248 380 q 250 304 271 345 q 217 275 238 284 q 163 261 191 266 q 144 258 153 260 q 43 209 84 245 q 0 107 3 173 q 23 31 -1 62 q 92 1 47 1 q 136 8 118 1 q 169 28 155 16 q 214 73 200 55 q 249 110 227 90 q 321 162 271 130 l 534 304 l 654 387 q 701 364 681 390 q 717 300 717 342 l 717 268 l 918 387 q 964 364 945 390 q 981 300 981 342 q 981 166 981 233 q 981 32 981 99 q 970 9 979 17 q 952 1 961 2 l 1061 1 l 1089 1 q 1072 9 1080 2 q 1061 32 1063 17 q 1061 294 1061 163 q 958 412 1061 412 q 942 412 950 412 l 942 412 l 942 412 l 913 394 l 913 394 l 795 325 l 795 325 q 694 412 783 412 q 683 412 690 412 q 671 412 675 412 q 589 357 628 385 q 534 319 563 338 l 534 370 q 516 403 532 390 q 481 407 500 416 l 412 370 q 420 370 416 370 q 444 369 437 371 q 452 358 451 367 q 454 330 454 350 q 454 328 454 330 l 454 267 l 322 179 l 322 284 q 301 368 322 337 q 246 410 279 398 q 174 419 212 422 q 85 404 124 416 q 9 359 45 391 l 9 273 q 14 281 11 276 q 72 354 31 309 q 174 413 113 399 q 248 380 226 419 z "},"":{"ha":859,"x_min":-1,"x_max":814,"o":"m 522 298 l 522 298 q 511 290 515 293 q 463 244 480 263 q 442 189 442 222 l 442 31 q 431 9 440 16 q 413 0 422 2 l 522 0 l 551 0 q 533 9 542 2 q 522 31 524 16 l 522 298 m 251 126 l 251 126 q 220 91 235 112 q 185 51 205 68 q 133 35 165 34 q 88 57 109 36 q 65 122 64 83 q 95 204 66 170 q 166 250 123 238 q 192 257 174 251 q 228 272 210 262 q 252 295 245 281 q 252 222 252 260 q 251 126 251 172 m 322 162 l 322 162 q 276 122 300 146 q 252 69 252 98 q 277 20 254 35 q 327 2 299 5 q 374 0 355 -1 q 389 0 389 0 q 339 20 351 5 q 325 54 327 34 q 322 95 322 74 l 322 162 m 705 301 l 705 301 q 705 167 705 234 q 705 33 705 100 q 694 10 703 18 q 677 1 686 3 l 785 1 l 814 1 q 796 10 805 3 q 785 33 787 18 q 785 163 785 98 q 785 295 785 229 q 683 413 785 413 q 680 413 682 413 q 667 413 674 413 q 655 412 659 413 l 522 315 l 522 371 q 505 403 520 390 q 469 408 489 416 l 400 371 q 409 371 405 371 q 432 370 425 372 q 440 359 439 368 q 441 331 441 351 q 441 329 441 330 l 441 259 l 321 186 l 321 284 q 300 368 321 338 q 245 411 279 399 q 173 419 212 422 q 84 404 123 416 q 8 359 45 391 l 8 273 q 13 281 10 277 q 71 355 30 310 q 174 414 113 400 q 247 381 225 419 q 250 305 271 345 q 217 275 238 285 q 162 262 191 267 q 143 258 152 260 q 43 210 83 246 q -1 107 2 174 q 23 32 -1 62 q 92 1 46 1 q 174 26 132 1 q 229 85 212 53 q 258 122 241 107 l 643 388 q 689 365 669 390 q 705 301 705 342 z "},"":{"ha":830,"x_min":-1,"x_max":766,"o":"m 251 126 l 251 126 q 220 91 235 112 q 185 51 205 68 q 133 35 165 34 q 88 57 109 36 q 65 122 64 83 q 95 204 66 170 q 166 250 123 238 q 192 257 174 251 q 228 272 210 262 q 252 295 245 281 q 252 222 252 260 q 251 126 251 172 m 322 165 l 322 165 q 276 123 300 149 q 252 69 252 98 q 277 20 254 35 q 327 2 299 5 q 374 0 355 -1 q 376 0 376 0 q 339 20 351 5 q 325 54 327 34 q 322 95 322 74 l 322 165 m 686 298 l 686 298 l 686 201 q 502 16 676 62 l 502 148 l 502 194 l 502 295 q 490 286 496 290 q 444 245 464 268 q 422 189 424 223 l 422 148 l 422 -308 q 411 -331 420 -323 q 393 -340 402 -338 l 502 -340 l 530 -340 q 512 -331 522 -338 q 502 -308 503 -323 l 502 -2 q 766 201 747 53 l 766 292 q 663 412 766 410 q 642 410 650 412 q 625 403 635 408 q 623 401 624 402 l 502 315 l 502 372 q 485 404 500 391 q 449 408 469 417 l 380 372 q 385 372 382 372 q 417 367 411 373 q 422 330 422 360 q 422 328 422 329 l 422 258 l 322 185 l 322 283 q 301 367 322 337 q 246 409 279 397 q 174 418 212 421 q 85 403 124 416 q 9 359 45 390 l 9 273 q 14 280 11 275 q 72 354 31 309 q 174 412 113 399 q 248 380 226 418 q 250 304 271 345 q 217 275 238 283 q 163 261 191 265 q 144 257 153 259 q 43 209 84 245 q 0 106 3 173 q 23 31 -1 62 q 92 0 47 0 q 174 25 132 0 q 229 84 213 52 q 258 121 241 106 l 623 385 q 669 362 649 387 q 686 298 686 339 z "},"":{"ha":727,"x_min":-1,"x_max":745,"o":"m 515 301 l 515 301 q 504 291 509 296 q 454 245 473 267 q 435 191 435 224 l 435 31 q 425 9 433 16 q 407 0 416 2 l 515 0 l 544 0 q 526 9 535 2 q 515 31 517 16 l 515 63 l 515 301 m 251 126 l 251 126 q 220 91 235 112 q 185 51 205 68 q 133 35 165 34 q 88 57 109 36 q 65 122 64 83 q 95 204 66 170 q 166 249 123 238 q 192 257 174 251 q 228 272 210 262 q 252 294 245 281 q 252 222 252 260 q 251 126 251 172 m 322 165 l 322 165 q 276 123 300 149 q 252 69 252 98 q 277 19 254 34 q 327 2 299 5 q 374 0 355 -1 q 376 0 376 0 q 339 20 351 5 q 325 54 327 34 q 322 95 322 74 l 322 165 m 690 351 l 690 351 l 745 391 q 676 412 720 412 q 593 381 631 412 l 515 318 l 515 371 q 499 405 515 391 q 463 409 483 418 l 394 373 q 396 373 395 373 q 431 367 425 374 q 435 330 437 360 q 435 328 435 329 l 435 258 l 322 184 l 322 283 q 301 367 322 337 q 246 409 279 397 q 174 418 212 421 q 85 403 124 416 q 9 358 45 390 l 9 272 q 14 280 11 275 q 72 354 31 309 q 174 412 113 399 q 248 380 226 418 q 250 304 271 345 q 217 275 238 283 q 163 260 191 265 q 144 257 153 259 q 43 209 84 245 q 0 106 3 173 q 23 31 -1 62 q 92 0 47 0 q 174 25 132 0 q 229 84 213 52 q 258 121 241 106 l 599 369 q 649 386 631 393 q 687 355 667 378 q 690 351 688 353 z "},"":{"ha":644,"x_min":-83,"x_max":605,"o":"m 578 63 l 578 63 q 578 165 578 134 q 578 217 578 197 q 578 269 578 237 q 578 372 578 300 q 566 399 578 387 q 540 412 554 412 q 519 404 528 412 q 517 404 519 404 l 422 347 l 439 347 l 470 365 q 493 366 485 374 q 499 356 497 363 q 502 331 502 349 l 502 31 q 491 9 500 16 q 475 0 483 2 l 578 0 l 605 0 q 588 9 597 2 q 578 31 579 16 l 578 63 m 526 447 l 526 447 l 567 500 q 490 540 525 541 q 413 499 455 538 l 125 252 l 125 530 l 125 668 q 114 696 125 683 q 87 710 102 710 q 78 708 82 710 q 71 704 75 707 q 69 703 70 704 l -83 614 l -66 614 l 16 663 q 25 666 20 665 q 35 663 31 666 q 44 648 42 658 q 45 629 45 637 q 45 627 45 628 l 45 530 l 45 530 l 45 31 q 34 9 43 16 q 16 0 25 2 l 125 0 l 153 0 q 136 9 144 2 q 125 31 127 16 q 125 138 125 102 q 125 235 125 174 l 127 237 l 332 27 q 336 18 336 24 q 332 9 336 13 q 313 0 323 2 l 393 0 l 444 0 l 458 0 q 442 7 452 1 q 412 33 432 14 q 252 197 329 117 q 173 277 215 235 l 426 492 q 475 495 454 517 l 526 447 z "},"":{"ha":640,"x_min":-80,"x_max":570,"o":"m 529 447 l 529 447 l 570 500 q 493 540 528 541 q 416 499 458 538 l 127 252 l 127 530 l 127 668 q 116 696 127 683 q 90 710 105 710 q 81 708 85 710 q 73 704 77 707 q 72 703 73 704 l -80 614 l -63 614 l 18 663 q 28 666 22 665 q 38 663 33 666 q 46 648 45 658 q 47 629 48 637 q 47 627 47 628 l 47 530 l 47 530 l 47 31 q 37 9 46 16 q 19 0 28 2 l 127 0 l 156 0 q 138 9 147 2 q 127 31 130 16 q 127 138 127 102 q 127 235 127 174 l 130 237 l 335 27 q 338 18 338 24 q 334 9 338 13 q 316 0 326 2 l 396 0 l 447 0 l 461 0 q 445 7 454 1 q 414 33 435 14 q 255 197 332 117 q 176 277 218 235 l 429 492 q 477 495 456 517 l 529 447 m 441 -155 l 441 -155 q 532 -110 495 -150 q 570 0 569 -70 l 570 47 l 570 63 l 570 86 l 570 86 l 570 169 l 570 173 l 570 174 q 570 217 570 199 q 570 269 570 237 q 570 372 570 300 q 558 399 570 387 q 532 412 547 412 q 522 410 526 412 l 522 410 q 514 406 519 409 l 510 404 l 415 347 l 432 347 l 463 365 q 486 366 477 374 q 492 356 490 363 q 494 331 494 349 l 494 181 l 494 31 l 494 0 q 481 -75 496 -43 q 433 -118 467 -106 q 370 -127 400 -127 q 317 -125 340 -127 q 311 -125 314 -125 q 252 -144 275 -123 q 216 -189 228 -165 q 202 -220 203 -213 l 195 -124 q 245 -79 216 -89 q 316 -102 273 -69 q 441 -155 382 -159 z "},"":{"ha":460,"x_min":-47,"x_max":447,"o":"m 66 522 l 66 522 q 34 503 45 522 q 35 543 32 524 q 90 636 44 599 q 192 665 137 671 q 286 615 247 659 q 321 513 323 569 q 278 413 319 456 l 278 413 q 178 373 237 375 l 177 373 l 177 363 l 186 363 l 236 363 l 236 118 q 339 -1 236 -1 q 355 1 347 -1 l 355 1 l 355 1 l 385 18 l 385 18 l 447 55 l 447 65 l 379 25 q 332 48 353 22 q 317 111 317 71 l 317 363 l 340 363 l 410 363 l 418 373 l 340 373 l 317 373 l 317 453 q 330 512 329 481 q 293 621 332 572 q 193 674 251 668 q 84 644 135 681 q 26 545 36 604 q 28 479 20 512 l 28 479 q 41 455 31 465 q 66 446 52 446 q 92 457 81 446 q 103 484 103 468 q 92 511 103 500 q 66 522 81 522 m 108 63 l 108 63 q 108 165 108 134 q 108 217 108 197 q 108 269 108 237 q 108 372 108 300 q 96 399 108 387 q 70 412 84 412 q 60 410 64 412 l 60 410 q 52 406 56 408 l 47 403 l -47 347 l -31 347 l 0 365 q 23 366 15 373 q 30 356 27 363 q 32 331 32 349 l 32 31 q 21 9 30 16 q 5 -1 13 1 l 108 -1 l 135 -1 q 118 9 127 1 q 108 31 109 16 l 108 63 z "},"":{"ha":648,"x_min":0,"x_max":629,"o":"m 299 353 l 299 353 q 299 353 299 353 l 299 353 m 44 240 l 44 240 q 92 203 63 219 q 151 175 121 188 q 185 159 169 168 q 250 104 233 136 q 245 35 267 71 q 184 11 225 7 q 105 43 144 14 q 56 123 67 72 l 0 71 q 74 18 25 40 q 172 -9 123 -5 q 262 12 220 -12 q 311 89 304 35 q 268 189 313 153 q 161 250 222 224 q 134 263 148 256 q 61 319 85 286 q 62 391 37 353 q 123 413 83 417 q 201 378 164 408 q 249 296 238 348 l 299 353 q 268 466 258 416 q 314 534 279 515 q 383 524 350 552 q 419 403 416 495 q 419 373 419 388 q 361 373 390 373 q 361 373 361 373 q 361 373 361 373 q 360 373 360 373 q 359 373 359 373 q 359 363 359 368 q 368 363 364 363 q 419 363 393 363 q 419 240 419 302 q 419 118 419 179 q 522 -1 419 -1 q 538 1 530 -1 l 538 1 q 538 1 538 1 q 551 8 545 5 q 567 18 559 13 l 567 18 q 594 34 581 26 q 629 55 612 44 q 629 65 629 60 q 598 47 614 56 q 562 25 580 36 q 515 48 536 22 q 499 111 499 71 q 499 363 499 237 q 522 363 511 363 q 592 363 557 363 q 596 368 594 366 q 600 373 598 370 q 522 373 562 373 q 499 373 511 373 l 499 399 l 499 399 l 499 399 l 499 399 l 499 399 l 499 399 l 499 399 l 499 399 l 499 399 l 499 399 l 499 399 l 499 399 l 499 399 l 499 399 l 499 399 l 499 399 l 499 399 l 499 399 l 499 399 l 499 399 l 499 399 l 499 399 l 499 399 l 499 399 l 499 399 l 499 400 l 499 400 l 499 400 l 499 400 l 499 400 l 499 400 l 499 400 l 499 400 l 499 400 l 499 400 l 499 400 l 499 400 l 499 400 l 499 400 l 499 400 l 499 400 l 499 400 l 499 400 l 499 400 l 499 400 l 499 400 l 499 400 l 499 401 l 499 401 l 499 401 l 499 401 l 499 401 l 499 401 l 499 401 l 499 401 l 499 401 l 499 401 l 499 401 l 499 401 l 499 401 l 499 401 l 499 401 l 499 401 l 499 401 l 499 401 l 499 401 l 499 401 l 499 401 l 499 401 l 499 401 q 454 526 497 490 q 358 555 412 562 q 269 506 304 547 q 246 397 233 464 q 144 427 198 425 q 52 397 91 429 q 33 374 41 386 q 19 308 18 346 q 44 240 21 269 z "},"":{"ha":878,"x_min":0,"x_max":810,"o":"m 98 144 l 98 144 q 212 229 155 187 q 317 307 264 269 q 294 350 306 333 q 194 407 252 408 q 135 391 163 408 q 75 290 84 362 q 98 144 72 228 m 130 401 l 130 401 q 193 412 159 410 q 349 361 287 418 q 360 349 355 355 q 370 336 365 343 q 260 254 315 296 q 100 136 180 195 q 134 62 115 90 q 196 17 161 26 q 265 18 231 8 q 355 80 312 36 q 439 176 398 123 q 467 209 453 193 q 467 228 467 219 q 467 271 467 251 q 467 318 467 292 q 467 629 467 460 q 467 631 467 630 q 465 649 467 640 q 457 665 464 659 q 447 668 452 668 q 437 665 441 667 l 356 616 l 339 616 l 491 705 q 492 706 492 706 q 499 710 496 709 q 509 712 503 712 q 535 699 524 712 q 547 670 547 685 l 547 281 l 662 380 q 683 394 674 391 q 707 398 691 398 q 810 280 810 398 l 810 218 q 739 90 801 145 q 560 6 676 35 q 554 5 557 5 q 545 2 549 3 q 525 -23 539 -14 q 494 -24 511 -32 l 425 12 q 433 12 429 12 q 461 16 455 12 q 467 43 467 21 q 467 94 467 71 q 467 144 467 117 q 486 194 467 169 q 534 250 504 218 q 547 264 541 257 l 547 43 l 547 13 q 680 92 633 37 q 730 218 726 147 l 730 286 q 714 350 730 328 q 667 373 694 376 q 613 326 642 351 q 469 193 532 261 q 433 148 452 173 q 356 60 398 102 q 267 5 315 18 q 130 12 195 -9 q 64 47 94 24 q 17 109 34 72 q 0 206 0 153 q 17 303 0 260 q 64 365 34 341 q 130 401 94 389 z "},"":{"ha":892,"x_min":0,"x_max":843,"o":"m 98 144 l 98 144 l 317 307 q 294 350 306 333 q 201 407 254 404 q 138 393 168 409 q 75 290 84 364 q 98 144 72 228 m 551 278 l 551 278 q 496 216 522 251 q 471 151 471 182 l 471 32 q 460 9 469 17 q 442 0 451 2 l 551 0 l 579 0 q 562 9 570 2 q 551 32 553 17 l 551 278 m 130 401 l 130 401 q 193 412 159 410 q 353 357 291 419 q 362 346 358 351 q 370 336 366 342 l 100 136 q 134 62 115 90 q 195 15 161 26 q 263 14 229 4 q 331 48 307 26 q 381 108 355 71 q 471 214 410 149 l 471 531 l 471 628 q 471 630 471 629 q 470 649 471 639 q 462 664 468 659 q 451 667 456 667 q 441 663 446 666 l 360 616 l 343 616 l 496 705 q 496 705 496 705 q 504 709 500 707 q 513 711 508 711 q 539 697 528 711 q 551 669 551 684 l 551 531 l 551 293 l 688 410 q 700 412 692 411 q 712 412 708 412 q 814 294 814 412 q 814 163 814 229 q 814 32 814 98 q 825 9 817 17 q 843 0 834 2 l 814 0 l 706 0 q 724 9 715 2 q 734 32 733 17 q 734 166 734 99 q 734 300 734 233 q 718 364 734 341 q 672 387 698 389 q 449 179 553 291 q 392 107 414 140 q 341 46 368 72 q 267 5 315 20 q 198 -1 235 -5 q 130 12 161 2 q 64 47 94 24 q 17 109 34 72 q 0 206 0 153 q 17 303 0 260 q 64 365 34 341 q 130 401 94 389 z "},"":{"ha":897,"x_min":0,"x_max":884,"o":"m 98 144 l 98 144 l 317 307 q 294 350 306 333 q 201 407 254 404 q 138 393 168 409 q 75 290 84 364 q 98 144 72 228 m 551 233 l 551 233 q 495 172 519 205 q 471 120 471 140 q 471 32 471 73 q 460 9 469 17 q 442 0 451 2 l 471 0 l 551 0 l 579 0 q 562 9 570 2 q 551 32 553 17 l 551 233 m 130 401 l 130 401 q 193 412 159 410 q 353 357 291 419 q 362 346 358 351 q 370 336 366 342 l 100 136 q 134 62 115 90 q 177 24 153 36 q 226 13 201 13 q 299 29 266 13 q 363 73 332 45 q 429 135 395 100 q 471 176 448 155 l 471 530 l 471 531 l 471 627 q 471 629 471 629 q 470 648 471 638 q 462 663 468 658 q 451 666 456 667 q 441 663 446 665 l 360 615 l 343 615 l 496 704 q 496 705 496 704 q 504 709 500 707 q 513 711 508 710 q 539 697 528 710 q 551 669 551 684 l 551 530 l 551 249 l 736 411 q 747 412 741 412 q 759 412 753 412 q 764 412 762 412 q 844 378 819 412 l 785 317 q 770 364 783 347 q 746 384 760 378 q 720 383 732 390 l 599 278 q 686 189 645 231 q 838 33 759 114 q 868 8 858 14 q 884 0 878 1 l 870 0 l 819 0 l 740 0 q 758 10 749 2 q 762 19 762 14 q 758 28 762 24 l 553 238 q 425 115 483 176 q 391 81 408 98 q 318 23 358 46 q 224 -2 278 1 q 130 12 174 -2 q 64 47 94 24 q 17 109 34 72 q 0 206 0 153 q 17 303 0 260 q 64 365 34 341 q 130 401 94 389 z "},"":{"ha":1192,"x_min":0,"x_max":1143,"o":"m 98 144 l 98 144 l 317 307 q 294 350 306 333 q 237 398 269 385 q 172 405 204 412 l 171 405 q 168 404 170 405 q 166 404 167 404 q 163 404 165 404 q 163 404 163 404 q 163 403 163 404 q 104 365 128 393 q 75 290 79 336 q 98 144 72 228 m 770 195 l 770 195 q 783 248 770 226 q 814 285 796 269 q 851 313 833 300 l 851 32 q 862 9 852 17 q 879 0 871 2 l 851 0 l 742 0 q 760 9 751 2 q 770 32 769 17 l 770 195 m 130 401 l 130 401 q 193 412 159 410 q 365 343 300 420 l 365 343 l 365 343 q 365 342 365 343 q 366 342 366 342 l 366 342 l 370 336 l 100 136 q 134 62 115 90 q 194 19 160 26 q 262 22 229 12 q 363 101 315 41 q 422 177 394 138 q 507 275 469 247 l 507 328 q 507 330 507 329 q 506 358 507 350 q 497 369 505 367 q 474 370 490 371 q 465 370 470 370 l 534 407 q 570 402 554 416 q 587 370 586 389 l 587 326 l 703 394 l 703 394 l 732 411 l 732 411 l 732 411 q 748 412 740 412 q 849 324 837 412 l 849 324 l 966 394 l 966 394 l 996 411 l 996 411 l 996 411 q 1012 412 1004 412 q 1114 294 1114 412 q 1114 32 1114 163 q 1125 9 1116 17 q 1143 0 1134 2 l 1114 0 l 1006 0 q 1024 9 1015 2 q 1034 32 1033 17 q 1034 166 1034 99 q 1034 300 1034 233 q 1018 364 1034 341 q 972 387 998 389 l 863 323 l 861 322 l 851 315 l 851 315 l 770 268 l 770 300 q 755 364 770 341 q 708 387 734 389 l 587 315 q 564 300 574 307 q 510 263 533 281 q 461 210 487 244 q 429 165 445 189 q 354 68 395 113 q 258 7 313 24 q 157 6 211 -5 q 64 47 102 18 q 17 109 34 72 q 0 206 0 153 q 17 303 0 260 q 64 365 34 341 q 130 401 94 389 m 587 32 l 587 32 l 587 311 q 525 258 543 281 q 507 196 507 235 l 507 32 q 496 9 505 17 q 479 0 488 2 l 587 0 l 616 0 q 598 9 607 2 q 587 32 589 17 z "},"":{"ha":912,"x_min":0,"x_max":859,"o":"m 98 144 l 98 144 l 317 307 q 294 350 306 333 q 237 398 269 385 q 172 405 204 412 l 171 405 q 168 404 170 405 q 166 404 167 404 q 163 404 165 404 q 163 404 163 404 q 163 403 163 404 q 104 365 128 393 q 75 290 79 336 q 98 144 72 228 m 728 412 l 728 412 q 794 394 772 412 q 824 345 817 376 q 831 277 831 314 l 831 32 q 841 9 832 17 q 859 0 850 2 l 831 0 l 722 0 q 740 9 730 2 q 750 32 749 17 l 750 300 q 734 364 750 341 q 688 387 714 389 l 567 309 q 531 280 554 300 q 488 239 507 260 q 432 165 469 217 q 354 68 395 113 q 258 7 313 24 q 157 6 211 -5 q 64 47 102 18 q 17 109 34 72 q 0 206 0 153 q 17 303 0 260 q 64 365 34 341 q 130 401 94 389 q 193 412 159 410 q 365 343 300 420 l 365 343 l 365 343 q 365 342 365 343 q 366 342 366 342 l 366 342 l 370 336 l 100 136 q 134 62 115 90 q 194 19 160 26 q 262 22 229 12 q 363 101 315 41 q 429 184 394 138 q 487 262 464 231 l 487 315 q 487 317 487 315 q 486 358 487 350 q 477 369 484 367 q 454 370 470 371 q 445 370 450 370 l 514 407 q 550 402 534 416 q 567 370 566 389 l 567 319 l 682 394 l 682 394 l 711 411 l 711 411 l 711 411 q 728 412 720 412 m 567 32 l 567 32 l 567 304 q 513 251 540 281 q 487 182 487 221 l 487 32 q 476 9 485 17 q 458 0 467 2 l 567 0 l 595 0 q 577 9 587 2 q 567 32 568 17 z "},"":{"ha":907,"x_min":0,"x_max":843,"o":"m 98 144 l 98 144 l 317 307 q 294 350 306 333 q 237 398 269 385 q 172 405 204 412 l 171 405 q 168 404 170 405 q 166 404 167 404 q 163 404 165 404 q 163 404 163 404 q 163 403 163 404 q 104 365 128 393 q 75 290 79 336 q 98 144 72 228 m 130 401 l 130 401 q 193 412 159 410 q 365 343 300 420 l 365 343 l 365 343 q 365 342 365 343 q 366 342 366 342 l 366 342 l 370 336 l 100 136 q 134 62 115 90 q 196 13 161 25 q 265 9 231 0 q 363 67 332 30 q 414 150 394 105 q 448 211 429 180 q 499 267 467 241 l 499 330 q 499 332 499 331 q 498 360 500 352 q 490 371 496 369 q 467 372 483 372 q 458 372 463 372 l 527 408 q 562 404 547 417 q 579 372 578 391 l 579 320 l 724 411 l 724 411 l 724 411 q 741 412 732 412 q 843 294 843 412 l 843 203 q 579 0 824 55 l 579 -306 q 590 -329 581 -321 q 608 -338 599 -336 l 579 -338 l 471 -338 q 489 -329 479 -336 q 499 -306 498 -321 l 499 198 q 522 254 499 230 q 579 303 545 279 l 579 18 q 763 203 753 64 l 763 300 q 747 364 763 341 q 701 387 726 389 l 500 255 q 456 205 473 233 q 425 149 439 178 q 371 62 404 102 q 267 5 338 22 q 130 12 195 -9 q 64 47 94 24 q 17 109 34 72 q 0 206 0 153 q 17 303 0 260 q 64 365 34 341 q 130 401 94 389 z "},"":{"ha":783,"x_min":0,"x_max":775,"o":"m 98 144 l 98 144 l 317 307 q 294 350 306 332 q 237 398 269 385 q 172 405 204 412 l 171 405 q 168 404 170 405 q 166 404 167 404 q 163 404 165 404 q 163 403 163 403 q 163 403 163 403 q 104 364 128 393 q 75 290 79 335 q 98 144 72 227 m 546 63 l 546 63 q 546 147 546 93 q 546 247 546 201 q 546 287 546 279 q 535 274 541 280 q 485 209 505 237 q 466 155 466 180 l 466 32 q 455 9 464 16 q 437 0 446 2 l 546 0 l 574 0 q 556 9 566 2 q 546 32 547 16 l 546 63 m 130 400 l 130 400 q 193 412 159 410 q 365 343 300 420 l 365 343 l 365 343 q 365 342 365 342 q 366 341 366 342 l 366 341 l 370 336 l 100 136 q 134 62 115 90 q 199 14 161 25 q 265 12 236 3 q 356 74 317 28 q 429 169 396 119 q 466 221 448 197 l 466 328 q 466 330 466 329 q 465 358 466 350 q 456 369 463 367 q 433 370 449 370 q 424 370 429 370 l 493 406 q 529 402 513 415 q 546 368 545 389 l 546 304 q 599 357 572 330 q 624 382 612 369 q 662 405 640 398 q 707 412 684 412 q 775 391 750 412 l 721 351 q 709 363 714 358 q 689 384 696 378 q 672 390 682 390 q 627 372 645 392 l 546 292 l 477 220 q 429 153 454 193 q 360 61 399 104 q 266 2 321 17 q 130 12 195 -10 q 64 47 94 23 q 17 109 34 71 q 0 206 0 152 q 17 303 0 260 q 64 365 34 340 q 130 400 94 389 z "},"":{"ha":439,"x_min":0,"x_max":391,"o":"m 325 422 l 325 422 l 372 479 q 284 491 323 504 q 225 456 245 478 q 174 399 204 434 q 121 344 143 366 l 121 366 q 105 399 121 386 q 69 404 89 413 l 0 368 q 9 368 5 368 q 32 366 25 368 q 40 356 39 364 q 41 328 42 347 q 41 326 41 326 l 41 29 q 31 7 40 14 q 13 -3 22 -1 l 121 -3 l 150 -3 q 132 7 141 -1 q 121 29 123 14 l 121 60 l 121 326 l 204 419 q 269 449 236 450 q 325 422 302 448 m 364 60 l 364 60 q 364 162 364 132 q 364 214 364 193 q 364 264 364 233 q 364 366 364 295 q 352 393 364 381 q 326 406 340 406 q 314 404 319 406 q 303 397 309 401 l 208 341 l 226 341 l 256 359 q 279 361 271 368 q 286 350 283 357 q 288 326 288 342 l 288 29 q 278 7 286 14 q 260 -3 269 -1 l 364 -3 l 391 -3 q 374 7 382 -1 q 364 29 366 14 l 364 60 z "},"":{"ha":697,"x_min":0,"x_max":657,"o":"m 549 298 l 549 298 q 549 29 549 163 q 538 7 547 14 q 520 -3 529 -1 l 629 -3 l 657 -3 q 640 7 648 -1 q 629 29 631 14 q 629 160 629 95 q 629 292 629 226 q 526 410 629 410 q 510 408 518 410 l 510 408 l 510 408 l 481 391 l 481 391 l 366 323 l 366 368 q 348 400 364 387 q 313 404 332 413 l 243 368 q 252 368 248 368 q 275 366 269 368 q 284 356 282 364 q 285 328 286 347 q 285 326 285 326 q 285 29 285 177 q 275 7 283 14 q 257 -3 266 -1 l 366 -3 l 394 -3 q 376 7 385 -1 q 366 29 367 14 q 366 313 366 171 l 486 385 q 532 361 513 387 q 549 298 549 338 m 325 422 l 325 422 l 372 479 q 284 491 323 504 q 225 456 245 478 q 174 399 204 434 q 121 344 143 366 l 121 366 q 105 399 121 386 q 69 404 89 413 l 0 368 q 9 368 5 368 q 32 366 25 368 q 40 356 39 364 q 41 328 42 347 q 41 326 41 326 l 41 29 q 31 7 40 14 q 13 -3 22 -1 l 121 -3 l 150 -3 q 132 7 141 -1 q 121 29 123 14 l 121 60 l 121 326 l 204 419 q 269 449 236 450 q 325 422 302 448 z "},"":{"ha":963,"x_min":0,"x_max":921,"o":"m 325 422 l 325 422 l 372 479 q 284 491 323 504 q 225 456 245 478 q 174 399 204 434 q 121 344 143 366 l 121 366 q 105 399 121 386 q 69 404 89 413 l 0 368 q 9 368 5 368 q 32 366 25 368 q 40 356 39 364 q 41 328 42 347 q 41 326 41 326 l 41 29 q 31 7 40 14 q 13 -3 22 -1 l 121 -3 l 150 -3 q 132 7 141 -1 q 121 29 123 14 l 121 60 l 121 326 l 204 419 q 269 449 236 450 q 325 422 302 448 m 366 29 l 366 29 q 366 313 366 171 l 486 385 q 532 361 513 387 q 549 298 549 338 q 549 29 549 163 q 538 7 547 14 q 520 -3 529 -1 l 629 -3 l 657 -3 q 640 7 648 -1 q 629 29 631 14 q 629 313 629 171 l 750 385 q 796 361 776 387 q 812 298 812 338 q 812 163 812 231 q 812 29 812 96 q 802 7 811 14 q 784 -3 793 -1 l 892 -3 l 921 -3 q 903 7 912 -1 q 892 29 895 14 q 892 292 892 160 q 790 410 892 410 q 774 408 782 410 l 774 408 l 774 408 l 745 391 l 745 391 l 627 321 l 627 321 q 526 410 615 410 q 510 408 518 410 l 510 408 l 510 408 l 481 391 l 481 391 l 366 323 l 366 368 q 348 400 364 387 q 313 404 332 413 l 243 368 q 252 368 248 368 q 275 366 269 368 q 284 356 282 364 q 285 328 286 347 q 285 326 285 326 q 285 29 285 177 q 275 7 283 14 q 257 -3 266 -1 l 366 -3 l 394 -3 q 376 7 385 -1 q 366 29 367 14 z "},"":{"ha":722,"x_min":-1,"x_max":703,"o":"m 577 127 l 577 127 q 541 73 563 96 q 478 34 513 41 q 414 54 443 26 q 391 119 391 81 q 420 201 392 167 q 492 247 449 235 q 518 255 500 249 q 553 270 536 260 q 577 292 571 279 q 577 221 577 258 q 577 127 577 173 m 23 243 l 23 243 q 109 186 56 208 q 86 165 98 176 q 34 110 55 137 q 21 57 13 83 q 86 9 29 32 q 144 -2 114 -1 q 229 18 189 -5 q 275 94 269 41 q 252 172 277 142 q 189 224 228 203 q 135 174 161 200 q 156 163 146 169 q 217 109 201 141 q 213 41 233 76 q 161 8 194 12 q 98 27 127 4 q 77 113 53 66 q 155 211 100 159 q 229 271 173 229 q 356 353 286 313 q 486 406 426 393 q 574 378 547 418 q 576 302 597 342 q 543 272 564 281 q 488 258 517 262 q 470 255 479 256 q 369 207 410 243 q 326 104 328 170 q 349 28 326 59 q 418 -3 373 -3 q 498 25 458 -3 q 549 72 528 46 q 577 113 570 97 q 577 76 577 94 q 602 20 579 37 q 652 0 624 3 q 700 -3 680 -3 q 703 -3 701 -3 q 665 17 676 3 q 650 51 653 31 q 648 92 648 71 l 648 281 q 620 391 648 357 q 545 426 591 424 q 444 409 499 429 q 335 359 389 390 q 235 295 280 328 q 163 238 190 262 q 134 253 149 246 q 109 266 121 260 q 39 322 62 289 q 39 392 16 355 q 127 406 70 428 q 212 319 185 385 l 264 354 q 151 424 220 408 q 31 398 81 439 q 13 375 20 387 q 0 310 -1 348 q 23 243 2 272 z "},"":{"ha":1087,"x_min":0,"x_max":1056,"o":"m 989 218 l 989 218 q 989 211 989 214 q 986 158 990 183 q 960 104 981 134 q 810 30 899 30 q 721 53 763 30 q 654 115 680 75 q 634 186 637 144 q 632 270 631 228 q 632 294 632 282 q 632 425 632 359 q 632 555 632 490 q 610 593 632 579 q 567 593 589 606 l 485 545 l 505 545 q 516 548 510 547 q 528 545 523 549 q 538 527 536 538 q 539 505 540 515 q 539 503 539 504 q 539 436 539 460 q 539 393 539 412 q 539 351 539 375 q 539 284 539 327 q 539 262 539 273 q 544 170 538 211 q 579 94 550 129 q 666 25 616 50 q 773 1 716 1 q 883 23 831 1 q 971 91 935 45 q 1003 151 998 125 q 1007 210 1009 177 q 1007 217 1007 214 l 1007 665 q 1016 691 1007 682 q 1037 705 1025 701 q 1056 712 1048 710 l 998 712 l 940 712 q 972 697 954 709 q 989 665 989 686 l 989 218 m 362 0 l 362 0 l 395 0 q 375 11 385 3 q 362 37 364 20 q 362 370 362 203 q 362 703 362 536 l 508 703 q 566 680 535 703 q 621 635 597 658 q 632 626 627 630 l 632 712 l 470 712 q 270 712 370 712 q 162 712 216 712 l 0 712 l 0 626 q 11 635 5 630 q 66 680 35 658 q 124 703 97 703 l 270 703 l 270 703 q 270 370 270 536 q 270 37 270 203 q 257 11 268 20 q 237 0 247 3 l 270 0 l 362 0 z "},"":{"ha":722,"x_min":0,"x_max":696,"o":"m 147 37 l 147 37 q 147 238 147 138 q 147 671 147 454 q 127 707 146 696 q 87 707 108 718 l 0 656 l 20 656 q 32 659 25 659 q 44 656 38 660 q 53 638 52 650 q 55 616 55 626 q 55 614 55 615 q 55 161 55 387 q 55 37 55 99 q 42 11 53 20 q 22 0 32 3 l 147 0 l 418 0 q 598 54 528 1 l 513 54 q 419 9 470 17 l 187 10 q 184 10 186 10 q 169 11 177 9 q 154 18 160 12 q 147 37 147 24 m 363 191 l 363 191 q 363 368 363 302 q 364 496 364 431 q 363 661 364 561 q 344 697 363 686 q 303 696 325 708 l 216 646 l 237 646 q 248 649 241 648 q 260 646 254 650 q 270 628 268 640 q 271 606 271 616 q 271 604 271 605 q 271 464 271 517 q 271 362 271 412 q 271 191 271 300 q 259 164 269 173 q 238 153 248 156 l 363 153 l 517 153 q 696 208 626 155 l 610 208 q 517 163 568 170 l 404 163 q 401 163 403 163 q 385 164 394 163 q 370 171 376 165 q 363 191 363 177 z "},"":{"ha":926,"x_min":0,"x_max":902,"o":"m 362 0 l 362 0 l 395 0 q 375 11 385 3 q 362 37 364 20 l 362 695 q 393 703 378 703 l 451 703 l 508 703 q 539 695 523 703 l 539 37 q 527 11 537 20 q 507 0 517 3 l 539 0 l 632 0 l 665 0 q 644 11 654 3 q 632 37 634 20 l 632 626 l 632 703 l 777 703 q 835 680 804 703 q 890 635 866 658 q 902 626 897 630 l 902 712 l 740 712 q 539 712 640 712 q 451 712 495 712 q 270 712 360 712 q 162 712 216 712 l 0 712 l 0 626 q 11 635 5 630 q 66 680 35 658 q 124 703 97 703 l 270 703 l 270 626 l 270 626 l 270 37 q 257 11 268 20 q 237 0 247 3 l 270 0 l 362 0 z "},"":{"ha":519,"x_min":0,"x_max":489,"o":"m 125 409 l 125 409 l 125 542 l 361 542 q 391 529 380 542 q 404 502 401 516 l 404 551 l 404 600 q 393 574 402 587 q 361 560 384 560 l 125 560 l 125 684 l 110 703 l 292 703 q 333 696 313 702 q 402 658 370 684 l 489 658 q 463 674 477 667 q 345 710 408 703 q 292 712 319 713 q 143 712 237 712 q 0 712 50 712 q 21 701 10 709 q 33 675 31 692 q 33 587 33 613 q 33 551 33 560 q 33 537 33 543 q 33 520 33 532 q 33 484 33 509 q 33 409 33 458 q 21 382 31 391 q 0 372 10 374 l 125 372 l 305 372 q 485 426 414 373 l 399 426 q 307 381 357 389 l 279 381 q 274 381 278 381 q 222 382 257 381 q 156 390 187 384 q 125 409 125 395 m 125 37 l 125 37 l 125 170 l 361 170 q 391 157 380 170 q 404 130 401 144 l 404 179 l 404 229 q 393 202 402 216 q 361 189 384 189 l 125 189 l 125 312 l 111 332 l 292 332 q 333 324 313 330 q 402 286 370 313 l 489 286 q 463 302 477 295 q 345 338 408 332 q 292 340 319 341 q 143 340 237 340 q 0 340 50 340 q 21 330 10 338 q 33 303 31 321 q 33 215 33 241 q 33 180 33 189 q 33 166 33 172 q 33 149 33 161 q 33 113 33 137 q 33 37 33 87 q 21 11 31 20 q 0 0 10 3 l 125 0 l 305 0 q 485 54 414 1 l 399 54 q 307 9 357 17 l 165 9 q 163 9 164 9 q 147 11 155 9 q 132 18 138 12 q 125 37 125 24 z "},"":{"ha":904,"x_min":0,"x_max":857,"o":"m 149 295 l 149 295 q 224 321 191 310 q 353 373 304 347 q 420 442 398 399 q 439 534 441 485 q 380 661 432 619 q 250 710 328 703 q 197 712 224 712 q 0 712 98 712 q 21 701 10 709 q 33 675 31 692 q 33 37 33 356 q 21 11 31 20 q 0 0 10 2 q 77 0 31 0 q 158 0 123 0 q 134 16 141 5 q 125 37 126 26 q 125 51 125 44 q 125 58 125 55 q 125 111 125 84 l 125 290 q 210 212 159 275 q 308 112 251 164 q 441 27 364 60 q 622 3 519 -6 q 857 87 724 12 l 751 180 q 588 66 665 89 q 447 65 512 43 q 327 133 381 87 q 229 224 272 178 q 149 295 182 272 m 255 696 l 255 696 q 340 617 313 671 q 363 505 367 564 q 327 405 359 446 q 298 378 317 393 q 239 345 279 363 q 125 301 199 327 q 125 486 125 380 q 125 669 125 591 q 124 680 125 673 q 118 694 122 688 q 104 703 113 701 q 160 703 127 703 q 214 703 192 703 q 255 696 235 703 m 566 243 l 566 243 l 566 441 l 726 441 q 756 428 745 441 q 769 401 766 414 l 769 450 l 769 498 q 758 472 767 486 q 726 458 749 458 l 566 458 l 566 662 l 550 686 l 658 686 q 699 679 678 685 q 767 641 735 668 l 854 641 q 828 657 842 650 q 710 693 773 686 q 658 695 684 696 q 440 695 538 695 q 460 684 450 692 q 473 658 471 675 q 473 559 473 599 q 473 463 473 503 q 473 375 473 424 q 473 243 473 327 q 460 216 471 224 q 440 205 450 208 l 566 205 l 670 205 q 850 259 780 206 l 764 259 q 671 214 722 222 l 645 215 q 641 215 643 215 q 613 216 630 214 q 581 223 595 218 q 566 243 566 229 z "},"":{"ha":926,"x_min":0,"x_max":913,"o":"m 149 295 l 149 295 q 224 321 191 310 q 353 373 304 347 q 420 442 398 399 q 439 534 441 485 q 380 661 432 619 q 250 710 328 703 q 197 712 224 712 q 0 712 98 712 q 21 701 10 709 q 33 675 31 692 q 33 37 33 356 q 21 11 31 20 q 0 0 10 2 q 77 0 31 0 q 158 0 123 0 q 134 16 141 5 q 125 37 126 26 q 125 51 125 44 q 125 58 125 55 q 125 111 125 84 l 125 290 q 210 212 159 275 q 308 112 251 164 q 441 27 364 60 q 622 3 519 -6 q 857 87 724 12 l 751 180 q 588 66 665 89 q 447 65 512 43 q 327 133 381 87 q 229 224 272 178 q 149 295 182 272 m 255 696 l 255 696 q 340 617 313 671 q 363 505 367 564 q 327 405 359 446 q 298 378 317 393 q 239 345 279 363 q 125 301 199 327 q 125 486 125 380 q 125 669 125 591 q 124 680 125 673 q 118 694 122 688 q 104 703 113 701 q 160 703 127 703 q 214 703 192 703 q 255 696 235 703 m 610 690 l 610 690 q 835 652 741 733 q 788 606 816 634 q 778 624 783 616 q 711 684 748 669 q 667 691 691 691 q 622 684 642 691 q 545 557 556 654 q 563 416 542 498 q 614 284 583 334 q 674 229 640 246 q 743 216 708 212 q 744 216 744 216 q 744 216 745 216 q 744 216 744 216 q 744 216 744 216 q 743 216 743 216 q 742 216 743 216 q 742 216 742 216 q 743 216 743 216 q 810 264 787 226 q 836 349 833 302 q 838 390 838 365 q 835 436 839 415 q 717 437 773 437 l 713 444 l 898 444 l 910 444 q 911 387 913 416 q 902 338 908 359 q 848 259 885 288 q 772 216 814 230 q 691 205 729 202 q 610 223 652 209 q 508 309 545 247 q 463 444 471 371 q 479 574 456 517 q 533 648 498 619 q 610 690 567 677 z "},"":{"ha":859,"x_min":0,"x_max":857,"o":"m 149 295 l 149 295 q 224 321 191 310 q 353 373 304 347 q 420 442 398 399 q 439 534 441 485 q 380 661 432 619 q 250 710 328 703 q 197 712 224 712 q 0 712 98 712 q 21 701 10 709 q 33 675 31 692 q 33 37 33 356 q 21 11 31 20 q 0 0 10 2 q 77 0 31 0 q 158 0 123 0 q 134 16 141 5 q 125 37 126 26 q 125 51 125 44 q 125 58 125 55 q 125 111 125 84 l 125 290 q 210 212 159 275 q 308 112 251 164 q 441 27 364 60 q 622 3 519 -6 q 857 87 724 12 l 751 180 q 588 66 665 89 q 447 65 512 43 q 327 133 381 87 q 229 224 272 178 q 149 295 182 272 m 255 696 l 255 696 q 340 617 313 671 q 363 505 367 564 q 327 405 359 446 q 298 378 317 393 q 239 345 279 363 q 125 301 199 327 q 125 485 125 387 q 125 669 125 584 q 124 680 125 673 q 118 694 122 688 q 104 703 113 701 q 160 703 127 703 q 214 703 192 703 q 255 696 235 703 m 471 653 l 471 653 q 465 539 437 595 q 542 450 493 484 q 604 415 565 435 q 691 367 648 393 q 752 309 734 340 q 743 241 771 277 q 669 221 718 215 q 575 260 620 227 q 517 345 530 293 l 455 279 q 537 216 482 241 q 653 191 592 191 q 760 224 715 190 q 792 269 781 241 q 801 325 804 298 q 731 435 789 391 q 609 511 673 479 q 522 566 553 540 q 488 616 493 590 q 509 670 484 652 q 570 685 534 688 q 665 646 618 680 q 725 555 711 611 l 777 623 q 624 707 702 696 q 494 677 546 718 q 471 653 480 666 z "},"":{"ha":915,"x_min":0,"x_max":901,"o":"m 149 295 l 149 295 q 224 321 191 310 q 353 373 304 347 q 420 442 398 399 q 439 534 441 485 q 380 661 432 619 q 250 710 328 703 q 197 712 224 712 q 0 712 98 712 q 21 701 10 709 q 33 675 31 692 q 33 37 33 356 q 21 11 31 20 q 0 0 10 2 q 77 0 31 0 q 158 0 123 0 q 134 16 141 5 q 125 37 126 26 q 125 51 125 44 q 125 58 125 55 q 125 111 125 84 l 125 290 q 210 212 159 275 q 308 112 251 164 q 441 27 364 60 q 622 3 519 -6 q 857 87 724 12 l 751 180 q 588 66 665 89 q 447 65 512 43 q 327 133 381 87 q 229 224 272 178 q 149 295 182 272 m 255 696 l 255 696 q 340 617 313 671 q 363 505 367 564 q 327 405 359 446 q 298 378 317 393 q 239 345 279 363 q 125 301 199 327 q 125 482 125 380 q 125 669 125 584 q 124 680 125 673 q 118 694 122 688 q 104 703 113 701 q 160 703 127 703 q 214 703 192 703 q 255 696 235 703 m 625 667 l 625 667 q 564 623 589 656 q 533 537 538 590 q 549 404 530 481 q 595 279 568 326 q 659 221 623 236 q 732 218 696 207 l 733 218 q 735 219 734 218 q 737 220 736 219 q 740 220 739 220 l 741 221 q 796 266 773 234 q 823 347 819 298 q 811 466 826 397 l 804 497 q 762 606 786 566 q 702 662 736 646 q 634 669 668 677 l 633 669 q 630 669 631 669 q 628 668 629 669 q 626 667 627 668 q 625 667 625 667 q 625 667 625 667 m 591 664 l 591 664 q 766 664 678 691 q 835 623 804 651 q 883 553 865 596 q 901 443 901 504 q 883 332 901 381 q 835 262 865 289 q 766 220 804 234 q 591 220 678 194 q 522 262 553 234 q 473 332 491 289 q 456 443 456 381 q 473 553 456 504 q 522 623 491 596 q 591 664 553 651 z "},"":{"ha":892,"x_min":0,"x_max":882,"o":"m 149 295 l 149 295 q 224 321 191 310 q 353 373 304 347 q 420 442 398 399 q 439 534 441 485 q 380 661 432 619 q 250 710 328 703 q 197 712 224 712 q 0 712 98 712 q 21 701 10 709 q 33 675 31 692 q 33 37 33 356 q 21 11 31 20 q 0 0 10 2 q 72 0 28 0 q 112 0 92 0 q 158 0 138 0 q 134 16 141 5 q 125 37 126 26 q 125 51 125 44 q 125 58 125 55 q 125 111 125 84 l 125 290 q 210 212 159 275 q 308 112 251 164 q 441 27 364 60 q 622 3 519 -6 q 857 87 724 12 l 751 180 q 588 66 665 89 q 447 65 512 43 q 327 133 381 87 q 229 224 272 178 q 149 295 182 272 m 255 696 l 255 696 q 340 617 313 671 q 363 505 367 564 q 327 405 359 446 q 298 378 317 393 q 239 345 279 363 q 125 301 199 327 q 125 397 125 345 q 125 669 125 555 q 124 680 125 673 q 118 694 122 688 q 104 703 113 701 q 160 703 127 703 q 214 703 192 703 q 255 696 235 703 m 826 379 l 826 379 q 793 264 826 309 q 689 220 760 220 q 620 248 649 220 q 578 315 590 276 q 570 422 567 365 q 570 443 570 433 q 570 548 570 498 q 570 653 570 600 q 552 686 570 674 q 515 686 534 696 l 446 644 l 463 644 q 473 647 467 647 q 483 645 478 648 q 491 630 490 640 q 492 611 492 620 q 492 609 492 610 q 492 538 492 578 q 492 501 492 512 q 492 488 492 492 q 492 482 492 484 q 492 475 492 479 q 492 461 492 471 q 492 435 492 452 q 492 416 492 425 q 505 306 488 353 q 575 225 528 255 q 689 196 622 196 q 804 253 766 199 q 841 378 842 307 l 841 642 q 849 663 841 655 q 866 675 857 671 q 882 681 876 679 l 833 681 l 785 681 q 811 668 797 678 q 826 642 826 659 l 826 379 z "},"":{"ha":667,"x_min":0,"x_max":621,"o":"m 147 38 l 147 38 q 147 239 147 138 q 147 671 147 455 q 127 707 146 696 q 87 707 108 719 l 0 656 l 20 656 q 32 659 25 659 q 44 656 38 660 q 53 638 52 650 q 55 616 55 627 q 55 614 55 615 q 55 142 55 378 q 55 38 55 90 q 42 11 53 20 q 22 1 32 3 l 147 1 l 418 0 q 598 54 528 2 l 513 54 q 419 10 470 18 l 187 10 q 184 10 186 10 q 169 12 177 10 q 154 19 160 13 q 147 38 147 24 m 451 298 l 451 298 l 254 298 l 346 570 l 451 298 m 579 165 l 579 165 l 393 645 l 317 645 l 338 589 l 190 152 q 163 127 183 133 l 220 127 q 201 144 197 132 l 249 284 q 435 284 342 284 q 456 284 446 284 l 507 154 q 506 139 509 145 q 497 131 503 134 q 488 126 491 127 q 621 126 555 126 q 599 139 612 129 q 579 165 586 149 z "},"":{"ha":633,"x_min":0,"x_max":618,"o":"m 318 161 l 318 161 l 318 369 l 490 369 q 520 356 509 369 q 534 329 531 343 l 534 378 l 534 427 q 523 401 532 415 q 490 387 513 387 l 318 387 l 318 595 l 303 619 l 422 619 q 463 612 442 618 q 531 574 500 601 l 618 574 q 593 591 606 583 q 475 627 537 620 q 422 629 448 629 q 306 629 370 629 q 193 629 241 629 q 213 617 203 626 q 225 591 223 609 q 225 491 225 532 q 225 345 225 414 q 225 161 225 277 q 213 134 223 143 q 193 123 203 125 l 318 123 l 435 123 q 614 178 544 125 l 529 178 q 435 133 486 140 l 409 133 q 405 133 408 133 q 373 134 393 133 q 335 141 353 136 q 318 161 318 147 m 147 38 l 147 38 q 147 239 147 138 q 147 671 147 455 q 127 707 146 696 q 87 707 108 719 l 0 656 l 20 656 q 32 659 25 659 q 44 656 38 660 q 53 638 52 650 q 55 616 55 627 q 55 614 55 615 q 55 155 55 385 q 55 38 55 96 q 42 11 53 20 q 22 1 32 3 l 147 1 l 418 0 q 598 54 528 2 l 513 54 q 419 10 470 18 l 187 10 q 184 10 186 10 q 169 12 177 10 q 154 19 160 13 q 147 38 147 24 z "},"":{"ha":667,"x_min":0,"x_max":651,"o":"m 147 38 l 147 38 q 147 239 147 138 q 147 671 147 455 q 127 707 146 696 q 87 707 108 719 l 0 656 l 20 656 q 32 659 25 659 q 44 656 38 660 q 53 638 52 650 q 55 616 55 627 q 55 614 55 615 q 55 182 55 398 q 55 38 55 110 q 42 11 53 20 q 22 1 32 3 l 147 1 l 418 0 q 598 54 528 2 l 513 54 q 419 10 470 18 l 187 10 q 184 10 186 10 q 169 12 177 10 q 154 19 160 13 q 147 38 147 24 m 365 600 l 365 600 q 302 554 328 588 q 271 465 275 519 q 287 326 267 407 q 334 197 306 245 q 401 138 363 153 q 476 134 439 123 l 477 134 q 479 135 479 135 q 481 136 481 136 q 485 137 483 136 l 486 137 q 543 184 519 151 q 571 269 566 218 q 559 391 574 319 l 551 423 q 507 536 532 494 q 445 594 480 578 q 374 602 410 610 l 374 602 q 371 601 372 602 q 369 601 370 601 q 366 600 368 600 q 366 600 366 600 q 365 600 366 600 m 330 597 l 330 597 q 511 597 420 624 q 583 554 551 583 q 633 481 614 526 q 651 367 651 431 q 633 252 651 303 q 583 179 614 208 q 511 137 551 151 q 330 137 420 109 q 258 179 290 151 q 208 252 227 208 q 190 367 190 303 q 208 481 190 431 q 258 554 227 526 q 330 597 290 583 z "}}}
